<?xml version="1.0" encoding="UTF-8"?>
<!DOCTYPE svg PUBLIC "-//W3C//DTD SVG 1.1//EN" "http://www.w3.org/Graphics/SVG/1.1/DTD/svg11.dtd">
<!-- Creator: CorelDRAW 2020 (64-Bit) -->
<svg xmlns="http://www.w3.org/2000/svg" xml:space="preserve" width="691px" height="313px" version="1.1" style="shape-rendering:geometricPrecision; text-rendering:geometricPrecision; image-rendering:optimizeQuality; fill-rule:evenodd; clip-rule:evenodd"
viewBox="0 0 144.09 65.29"
 xmlns:xlink="http://www.w3.org/1999/xlink"
 xmlns:xodm="http://www.corel.com/coreldraw/odm/2003">
 <defs>
  <style type="text/css">
   <![CDATA[
    .fil0 {fill:black;fill-rule:nonzero}
   ]]>
  </style>
 </defs>
 <g id="Layer_x0020_1">
  <metadata id="CorelCorpID_0Corel-Layer"/>
  <path class="fil0" d="M12.23 2.49c4.92,-2.55 10.81,-3.16 16.16,-1.69 5.68,1.51 10.69,5.37 13.6,10.48 2.68,4.58 3.57,10.12 2.63,15.33 -1.34,7.63 -6.94,14.31 -14.21,16.97 -0.04,-1.69 0.07,-3.42 0.54,-5.06 2.14,-1.29 4.15,-2.83 5.69,-4.82 3.09,-3.86 4.48,-9.04 3.68,-13.91 -0.7,-5.02 -3.73,-9.61 -7.96,-12.37 -2.85,-1.86 -6.24,-2.97 -9.67,-2.9 -5.61,-0.22 -11.15,2.6 -14.53,7.04 -2.38,3.11 -3.74,7 -3.7,10.93 -0.08,5.49 2.61,10.93 6.97,14.27 3.44,2.72 7.9,4.05 12.26,3.76 -0.1,1.49 -0.1,2.98 -0.01,4.47 -4.7,0.24 -9.46,-1 -13.4,-3.57 -4.61,-2.97 -8.08,-7.68 -9.5,-12.99 -1.27,-4.73 -1,-9.89 0.88,-14.42 1.99,-4.94 5.82,-9.1 10.57,-11.52zm52.78 26.51c0.03,0.03 0.25,0.3 0.46,0.61 0.05,-0.32 0.13,-0.64 0.25,-0.95 -0.29,-0.52 -0.52,-1.1 -0.98,-1.5 -0.74,-0.19 -1.5,-0.27 -2.24,-0.43 1.16,0.27 1.84,1.33 2.51,2.26l0 0 0 0.01zm-18.96 -8.68c3.81,-0.2 7.66,0.57 11.1,2.24 0.07,0.28 0.14,0.57 0.22,0.85 -0.85,-5 1.33,-10.34 5.36,-13.4 0.22,1.15 0.39,2.31 0.76,3.41 1.54,0.15 2.98,0.71 4.4,1.29 -0.7,-0.86 -1.82,-1.2 -2.6,-1.97 -1.11,-0.87 -1.29,-2.42 -1.31,-3.73 0.58,-0.72 1.52,-0.98 2.35,-1.31 3.48,-1.22 7.3,-1.04 10.83,-0.12 1.47,0.43 2.79,1.28 4.02,2.19 -1.01,1.33 -2.64,1.91 -3.83,3 1.73,-0.29 3.27,-1.18 4.87,-1.83l0.24 0.05c2.67,2.71 4.49,6.41 4.59,10.23 -0.74,0.34 -1.47,0.71 -2.17,1.13 0.23,-2.82 -2.47,-5.65 -5.34,-5.09 -2.1,0.55 -3.75,2.3 -4.41,4.33 -0.18,0.92 -0.28,2.25 0.81,2.64 2.03,0.28 4.1,-0.07 6.15,0.02 -3.04,2.38 -5.35,5.58 -7.03,9.02 -0.21,0.68 -0.47,1.34 -0.67,2.03 -0.52,0.35 -1.03,0.71 -1.56,1.05 -0.16,-1.23 0.02,-2.46 -0.13,-3.68 -0.35,0.02 -0.69,0.04 -1.04,0.07 -0.1,1.43 -0.31,2.86 -0.49,4.28 -0.51,0.02 -1.01,0.02 -1.52,0.03 -0.14,-0.53 -0.27,-1.07 -0.4,-1.6 0.18,-0.36 0.28,-0.75 0.21,-1.15 -0.12,0.26 -0.24,0.53 -0.37,0.79 -0.18,-0.94 -0.2,-2.03 -0.91,-2.75 -0.11,0.24 -0.32,0.73 -0.43,0.97 0.72,1.94 1.46,3.89 1.73,5.96 -1.67,-0.39 -3.33,-0.84 -4.89,-1.58 -1.32,-4.56 -4.55,-8.48 -8.7,-10.76 -2.98,-1.63 -6.44,-2.37 -9.82,-2.14 0.14,-1.49 0.17,-2.99 -0.02,-4.47zm-18.36 11.35c2.55,-4.56 6.79,-8.1 11.66,-9.97 -0.02,1.73 -0.02,3.51 -0.58,5.17 -3.71,1.96 -6.63,5.28 -8.23,9.14 -1.84,4.54 -1.73,9.83 0.31,14.28 1.65,3.49 4.36,6.5 7.77,8.34 5.12,2.83 11.67,2.92 16.87,0.21 5.22,-2.61 8.93,-7.9 9.68,-13.68 1.41,0.47 2.89,0.69 4.36,0.91 -0.87,6.11 -4.4,11.78 -9.5,15.25 -4.14,2.88 -9.3,4.28 -14.32,3.91 -5.15,-0.34 -10.16,-2.52 -13.89,-6.09 -3.6,-3.32 -5.98,-7.91 -6.75,-12.73 -0.9,-5.02 0.14,-10.31 2.62,-14.74zm18.21 -3.01c1.13,-0.85 2.2,-1.86 3.57,-2.34 -0.54,1.1 -1.36,2.12 -1.46,3.38 0.01,1 1.04,1.43 1.53,2.17 0.8,1.01 0.47,2.37 0.29,3.53 0.73,0.46 1.56,1.07 2.48,0.74 0.68,-0.28 0.67,-1.19 0.61,-1.8 -1.61,-2.51 -2.6,-5.38 -3.12,-8.31 1.68,0.39 3.34,0.84 4.9,1.58 0.59,1.76 1.32,3.51 2.44,5.01 1.23,0.19 2.47,0.42 3.72,0.58l0.02 0.25c-0.9,0.18 -1.81,0.35 -2.68,0.67 3.66,4.33 9.4,6.87 15.08,6.38 -0.11,1.49 -0.12,2.99 -0.01,4.49 -3.8,0.19 -7.63,-0.59 -11.07,-2.21 0.59,1.03 1.3,1.99 1.84,3.05 -1.47,-0.66 -2.86,-1.9 -4.57,-1.74 -0.9,0.34 -0.49,1.82 -1.45,2.14 -0.98,0.46 -2,-0.24 -2.98,-0.17 -0.34,0.47 -0.63,1 -0.83,1.54 0,0.82 0.78,1.36 1.39,1.78 0.73,0.54 1.62,0.04 2.4,-0.05 0.65,1.55 0.21,3.26 -0.01,4.86 -0.18,0.8 -0.03,1.81 -0.83,2.31 -0.52,-1.33 -0.82,-2.96 -2.15,-3.73 -0.73,0.29 -1.56,0.91 -2.36,0.49 -0.85,-0.55 -1.27,-1.51 -1.73,-2.36 -1.23,0.25 -2.35,1.32 -2.03,2.67 0.07,1.09 1.8,1.02 1.73,2.12 -0.75,1.57 -2.23,2.64 -3.58,3.67 -0.42,0.42 -1.03,0.22 -1.55,0.24 0.44,-0.95 0.9,-1.93 0.98,-2.99 -0.25,-1.12 -1.86,-1.21 -2.07,-2.37 -0.3,-0.9 0.15,-1.79 0.37,-2.64 -0.82,-0.81 -2.41,-0.99 -3.13,0.02 -0.33,1.03 0.52,2.55 -0.75,3.14 -1.77,0.41 -3.59,-0.05 -5.35,-0.29 -0.28,-0.1 -1.1,-0.13 -0.89,-0.59 1.14,-0.49 2.48,-0.76 3.31,-1.77 0.65,-0.81 -0.25,-1.82 0.11,-2.69 0.24,-0.97 1.24,-1.39 1.97,-1.93 -0.36,-1.03 -1.08,-2.3 -2.37,-2.05 -0.85,0.6 -1.21,2.02 -2.44,1.93 -1.46,-0.55 -2.22,-2.03 -3.16,-3.16 0.95,-0.53 1.92,-1.06 3.01,-1.25 0.61,-0.84 1.44,-1.47 2.3,-2.02 0.61,-0.04 1.17,0.31 1.74,0.48 0.4,-0.84 1.17,-1.76 0.64,-2.71 1.06,-1.19 2.1,-2.41 2.85,-3.82 0.24,0.41 0.47,0.82 0.71,1.24 1.38,-0.14 2.41,-1.5 2.22,-2.86 -0.07,-0.72 -0.73,-1.11 -1.26,-1.48 0.51,-1.05 0.58,-2.42 1.62,-3.13zm10.45 10.11c-0.57,0.41 -1.16,0.81 -1.74,1.21 0.34,0.82 0.82,1.9 1.89,1.84 0.84,0.09 0.97,-0.92 1.28,-1.47 0.03,-0.1 0.1,-0.3 0.13,-0.4 -0.52,-0.39 -1.04,-0.79 -1.56,-1.18zm-10.18 -2.66c-2.82,0.45 -5.25,2.67 -5.98,5.43 -1.19,4.03 1.94,8.64 6.08,9.16 1.12,0.2 2.28,-0.02 3.35,-0.34 2.88,-0.95 4.88,-3.94 4.76,-6.95 0.06,-4.17 -3.99,-8.07 -8.21,-7.3zm-9.31 -6.74c0.56,0.94 0.24,1.97 -0.49,2.7 0.23,-0.89 0.36,-1.8 0.49,-2.7zm8.99 7.63c3.23,-0.82 6.74,1.48 7.58,4.64 0.41,1.68 0.31,3.55 -0.56,5.07 -1.25,2.29 -4,3.64 -6.58,3.26 -1.74,-0.33 -3.38,-1.31 -4.39,-2.79 -1.48,-2.08 -1.52,-5.05 -0.16,-7.21 0.89,-1.5 2.43,-2.55 4.11,-2.97zm49.77 -16.69c5.6,-0.3 11.31,1.55 15.6,5.19 4.19,3.43 6.98,8.44 7.85,13.77 -1.64,-0.41 -3.33,-0.76 -4.83,-1.57 -0.28,-0.27 -0.31,-0.68 -0.45,-1.02 -1.54,-4.37 -4.87,-8.06 -9.04,-10.1 -2.81,-1.4 -6.01,-1.99 -9.14,-1.79 0.11,-1.49 0.11,-2.99 0.01,-4.48zm-17.67 10.19c2.58,-4 6.5,-7.12 10.96,-8.79 -0.01,1.72 0,3.48 -0.59,5.11 -2.4,1.39 -4.55,3.22 -6.17,5.49 -2.8,3.85 -3.96,8.86 -3.1,13.55 0.79,4.71 3.58,9.03 7.49,11.74 2.92,2.02 6.46,3.25 10.03,3.17 5.8,0.24 11.56,-2.75 14.9,-7.47 1.76,-2.39 2.82,-5.23 3.26,-8.15 1.41,0.49 2.9,0.69 4.37,0.93 -0.76,5.01 -3.22,9.76 -6.97,13.19 -3.7,3.5 -8.65,5.62 -13.73,5.96 -5.68,0.43 -11.5,-1.42 -15.88,-5.07 -4.15,-3.33 -6.97,-8.25 -7.86,-13.49 -0.99,-5.55 0.2,-11.45 3.29,-16.17zm17.45 -4.18c1.54,-0.16 3.11,0.34 4.27,1.37 -0.1,-0.54 -0.2,-1.09 -0.29,-1.63 1.66,0.38 3.37,0.76 4.89,1.59 0.1,0.23 0.3,0.69 0.4,0.92 -0.92,0 -1.85,-0.07 -2.75,0.14 1.47,-0.27 3.11,-0.09 4.3,0.88 1.24,0.86 1.89,2.27 2.3,3.68 1.17,0.05 2,0.95 2.19,2.08 -0.13,0.35 -0.26,0.7 -0.38,1.05 0.75,0.45 1.47,0.96 2.03,1.64 4.21,2.47 9.42,3.19 14.13,1.84 3.88,-1.09 7.38,-3.52 9.73,-6.81 3.26,-4.42 4.27,-10.39 2.69,-15.65 -2.12,-7.53 -9.63,-13.24 -17.5,-12.89 -8.71,-0.22 -16.75,7.01 -17.68,15.62 -1.43,-0.47 -2.91,-0.7 -4.39,-0.92 0.83,-5.85 4.1,-11.33 8.88,-14.81 7.08,-5.38 17.4,-5.86 24.97,-1.2 5.35,3.18 9.25,8.69 10.46,14.8 0.87,4.45 0.45,9.18 -1.36,13.35 -2.21,5.2 -6.46,9.5 -11.65,11.75 -5.51,2.45 -12.04,2.54 -17.6,0.2l-0.04 -0.22c-0.08,0.14 -0.25,0.44 -0.33,0.58 0.16,0.11 0.49,0.32 0.66,0.42 0.44,1.37 -0.11,2.81 -0.57,4.11 -1.32,0.53 -3,0.2 -3.64,-1.18 -1.41,-0.05 -2.86,-0.21 -4.22,0.23 -1.23,0.41 -2.58,0.66 -3.65,1.43 -0.7,1.35 -0.87,2.93 -1.05,4.43 -0.03,1.07 -0.19,2.49 0.86,3.17 1.35,0.74 2.92,1.17 4.47,0.9 -1.92,1.34 -4.23,1.94 -6.5,2.38 -0.33,-0.21 -0.66,-0.41 -0.99,-0.61 -0.24,0.23 -0.47,0.46 -0.7,0.69 -0.65,-0.01 -1.29,-0.02 -1.94,-0.04 -0.11,-0.32 -0.22,-0.65 -0.33,-0.97 -0.31,0.26 -0.63,0.53 -0.94,0.8 -0.56,-0.13 -1.22,-0.09 -1.67,-0.48 -0.58,-0.58 -1.46,-0.51 -2.19,-0.72 -0.86,-0.17 -1.61,-0.65 -2.32,-1.13 0.91,-0.48 1.88,-0.99 2.95,-0.86 0.96,0.02 2.41,-0.42 2.34,-1.59 0.08,-1.55 -0.02,-3.26 -1.03,-4.51 -1.12,-1.35 -2.87,-1.9 -4.52,-2.25 -0.44,1.02 -1.16,1.98 -2.24,2.35 -1.19,0.47 -2.83,0.79 -3.82,-0.23 -0.9,-1.59 -1.25,-3.41 -1.59,-5.19 4.79,-1.81 9.06,-5.07 11.83,-9.4 1.8,-2.74 3.02,-5.87 3.53,-9.11zm-0.91 11.75c-0.24,1.05 0.71,1.64 1.35,2.29 -0.05,-0.68 0.12,-1.42 -0.11,-2.06 -0.4,-0.14 -0.83,-0.17 -1.24,-0.23zm5.53 0.03c-0.01,1.39 -0.02,2.78 0,4.17 1.11,-0.7 2.24,-1.74 2.22,-3.17 -0.76,-0.3 -1.5,-0.64 -2.22,-1zm-10.56 3.34c1.12,-0.03 2.18,0.39 3.28,0.53 -0.4,-0.56 -0.81,-1.11 -1.22,-1.66 -0.76,0.19 -1.64,0.37 -2.06,1.13zm10.91 4.89c1.44,-0.66 2.94,-1.18 4.49,-1.48 -0.34,-0.42 -0.69,-0.83 -1.02,-1.25 -1.17,0.89 -2.53,1.56 -3.47,2.73zm-12.22 -1.34c2.28,0.08 3.94,1.73 5.67,2.98 -0.12,-0.98 -0.42,-2.01 -1.26,-2.61 -1.19,-1.09 -3.04,-1.08 -4.41,-0.37zm-4.55 -12.73c1,-1.04 1.93,-2.64 3.62,-2.36 -0.93,1.94 -2.25,3.69 -3.86,5.13 -0.22,-0.9 -0.45,-2 0.24,-2.77zm31.51 -24.34c2.66,-0.87 5.59,-0.91 8.36,-0.49 3.26,0.46 6.35,2.26 8.2,5.02 1.15,1.57 1.85,3.41 2.43,5.26 0.57,-0.66 0.48,-1.58 0.34,-2.39 -0.24,-1.23 -0.68,-2.42 -1.23,-3.53 0.08,-0.03 0.24,-0.08 0.32,-0.1 1.64,2.41 3.19,5.11 3.17,8.13 0.1,1.87 -0.55,3.75 -1.7,5.22 -1.31,1.83 -3.25,3.14 -4.37,5.12 1.84,-0.6 3.86,-1.03 5.32,-2.4 0.35,-0.31 0.69,-0.63 1.06,-0.93 -0.47,2.66 -2.29,5.28 -4.98,6.04 -1.79,0.67 -3.72,0.28 -5.55,0.7 -0.88,0.18 -1.85,0.37 -2.39,1.17 0.36,0.33 0.64,0.92 1.23,0.85 1.54,0.03 3.09,0.08 4.64,0.1 -1.56,1.06 -3.46,1.37 -5.27,1.73 -1.58,0.19 -3.16,0.42 -4.75,0.39 -1.07,-5.37 -4.21,-10.27 -8.5,-13.65 2.09,-2.3 5.58,-3.08 8.47,-1.94 2.75,0.59 5,-1.52 7.27,-2.69 -0.1,2.05 -0.62,4.24 -2.17,5.68 -0.93,0.94 -2.45,1.33 -2.93,2.67 -0.27,1.01 0.87,1.59 1.7,1.7 1.44,0.3 2.53,-0.97 3.25,-2.04 0.85,-1.25 0.48,-2.78 0.59,-4.19 0.04,-1.37 0.74,-2.73 1.91,-3.47 -0.12,0.98 -0.72,1.88 -0.63,2.89 0.02,0.55 0.3,1.04 0.49,1.53 1.53,-0.99 1.78,-2.99 2.16,-4.63 -2.81,-0.34 -5.65,-2.87 -5.41,-5.86 0.7,0.73 1.09,1.73 1.94,2.32 0.82,0.06 0.72,-1.15 0.67,-1.71 -0.33,-1.55 -1.28,-3.54 -3.14,-3.49 -1.5,0.17 -2.61,1.66 -4.21,1.41 -0.86,-0.16 -1.97,-0.35 -2.58,-0.92 1.46,-0.23 3.59,0.38 4.41,-1.22 -0.35,-0.48 -0.78,-0.91 -1.36,-1.09 -2.16,-0.81 -4.48,-1.01 -6.76,-1.19zm-1.56 1.31c1.11,-0.57 2.88,-0.13 3.1,1.24 0.13,0.55 -0.32,0.89 -0.64,1.24 -0.72,0.09 -1.54,0.05 -2.08,0.62 -0.52,0.64 -0.85,1.4 -1.3,2.09 -0.17,-0.66 -0.28,-1.33 -0.39,-2 -0.96,0.47 -1.75,1.21 -2.69,1.69 0.64,-2.05 2.02,-3.96 4,-4.88zm4.55 4.04c1.17,0.06 2.05,0.89 3.05,1.39 0.65,-0.47 1.1,-1.49 2.03,-1.35 0.22,0.05 0.67,0.14 0.89,0.18 0.31,0.63 0.67,1.36 0.32,2.06 -0.74,0.95 -2.13,1.37 -3.26,0.95 -0.83,-0.59 -1.31,-1.49 -1.99,-2.21 -0.35,-0.34 -0.87,-0.54 -1.04,-1.02zm-8.33 18.75c1.06,1.15 1.8,2.54 2.51,3.92 -1.21,-1 -1.99,-2.45 -2.51,-3.92zm-52.83 -26.16c4.06,-3.77 9.58,-5.83 15.11,-5.86 5.52,0.03 11.04,2.09 15.11,5.86 4.59,4.1 7.32,10.17 7.38,16.32 0.04,3.18 -0.56,6.37 -1.85,9.27 -2.35,5.57 -7.08,10.01 -12.72,12.15 -0.02,-1.57 0.05,-3.15 0.42,-4.68 -0.03,-0.45 0.41,-0.62 0.72,-0.82 5.3,-3.02 8.9,-8.93 8.94,-15.07 0.18,-3.98 -1.09,-7.97 -3.45,-11.17 -2.61,-3.62 -6.62,-6.17 -10.99,-7.04 -4.62,-0.87 -9.59,-0.02 -13.51,2.64 -4.33,2.82 -7.27,7.58 -7.97,12.68 -1.41,-0.48 -2.88,-0.69 -4.35,-0.91 0.75,-5.11 3.31,-9.93 7.16,-13.37zm5.99 11.44c-1.72,0.59 -2.98,2.19 -3.34,3.95 -0.14,0.8 -0.08,1.75 0.61,2.28 1.07,0.84 2.5,0.69 3.77,0.73 1.54,-0.01 3.15,0.33 4.64,-0.19 1.24,-0.57 0.9,-2.16 0.41,-3.14 -1.01,-2.25 -3.5,-4.31 -6.09,-3.63zm6.89 13.42c0.66,0.11 1.24,-0.45 1.92,-0.32 0.84,-0.09 1.6,0.35 2.41,0.46 0.54,-1.16 0.21,-2.61 0.25,-3.89 -0.7,-1.21 -0.95,-2.6 -1.59,-3.84 -0.17,2.01 -0.56,4.02 -0.48,6.04 -0.14,-0.02 -0.44,-0.05 -0.58,-0.07 -0.13,-2.03 -0.34,-4.06 -0.39,-6.09 -1.92,2 -1.92,5.13 -1.54,7.71zm-56.27 -11.07c2.75,-5.12 6.54,-9.71 11.08,-13.36 -0.87,2.82 -1.13,5.99 0.12,8.73 1.84,3.63 4.74,6.6 6.53,10.25 -0.57,0.58 -1.14,1.17 -1.7,1.75 -0.35,-1.72 -1.17,-3.43 -2.52,-4.58 0.3,2.1 -0.72,4.06 -1.18,6.06 -0.09,0.85 0.57,1.48 1.26,1.83 -1.61,2.52 -2.65,5.37 -3.22,8.3 -2.76,0.43 -5.77,0.2 -8.12,-1.44 -2.82,-1.83 -4.26,-5.16 -4.51,-8.42 -0.34,-3.21 0.83,-6.31 2.26,-9.12z"/>
 </g>
</svg>
