<?xml version="1.0" encoding="UTF-8"?>
<!DOCTYPE svg PUBLIC "-//W3C//DTD SVG 1.1//EN" "http://www.w3.org/Graphics/SVG/1.1/DTD/svg11.dtd">
<!-- Creator: CorelDRAW 2020 (64-Bit) -->
<svg xmlns="http://www.w3.org/2000/svg" xml:space="preserve" width="284px" height="284px" version="1.1" style="shape-rendering:geometricPrecision; text-rendering:geometricPrecision; image-rendering:optimizeQuality; fill-rule:evenodd; clip-rule:evenodd"
viewBox="0 0 23.92 23.92"
 xmlns:xlink="http://www.w3.org/1999/xlink"
 xmlns:xodm="http://www.corel.com/coreldraw/odm/2003">
 <defs>
  <style type="text/css">
   <![CDATA[
    .fil0 {fill:black}
   ]]>
  </style>
 </defs>
 <g id="Layer_x0020_1">
  <metadata id="CorelCorpID_0Corel-Layer"/>
  <path class="fil0" d="M11.96 0c6.61,0 11.96,5.36 11.96,11.96 0,6.61 -5.35,11.96 -11.96,11.96 -6.6,0 -11.96,-5.35 -11.96,-11.96 0,-6.6 5.36,-11.96 11.96,-11.96zm3.15 4.08c-2.62,-1.17 -3.85,-1.05 -6.77,-0.36 1.91,0.16 3.91,0.28 3.99,1.44 0.01,0.29 -0.28,1 -1.8,0.39 0.21,0.55 0.71,0.97 2.01,1.01 1.06,0.01 1.57,-0.44 2.29,-0.3 0.76,0.15 1.8,0.85 1.18,1.82 -0.27,-0.24 -0.9,-1.11 -2.09,-1.01 1.62,1.19 0.83,2.22 1.51,2.52 1.03,0.46 1.16,0.92 1.16,1.64 0,0.51 -0.2,1.19 -0.54,1.18 -0.38,-0.01 -0.54,-0.38 -0.33,-1.86 -0.28,0.76 -0.86,1.21 -1.22,1.79 -0.49,0.74 -0.58,1.61 -1.09,2.19 -0.26,0.28 -0.82,0.28 -0.6,-0.44 0.32,-0.86 1.11,-1.25 1.71,-2.16 0.46,-0.72 0.63,-1.33 0.61,-2.14 -0.46,0.57 -0.8,1.17 -2.48,1.29 -1.21,-0.01 -1.57,-0.29 -2.53,-0.34 -0.94,-0.08 -5,0.42 -5.36,4.09 -0.28,3.54 3.82,6.11 6.8,6.06 1.09,0.02 1.86,-0.08 2.83,-0.68 0.98,-0.58 1.26,-1.06 2.92,-1.33 -0.42,-0.27 -0.75,-0.4 -1.57,-0.39 -0.38,-0.01 -0.69,0.15 -1.38,0.12 -0.54,-0.04 -0.63,-0.7 0,-0.97 0.63,-0.27 1.51,0.1 2.52,0.12 2.62,0.06 2.58,-2.19 4.02,-2.81 -0.74,-0.12 -1.28,0.08 -1.82,0.39 -1.8,1.05 -2.36,0.31 -1.58,-0.21 0.4,-0.21 0.81,-0.34 1.21,-0.63 0.84,-0.7 1.81,-2.62 1.83,-4.01 0.01,-1.21 -0.58,-2.93 -1.69,-3.89 -0.56,-0.48 -0.56,-0.75 -0.75,-1.44 -0.21,0.77 0.01,1.64 0.47,2.41 0.3,0.57 -0.21,1.13 -0.37,0.6 -0.38,-1.25 -0.62,-2.7 -3.09,-4.09zm-2.88 5.15c-0.49,-0.08 -1.32,-0.33 -2.16,-2.46 0.31,0.23 0.88,0.51 1.44,0.51 0.55,-0.01 2.25,-0.81 2.39,0.73 0.06,0.8 -0.62,1.4 -1.67,1.22zm-4.93 -3.36c-0.66,-0.15 -1.02,0.64 -1.9,1.18 0.71,-1.56 1.34,-2.42 2.73,-2.51 2.11,-0.13 1.79,2.01 0.79,1.9 -0.83,-0.09 -1.24,0 -1.87,0.9 -0.08,-0.34 0,-0.64 0.22,-0.84 0.22,-0.2 0.34,-0.53 0.03,-0.63zm4.66 -4.66c5.94,0 10.75,4.81 10.75,10.75 0,5.94 -4.81,10.75 -10.75,10.75 -5.94,0 -10.75,-4.81 -10.75,-10.75 0,-5.94 4.81,-10.75 10.75,-10.75z"/>
 </g>
</svg>
