<?xml version="1.0" encoding="UTF-8"?>
<!DOCTYPE svg PUBLIC "-//W3C//DTD SVG 1.1//EN" "http://www.w3.org/Graphics/SVG/1.1/DTD/svg11.dtd">
<!-- Creator: CorelDRAW 2020 (64-Bit) -->
<svg xmlns="http://www.w3.org/2000/svg" xml:space="preserve" width="284px" height="284px" version="1.1" style="shape-rendering:geometricPrecision; text-rendering:geometricPrecision; image-rendering:optimizeQuality; fill-rule:evenodd; clip-rule:evenodd"
viewBox="0 0 29.65 29.65"
 xmlns:xlink="http://www.w3.org/1999/xlink"
 xmlns:xodm="http://www.corel.com/coreldraw/odm/2003">
 <defs>
  <style type="text/css">
   <![CDATA[
    .fil0 {fill:black}
   ]]>
  </style>
 </defs>
 <g id="Layer_x0020_1">
  <metadata id="CorelCorpID_0Corel-Layer"/>
  <path class="fil0" d="M14.82 0c8.19,0 14.83,6.64 14.83,14.82 0,8.19 -6.64,14.83 -14.83,14.83 -8.18,0 -14.82,-6.64 -14.82,-14.83 0,-8.18 6.64,-14.82 14.82,-14.82zm-5.13 23.24c4.41,-0.52 4.92,-5.69 1.33,-4.89 -1.01,0.28 -1.8,0.98 -3.69,1.05 -2.81,-0.11 -4.39,-2.67 -2.1,-4.58 -1.54,-1.3 -1.05,-3.42 1.31,-4.1 -1.42,-2.49 1.1,-5.32 4.27,-3.58 1.35,-3.38 4.79,-3.62 6.79,-1.21 1.88,-0.62 3.92,-0.49 4.5,2.2 1.2,0.18 2,0.79 1.37,2.2 1.77,0.79 2.15,2.33 1.25,3.97 1.47,1.78 1.05,4.04 -2.56,4.05 -5.4,-2.53 -7.12,3.45 -1.35,4.75 -2.13,-0.09 -2.59,0.19 -1.94,2.22 -3.07,-1.58 -4.87,-1.8 -6.58,-0.04 0.16,-1.52 -0.32,-2.25 -2.6,-2.04zm3.33 -6.56c-0.72,0 -1.54,-0.08 -1.95,-0.19 -0.45,-0.13 -0.81,-0.48 -0.66,-0.86 0.15,-0.38 0.64,-0.33 1.07,-0.16 0.44,0.18 0.97,0.6 1.54,1.21zm0.24 -2.48c-0.58,-0.23 -1.04,-0.33 -1.33,-0.54 -0.33,-0.25 -0.58,-0.76 -0.34,-1.02 0.24,-0.26 0.74,-0.05 1.04,0.23 0.3,0.27 0.36,0.65 0.63,1.33zm1.41 -1.59c-0.18,-0.31 -0.34,-0.46 -0.37,-0.68 -0.03,-0.24 0.1,-0.58 0.31,-0.58 0.21,-0.01 0.39,0.26 0.39,0.5 0.01,0.24 -0.13,0.39 -0.33,0.76zm2.29 1.27c0.38,-0.39 0.8,-0.52 0.96,-0.81 0.17,-0.31 0.16,-0.87 -0.12,-0.99 -0.29,-0.12 -0.69,0.21 -0.76,0.56 -0.07,0.4 -0.11,0.6 -0.08,1.24zm0.37 2.34c0.72,-0.07 1.51,-0.03 1.89,-0.23 0.41,-0.22 0.68,-0.59 0.49,-0.96 -0.18,-0.36 -0.66,-0.27 -1.08,-0.06 -0.42,0.21 -0.78,0.59 -1.3,1.25zm-2.51 -14.72c7.36,0 13.33,5.96 13.33,13.32 0,7.36 -5.97,13.33 -13.33,13.33 -7.36,0 -13.32,-5.97 -13.32,-13.33 0,-7.36 5.96,-13.32 13.32,-13.32z"/>
 </g>
</svg>
