<?xml version="1.0" encoding="UTF-8"?>
<!DOCTYPE svg PUBLIC "-//W3C//DTD SVG 1.1//EN" "http://www.w3.org/Graphics/SVG/1.1/DTD/svg11.dtd">
<!-- Creator: CorelDRAW 2020 (64-Bit) -->
<svg xmlns="http://www.w3.org/2000/svg" xml:space="preserve" width="284px" height="284px" version="1.1" style="shape-rendering:geometricPrecision; text-rendering:geometricPrecision; image-rendering:optimizeQuality; fill-rule:evenodd; clip-rule:evenodd"
viewBox="0 0 100.98 100.98"
 xmlns:xlink="http://www.w3.org/1999/xlink"
 xmlns:xodm="http://www.corel.com/coreldraw/odm/2003">
 <defs>
  <style type="text/css">
   <![CDATA[
    .fil0 {fill:black}
   ]]>
  </style>
 </defs>
 <g id="Layer_x0020_1">
  <metadata id="CorelCorpID_0Corel-Layer"/>
  <path class="fil0" d="M50.49 0c27.89,0 50.49,22.61 50.49,50.49 0,27.89 -22.6,50.49 -50.49,50.49 -27.88,0 -50.49,-22.6 -50.49,-50.49 0,-27.88 22.61,-50.49 50.49,-50.49zm9.73 12.69c-3.33,14.56 -2.99,20.51 2.79,26.4 11.31,11.52 14.01,18.88 13.45,27.44 -0.86,13.15 -12.88,21.33 -25.34,21.75 -15.12,0.5 -23.52,-9.44 -25.85,-19.98 -1.84,-8.33 -1.01,-17.58 7.19,-30.44 6.82,-10.69 16.03,-17.38 27.76,-25.17zm5.04 41.8c2.41,-0.56 5.59,2.89 6.7,7.27 1.11,4.37 -1.18,7.77 -4.5,7.84 -3.32,0.07 -5.6,-2.32 -5.82,-6.64 -0.22,-4.32 1.2,-7.91 3.62,-8.47zm-14.77 -49.39c25.07,0 45.39,20.32 45.39,45.39 0,25.07 -20.32,45.39 -45.39,45.39 -25.07,0 -45.39,-20.32 -45.39,-45.39 0,-25.07 20.32,-45.39 45.39,-45.39z"/>
 </g>
</svg>
