<?xml version="1.0" encoding="UTF-8"?>
<!DOCTYPE svg PUBLIC "-//W3C//DTD SVG 1.1//EN" "http://www.w3.org/Graphics/SVG/1.1/DTD/svg11.dtd">
<!-- Creator: CorelDRAW 2020 (64-Bit) -->
<svg xmlns="http://www.w3.org/2000/svg" xml:space="preserve" width="154px" height="247px" version="1.1" style="shape-rendering:geometricPrecision; text-rendering:geometricPrecision; image-rendering:optimizeQuality; fill-rule:evenodd; clip-rule:evenodd"
viewBox="0 0 32.01 51.17"
 xmlns:xlink="http://www.w3.org/1999/xlink"
 xmlns:xodm="http://www.corel.com/coreldraw/odm/2003">
 <defs>
  <style type="text/css">
   <![CDATA[
    .fil0 {fill:black;fill-rule:nonzero}
   ]]>
  </style>
 </defs>
 <g id="Layer_x0020_1">
  <metadata id="CorelCorpID_0Corel-Layer"/>
  <path class="fil0" d="M13.81 6.37c2.05,-2.29 4.23,-4.46 6.63,-6.37 -0.3,3.52 -1.18,7.07 -0.55,10.6 0.55,3.12 2.2,5.9 4,8.46 2.26,3.21 4.86,6.21 6.57,9.77 1.23,2.53 1.83,5.41 1.42,8.21 -0.48,3.22 -1.89,6.3 -4.09,8.7 -3.65,4.15 -9.59,6.36 -15.03,5.06 -3.55,-0.82 -6.69,-3.02 -8.91,-5.89 -2.63,-3.39 -3.98,-7.73 -3.84,-12.01 0.09,-4.73 1.86,-9.24 4.21,-13.28 2.78,-4.7 5.96,-9.17 9.59,-13.25zm10.72 19.15c0.16,0.7 0.28,1.42 0.18,2.13 -0.25,2.29 -1.66,4.22 -2.19,6.43 -0.22,0.94 -0.16,2.1 0.63,2.76 1.11,0.93 2.9,1.08 4.06,0.16 0.88,-0.72 1.13,-1.93 1.13,-3.01 -0.03,-1.85 -0.58,-3.66 -1.38,-5.31 -0.59,-1.19 -1.32,-2.37 -2.43,-3.16z"/>
 </g>
</svg>
