<?xml version="1.0" encoding="UTF-8"?>
<!DOCTYPE svg PUBLIC "-//W3C//DTD SVG 1.1//EN" "http://www.w3.org/Graphics/SVG/1.1/DTD/svg11.dtd">
<!-- Creator: CorelDRAW 2020 (64-Bit) -->
<svg xmlns="http://www.w3.org/2000/svg" xml:space="preserve" width="254px" height="262px" version="1.1" style="shape-rendering:geometricPrecision; text-rendering:geometricPrecision; image-rendering:optimizeQuality; fill-rule:evenodd; clip-rule:evenodd"
viewBox="0 0 50.21 51.79"
 xmlns:xlink="http://www.w3.org/1999/xlink"
 xmlns:xodm="http://www.corel.com/coreldraw/odm/2003">
 <defs>
  <style type="text/css">
   <![CDATA[
    .fil0 {fill:black;fill-rule:nonzero}
   ]]>
  </style>
 </defs>
 <g id="Layer_x0020_1">
  <metadata id="CorelCorpID_0Corel-Layer"/>
  <path class="fil0" d="M16.93 0.87c4.39,-1.1 9.01,-1.1 13.45,-0.33 3.53,0.66 7.15,1.78 9.89,4.21 -1.4,2.18 -3.77,3.38 -5.98,4.57 2.8,0.17 5.24,-1.42 7.61,-2.67 1.86,1.54 3.38,3.45 4.66,5.49 2,3.24 3.4,6.93 3.62,10.76 0.1,2.19 0.01,4.49 -0.95,6.5 -0.57,1.2 -1.58,2.21 -2.84,2.68 -2.74,1.09 -5.82,0.85 -8.57,1.95 -0.6,0.23 -1.15,0.57 -1.66,0.95 -0.92,5.13 0.64,10.32 -0.11,15.45 -0.08,0.22 0,0.6 -0.29,0.68 -1.13,0.36 -2.3,0.54 -3.47,0.68 -1.03,-2.2 0.09,-4.68 -0.5,-6.96 -0.18,-0.77 -0.86,-1.27 -1.58,-1.46 0.16,1.07 0.13,2.23 -0.45,3.18 -0.76,1.33 -2.21,2.18 -3.71,2.38 -0.31,-1.64 0.36,-3.29 0.02,-4.92 -0.1,-0.57 -0.65,-0.84 -1.17,-0.91 -1.2,2.21 -0.89,4.82 -1.2,7.24 -0.97,0.01 -1.94,0 -2.91,0 -0.54,-2.5 -1.16,-4.99 -1.93,-7.43 -0.77,0.63 -1.18,1.6 -1.18,2.58 -0.07,1.94 0.44,3.95 -0.22,5.83 -1.33,0.11 -2.87,-0.28 -3.54,-1.55 -0.92,-1.72 -0.76,-3.76 -0.61,-5.64 0.19,-2.15 0.64,-4.27 0.79,-6.42 0.02,-0.81 0.11,-1.7 -0.36,-2.41 -0.3,-0.43 -0.58,-0.87 -0.94,-1.26 -2.65,-0.55 -5.4,-0.79 -7.95,-1.78 -1.43,-0.55 -2.8,-1.44 -3.62,-2.77 -0.87,-1.35 -1.12,-2.98 -1.2,-4.55 -0.31,-5.93 1.93,-11.87 5.74,-16.38 1.1,-1.27 2.33,-2.45 3.76,-3.35 0.2,1.8 0.68,3.56 1.21,5.29 2.05,0.86 4.25,1.24 6.31,2.07 -1.55,-1.41 -3.53,-2.4 -4.7,-4.2 -0.98,-1.46 -1.16,-3.32 -0.91,-5.03 1.59,-1.26 3.55,-1.95 5.49,-2.47zm13.46 23.01c-0.42,1.51 -0.31,3.15 0.25,4.61 3.79,0.24 7.58,0.96 11.39,0.61 1.21,-0.15 2.53,-0.36 3.43,-1.24 1.06,-1.17 1.22,-2.92 0.79,-4.39 -0.59,-1.97 -1.9,-3.68 -3.53,-4.91 -1.36,-1.05 -3.17,-1.34 -4.85,-1.14 -3.46,0.44 -6.55,3.09 -7.48,6.46zm-20.56 -6.22c-1.65,0.28 -3.05,1.37 -3.97,2.73 -1.02,1.48 -1.85,3.24 -1.72,5.08 0.09,0.92 0.43,1.94 1.27,2.43 0.94,0.56 2.03,0.8 3.1,0.99 2.35,0.39 4.74,0.43 7.1,0.18 1.28,-0.15 2.57,-0.35 3.74,-0.89 0.5,-0.25 1.04,-0.59 1.2,-1.16 0.4,-1.3 0.09,-2.72 -0.54,-3.89 -1.02,-1.9 -2.7,-3.37 -4.55,-4.42 -1.69,-0.96 -3.7,-1.57 -5.63,-1.05zm11.88 12.68c-0.92,3.03 -0.95,6.32 -0.2,9.39 2.24,-0.88 4.75,-0.46 6.97,0.25 0.53,-1.81 0.64,-3.75 0.3,-5.61 -0.43,-2.32 -1.41,-4.52 -2.69,-6.51 -0.32,3.2 -0.04,6.54 -1.22,9.59 -0.3,-0.5 -0.55,-1.03 -0.65,-1.61 -0.55,-2.8 0.26,-5.78 -0.77,-8.51 -0.87,0.8 -1.37,1.91 -1.74,3.01z"/>
 </g>
</svg>
