<?xml version="1.0" encoding="UTF-8"?>
<!DOCTYPE svg PUBLIC "-//W3C//DTD SVG 1.1//EN" "http://www.w3.org/Graphics/SVG/1.1/DTD/svg11.dtd">
<!-- Creator: CorelDRAW 2020 (64-Bit) -->
<svg xmlns="http://www.w3.org/2000/svg" xml:space="preserve" width="890px" height="222px" version="1.1" style="shape-rendering:geometricPrecision; text-rendering:geometricPrecision; image-rendering:optimizeQuality; fill-rule:evenodd; clip-rule:evenodd"
viewBox="0 0 2291.37 570.8"
 xmlns:xlink="http://www.w3.org/1999/xlink"
 xmlns:xodm="http://www.corel.com/coreldraw/odm/2003">
 <defs>
  <style type="text/css">
   <![CDATA[
    .fil0 {fill:black;fill-rule:nonzero}
   ]]>
  </style>
 </defs>
 <g id="Layer_x0020_1">
  <metadata id="CorelCorpID_0Corel-Layer"/>
  <path class="fil0" d="M937.22 2.24c48.27,-5.54 98.19,-1.18 143.43,17.31 87.25,33.66 156.19,112.92 174.68,204.93 13.87,55.52 6.23,114.48 -13.56,167.61 -23.41,57.59 -66.18,106.59 -119.15,138.88 -40.09,22.81 -85.24,37.9 -131.56,39.42 -73.18,4.01 -147.73,-21.66 -202.39,-70.53 -45.05,-39.24 -77.98,-92.75 -90.17,-151.42 -14.48,-55.62 -7.09,-114.73 12.28,-168.22 18.33,-44.76 47.54,-85.01 85.08,-115.59 39.9,-33.79 89.92,-54.41 141.36,-62.39zm-8.17 17.75c-46.71,8.31 -91.13,29.24 -127.11,60.14 -50.31,42.54 -84.19,104.04 -92.46,169.48 -7.13,49.45 0.82,100.67 21.12,146.2 26.41,58.67 74.49,107.36 133,134.14 52.31,24.38 112.53,30.96 168.91,19.06 57.91,-11.99 111.24,-44.06 149.42,-89.15 35.82,-41.55 58.13,-94.59 63,-149.22 5.24,-50.3 -4.94,-101.81 -27.53,-146.93 -29.05,-56.83 -78.49,-103.15 -137.61,-127.4 -47.31,-19.75 -100.31,-25 -150.74,-16.32zm-728.39 31.44c9.51,-9.01 26.57,-12.09 36.62,-2.23 7.22,5.95 7.83,16 9.71,24.47 12.85,-3.19 26.82,-6.18 39.67,-1.37 7.86,4.55 7.44,14.29 8.11,22.11 9.39,-10.91 19.51,-23.7 34.78,-25.71 14.64,0.64 26.41,10.31 37.77,18.46 12.47,9.73 25.23,20.3 32.55,34.65 5.02,9.38 4.26,21.98 -4.17,29.2 -27.14,28.04 -53.29,57.18 -82.28,83.36 -8.69,8.4 -21.41,14.77 -33.54,10.25 -15.05,-3.91 -21.09,-24.63 -10.72,-36.11 8.78,-10.06 18.68,-19.09 27.78,-28.89 -12.6,-7.38 -28.29,-14.19 -32.52,-29.59 -3.94,-9.42 4.1,-17.79 8.69,-25.2 -9.1,1.5 -18.33,1.81 -27.53,1.62 0.17,103.76 0.13,207.48 0.07,311.23 0.35,5.92 -1.05,12.22 0.95,17.92 19.22,3.91 41.97,2.42 57.27,16.7 14.23,13.94 4.55,42.79 -16.29,42.76 -22.27,-1.74 -44.09,-8.21 -66.53,-8.81 -49.06,-1.4 -97.58,7.38 -146.38,11.04 -14.61,0.7 -29.31,4.93 -43.94,2.48 -13.44,-6.29 -13.9,-43.19 0.03,-49.69 24.72,-5.51 51.38,-1.12 75.24,-10.7 12.29,-4.96 12.26,-20.17 12.92,-31.24 0.35,-71.08 -0.03,-142.16 0.19,-213.24 0.58,-20.23 -3.91,-40.09 -5.92,-60.13 -1.17,-7.32 -1.39,-16.2 -6.93,-21.64 -27.97,-2.67 -56.6,-1.11 -83.93,-8.56 -9.29,-2.25 -19.16,-8.05 -21.45,-18 -3.88,-13.75 5.67,-27.65 17.09,-34.53 12.56,-7.63 27.3,-0.5 40.79,-0.15 43.68,3.88 88.35,14.09 131.91,4.67 4.01,-8.05 2.9,-18.61 9.99,-25.13zm15.05 8.56c-8.37,3.56 -6.65,13.9 -8.72,21.09 -1.69,6.75 -9,9.48 -14.95,11.39 -19.66,4.68 -40.13,4.23 -60.17,2.99 -35.03,-2.57 -66.28,-12.31 -101.37,-11.47 -6.7,0.16 -31.17,17.77 3.22,27.41 24.21,4.04 48.87,3.98 73.27,5.79 13.39,-0.76 17.37,14.61 20.3,24.79 2.58,21.06 6.08,42.09 7.73,63.28 0.03,73.24 0.1,146.49 -0.06,219.73 -0.95,16.7 -1.82,38.53 -19.03,47.06 -21.63,10.35 -46.02,9.63 -69.52,11.49 -17.26,1.36 -16.27,22.15 4.7,20.25 16.2,-1.47 32.38,-3.16 48.56,-4.89 39.42,-2.93 78.65,-9.86 118.3,-8.53 22.62,0.35 44.67,6.11 67,8.94 8.6,1.63 13.14,-10.3 7.58,-15.87 -17.41,-15.27 -45.85,-3.95 -62.24,-20.4 -1.14,-111.36 -0.06,-222.81 -0.54,-334.2 0.58,-5.06 -1.56,-12.35 4.11,-15.18 14.03,-7.22 32.61,2.29 44.7,-9.86 -0.13,-6.14 -0.22,-12.31 -0.45,-18.45 -15.04,-0.58 -29.33,4.83 -44.25,5.85 -3.63,-8.18 -2.77,-17.25 -4.3,-25.8 -1.72,-6.05 -8.49,-8.59 -13.87,-5.41zm111.26 25.58c-9.22,5.28 -15.97,13.84 -22.37,22.14 -9,12.09 -18.16,24.15 -25.64,37.26 4.2,11.26 16.93,14.76 25.93,21.29 5.57,3.43 12.73,8.94 10.12,16.48 -11.07,13.61 -24.75,24.88 -35.7,38.59 -0.99,7.19 8.05,11.96 13.87,8.11 13.49,-8.11 23.83,-20.42 35.19,-31.18 19.82,-20.97 40.98,-40.91 59.37,-63.09 -5.31,-19.19 -23.86,-30.51 -38.94,-41.78 -6.65,-3.43 -13.94,-11.45 -21.83,-7.82zm244.39 -26.06c43.97,-4.47 44.86,15.17 44.26,50.33 -1.83,107.11 0.35,214.26 -0.39,321.39 7.23,-2.55 14.99,-5.95 22.69,-3.19 17.85,3.38 24.85,26.95 15.94,41.43 -6.3,9.13 -16.96,13.43 -26.38,18.58 -19.24,9.7 -36.24,23.16 -55.04,33.66 -9.48,5.57 -22.62,3.41 -29.62,-5.09 -6.74,-6.84 -8.34,-16.61 -10.6,-25.51 -22.3,20.39 -51.09,37.7 -82.43,34.83 -34.3,-3.72 -60.65,-30.73 -76.01,-59.91 -13.78,-28.41 -18.62,-60.51 -18.36,-91.88 1.43,-36.05 8.56,-74.9 34.17,-102.1 21.76,-23.9 54.66,-33.73 86.1,-35.29 18.67,-2.1 34.58,9.8 51.22,16.23 -0.7,-35.1 -0.67,-70.32 -5.03,-105.22 -0.7,-8.59 -9.06,-12.98 -14.86,-18.04 -11.04,-8.85 -25.23,-17.37 -27.9,-32.46 -1.33,-10.43 7.8,-18.67 17.09,-21.31 24.43,-7.86 49.66,-13.43 75.15,-16.45zm-70.67 44.6c10.33,10.7 24.95,17.32 33.51,29.79 5.41,14.57 4.83,30.48 6.36,45.75 2.86,32.42 0.8,65 2.89,97.45 -19.31,-8.2 -38.3,-17.46 -58.09,-24.33 -32.62,-1.5 -68.15,8.87 -88.9,35.5 -19.76,25.01 -24.37,57.97 -25.23,88.93 0,38.12 7.86,79 34.84,107.67 16.07,18.64 42.16,31.24 66.79,23.51 29.23,-6.93 48.67,-31.34 72.38,-47.76 2.16,16.52 -1.82,40.44 15.84,49.54 24.6,-14.6 47.82,-31.43 73.6,-44 11.2,-4.17 9.09,-23.64 -3.5,-23.7 -10.66,2.83 -19.29,10.24 -28.89,15.36 -1.82,-4.39 -3.09,-9 -2.71,-13.77 0.1,-110.28 -0.03,-220.56 0.07,-330.83 -0.46,-29.99 4.87,-39.09 -28.86,-37.84 -22.78,3.03 -45.74,7.07 -67.37,14.96 -11.09,4.05 -12.43,3.73 -2.73,13.77zm1015.51 -17.87c24.59,-4.33 48.17,-13.68 73.14,-16.11 14.13,-1.43 31.79,7.61 30.9,23.71 -1.4,53.83 -1.15,107.73 -1.12,161.6 24.44,-15.08 55.08,-22.12 83.01,-13.21 26.13,7.77 53.87,22.91 63.54,50.05 15.11,42.64 15.97,88.58 16.51,133.31 7.99,-5.15 16.93,-9.03 23.36,-16.32 29.62,-28.16 70.92,-36.08 107.16,-52.15 5.95,-2.96 13.01,-5.88 16.1,-12.24 -0.32,-21.99 -21.29,-38.12 -41.97,-39.71 2.83,10.12 2.93,22.33 -6.33,29.24 -20.75,16.83 -52.69,23.73 -76.33,8.87 -14.63,-9.83 -27.14,-27.93 -21.92,-46.19 4.45,-18.94 22.4,-30.17 38.78,-38.09 28.51,-12.6 59.47,-19.95 90.58,-21.6 28.93,0.63 57.12,10.47 82.25,24.37 16.77,9.58 33.16,24.72 34.36,45.24 0.64,39.33 0,78.72 0.29,118.11 -0.09,7.92 4.04,16.8 12.12,19.31 13.91,7.06 32.11,7.38 41.3,21.7 -1.84,-49.57 0.03,-99.24 -2.8,-148.78 -14,-8.14 -28.7,-16.41 -38.31,-29.87 -5.69,-7.22 -4.1,-19.38 4.2,-23.99 32.43,-21.61 65.5,-42.29 97.65,-64.31 7.24,-4.95 17.93,-5.93 23.93,1.21 9.81,11.7 11.55,27.59 11.74,42.23 29.59,-2.58 59.3,-3.19 88.96,-1.63 6.65,0.45 13.83,3.15 16.7,10.25 5.46,13.52 11.17,28.38 4.01,42.22 -6.9,13.43 -23.35,16.96 -37.16,17.05 -25.65,0.19 -51.29,1.63 -76.9,0.8 -1.21,27.3 0.92,54.66 0.15,81.99 0.64,16.35 -1.97,33.89 5.26,49.19 6.55,13.27 22.52,18.07 36.3,19.03 18.04,1.52 33.37,-11.3 51.22,-11.39 14.96,0.44 26.89,17.08 21.7,31.37 -3.75,8.65 -11.93,14.16 -19.66,18.9 -36.11,20.29 -78.94,34.64 -120.43,24.08 -28.41,-5.57 -52.18,-26.15 -64.39,-52.02 2.92,21.19 -16.9,33.76 -33.22,41.84 -20.17,9.8 -43.08,4.87 -63.73,-0.45 -17.25,-4.29 -31.88,-15.04 -44.54,-27.14 -11.08,9.01 -22.02,18.62 -35.35,24.12 -30.2,12.7 -64.85,13.02 -96.03,3.76 -13.58,-3.82 -23.64,-14.45 -30.22,-26.51 -16.45,10.76 -31.88,25.39 -52.25,27.78 -9.38,0.16 -19.91,-3.66 -24.34,-12.5 -5.09,-10.47 -4.42,-22.47 -4.67,-33.8 0.79,-39.7 1.78,-79.79 -4.78,-119.12 -3.72,-15.65 -9.35,-33.44 -24.3,-41.71 -4.97,-2.16 -10.6,-6.2 -16.01,-3.28 -10.53,4.11 -20.52,9.39 -30.45,14.73 -0.51,54.06 3.22,108.15 1.34,162.21 -0.03,7.76 -4.23,15.24 -11.55,18.26 -18.39,9.04 -37.48,16.73 -56.82,23.39 -7.58,3.21 -17.6,-0.29 -20.59,-8.18 -3.21,-8.59 -3.34,-17.94 -4.11,-26.98 -13.26,12.66 -30.48,19.54 -47.02,26.73 -29.43,12.09 -62.9,16.7 -93.76,7.5 -26.57,-6.71 -48.43,-26.95 -59.69,-51.57 -1.98,-4.65 -2.48,-9.77 -2.48,-14.73 -0.2,-46.42 -0.32,-92.85 -1.82,-139.23 -13.93,-8.02 -28.38,-16.39 -38.21,-29.5 -5.73,-7.47 -4.61,-20.04 4.07,-24.81 32.68,-21.77 65.67,-43.05 98.41,-64.75 6.91,-5.16 17.72,-4.9 23.36,2.06 9.38,11.81 11.16,27.56 11.83,42.13 30.64,-2.7 61.57,-3.72 92.24,-1.18 9.89,0.26 13.46,10.03 15.91,18.01 -1.72,-35.98 2.76,-72.48 -3.89,-108.08 -7.16,-13.68 -23.03,-19.44 -33.5,-30.13 -7.48,-7.67 -7.57,-21.51 0.61,-28.73 4.7,-4.58 11.52,-5.03 17.66,-6.36zm19.34 11.7c-9.83,2.77 -20.46,3.06 -29.43,8.37 11.29,14.38 31.56,20.4 39.33,37.74 7.41,24.94 5.09,51.38 5.5,77.06 0.41,75.37 -0.99,150.71 -2.61,226.06 0.03,21 -1.43,42.22 2.26,63.02 19.85,-7.92 39.93,-15.39 59.08,-25 2.01,-54.06 -1.94,-108.12 -1.33,-162.21 0.7,-4.93 -1.12,-11.96 4.7,-14.31 13.4,-8.31 27.78,-15.37 42.83,-20.24 25.14,0.64 44.58,21.61 50.62,44.86 14.35,50.53 7.8,103.7 9.83,155.46 -0.89,10.21 11.3,14.16 18.93,9.52 20.18,-9.52 37.01,-24.79 57.4,-34.05 0.1,16.1 9.13,32.64 25.87,36.21 30.77,7.67 66.02,7.32 93.61,-10.12 10.4,-6.33 18.51,-16.9 30.79,-19.88 8.37,1.04 13.87,8.3 20.18,13.2 15.11,13.42 35.57,18.29 55.23,20.17 17.94,2.99 35.35,-6.87 47.69,-19.06 11.19,-11.27 -7.93,-17.08 -14.76,-19.36 -9.13,-3.05 -18.16,-6.36 -26.25,-11.63 -8.78,-7.95 -13.04,-20.36 -12.5,-32.07 0.03,-37.1 0.06,-74.19 0,-111.29 0.79,-14.48 -11.36,-25.08 -22.34,-32.39 -18.17,-10.92 -38.24,-18.97 -59.08,-23.01 -19.06,-3.98 -38.53,-0.51 -57.3,3.12 -20.65,4.93 -41.4,11.29 -59.5,22.62 -9.71,6.3 -20.17,16.74 -17.21,29.43 4.32,11.84 14.53,22.08 27.13,24.66 14.26,3.28 29.02,-1.69 41.34,-8.78 3.05,-2.36 7.85,-4.52 7.54,-9.13 -0.54,-5.83 -5.36,-8.19 -10.23,-10.42 -14.74,-6.75 -1.51,-10.95 7.49,-13.38 37.38,-10.11 76.84,17.91 74,55.04 -3.65,13.97 -18.48,20.62 -30.63,25.77 -38.85,16.04 -84.48,25.46 -110.73,61.38 -1.53,-0.13 -4.55,-0.41 -6.04,-0.54 -10.15,6.81 -19.5,14.82 -30.39,20.55 0.07,-41.07 -0.03,-82.4 -6.42,-123.07 -3.6,-18.19 -7.32,-37.76 -20.08,-52.02 -18.77,-16.16 -43.3,-27.01 -68.41,-26.21 -25.61,1.46 -48.04,15.68 -67.61,31.15 -1.24,-64.85 -1.68,-129.82 0.92,-194.66 -4.07,-2.04 -8.08,-5.22 -12.88,-4.68 -19.38,1.05 -37.8,7.73 -56.54,12.12zm-227.63 187.1c5.81,5.36 12.22,10.05 19.26,13.79 6.68,4.24 16,8.47 16.35,17.6 1.85,48.71 1.15,97.52 2.23,146.23 8.56,22.5 28.57,39.99 51.83,46.04 28.19,6.94 58.54,3.21 84.79,-9 13.33,-6.27 28.1,-11.2 38.69,-21.89 3.98,-4.17 -0.76,-10.57 -5.15,-11.78 -9.13,-0.6 -17.25,4.27 -25.71,6.84 -20.43,7.99 -44.64,4.97 -62.77,-7.22 -13.4,-8.91 -19.13,-25.39 -20.05,-40.79 -2.32,-29.62 -0.03,-59.4 -1.49,-89.05 -0.8,-13.11 0.47,-26.19 2.13,-39.17 32.93,-1.72 65.92,-1.08 98.88,-2.29 5.67,-0.29 11.36,-2.74 15.12,-7.1 4.34,-8.93 1.8,-30.49 -14.63,-30.86 -14.12,-0.31 -28.23,-0.34 -42.36,-0.19 -18.04,-0.12 -36.17,4.07 -54.09,0.26 0.03,-12.4 1.16,-25.74 -3.23,-37.43 -4.43,-11.78 -4.83,-9.07 -13.3,-3.33 -28.3,19.16 -57.35,37.2 -85.54,56.5 -9.28,6.35 -9.87,4.63 -0.96,12.84zm752.59 1.14c7.34,6.39 16.38,10.79 24.29,16.51 10.86,7.86 9.65,8.42 10.55,21.04 3.3,46.27 0.97,92.75 2.15,139.06 10.34,27.81 38.37,46.9 67.71,48.65 34.23,4.35 67.32,-8.94 96.69,-25.27 4.45,-2.89 9.54,-5.66 12.15,-10.53 0.83,-5.72 -4.87,-11.2 -10.56,-9.61 -14.92,2.93 -28.57,11.52 -44.16,11.46 -20.4,-0.48 -43.72,-7.8 -53.65,-27.14 -10.75,-21.73 -6.36,-46.74 -7.32,-70.06 1.12,-28.16 -3.4,-56.54 1.85,-84.41 32.42,0.09 64.84,-0.86 97.27,-1.47 8.75,0.13 19.28,-5.91 18.16,-15.84 -0.78,-3.72 -1.92,-7.34 -3.1,-10.94 -4.38,-13.27 -1.35,-11.1 -15.48,-11.3 -14.81,-0.22 -29.6,-0.33 -44.38,-0.03 -16.74,0.16 -33.63,4.01 -50.21,-0.1 -0.81,-11.32 1.13,-23.96 -2.24,-34.9 -3.56,-11.55 -4.78,-12.13 -12.87,-6.67 -28.8,19.44 -57.88,38.49 -87.09,57.33 -8.98,5.79 -9.75,5.51 0.24,14.22zm-557.22 24.17c-27.14,0.54 -54.28,1.44 -81.42,1.18 -0.26,31.34 0.86,62.71 0.38,94.08 0.7,15.15 -0.51,32.81 10.94,44.58 15.63,13.14 38.85,14.41 57.08,6.04 13.53,-5.79 31.09,-10.21 42.48,2.23 0.09,-53.9 1.65,-107.79 2.42,-161.66 -8.34,8.65 -19.89,13.36 -31.88,13.55zm-1314.11 -180.62c5.32,-4.2 10.82,-8.18 16.58,-11.74 -0.16,116.29 -0.16,232.61 0,348.9 -5.57,-1.17 -11.1,-2.51 -16.58,-4.04 0,-111.04 0,-222.08 0,-333.12zm910.89 94.59c14.29,-23.48 27.08,-47.88 42.19,-70.82 7.35,59.94 16.67,119.6 24.66,179.44 -64.37,-0.28 -128.73,-0.12 -193.07,-0.03 23.39,-16.67 46.68,-33.53 70.35,-49.79 -30.38,-25.04 -71.81,-36.24 -110.63,-29.94 -11.86,1.49 -21.54,10.85 -24.05,22.46 -5.28,28.76 0.35,58.58 11.61,85.3 14.22,33.25 35.99,62.68 60.23,89.28 -18.8,18.84 -37.64,37.67 -56.19,56.73 -37.54,-46.83 -72.57,-97.68 -89.34,-155.97 -11.2,-40.28 -13.36,-86.16 8.18,-123.48 19.53,-35.19 60.16,-54.22 99.4,-55.17 56.47,-1.94 110.24,21.7 156.66,51.99zm-627.11 58.13c9.16,-2.01 19.95,-4.45 28,2.04 17.56,13.01 36.21,28.86 41.08,51.22 0.6,27.62 0.69,55.36 -0.04,83.01 -4.8,18.87 -20.61,32.36 -35.98,43.05 -9.74,7.19 -23.26,5.89 -33.54,0.6 -13.11,-6.33 -22.11,-18.45 -29.14,-30.79 -16.39,-28.86 -20.78,-63.7 -14.8,-96.12 4.9,-23.29 20.17,-46.81 44.42,-53.01zm10.44 13.94c-20.78,1.91 -34.43,21.22 -39.04,40.08 -7.07,36.05 -0.07,76.4 24.94,104.33 7.1,7.29 19.54,14.19 29.05,7.16 11.26,-8.49 24.05,-18.04 28.03,-32.26 0.73,-23.48 0.06,-47.03 0.32,-70.51 1.11,-16.13 -11.74,-28.28 -22.69,-38.21 -6.04,-4.68 -12.03,-12.57 -20.61,-10.59zm1402.23 119.79c17.66,-11.46 36.72,-20.78 56.57,-27.75 0.99,19.19 0.26,40 -11.67,56.07 -12.19,16.73 -33.51,29.9 -54.79,24.53 -12.25,-4.14 -16.84,-19.38 -13.56,-30.9 5.38,-9.45 14.73,-15.78 23.45,-21.95zm-4.87 23.73c-5.72,3.02 -3.18,9 -2.41,14 24.97,4.26 45.27,-19.06 48.67,-42.03 -16.54,7.19 -32.7,16 -46.26,28.03z"/>
 </g>
</svg>
