<?xml version="1.0" encoding="UTF-8"?>
<!DOCTYPE svg PUBLIC "-//W3C//DTD SVG 1.1//EN" "http://www.w3.org/Graphics/SVG/1.1/DTD/svg11.dtd">
<!-- Creator: CorelDRAW 2020 (64-Bit) -->
<svg xmlns="http://www.w3.org/2000/svg" xml:space="preserve" width="302px" height="302px" version="1.1" style="shape-rendering:geometricPrecision; text-rendering:geometricPrecision; image-rendering:optimizeQuality; fill-rule:evenodd; clip-rule:evenodd"
viewBox="0 0 50.14 50.13"
 xmlns:xlink="http://www.w3.org/1999/xlink"
 xmlns:xodm="http://www.corel.com/coreldraw/odm/2003">
 <defs>
  <style type="text/css">
   <![CDATA[
    .fil0 {color:#000;fill-rule:nonzero}
   ]]>
  </style>
 </defs>
 <g id="Layer_x0020_1">
  <metadata id="CorelCorpID_0Corel-Layer"/>
  <path class="fil0" d="M22.12 0.17c4.42,-0.52 8.99,0.15 13.06,1.96 3.12,1.37 5.95,3.39 8.27,5.89 2.43,2.62 4.3,5.77 5.42,9.16 1.95,5.85 1.63,12.41 -0.87,18.04 -0.65,-0.43 -1.24,-0.94 -1.74,-1.53 -0.31,-0.4 -0.63,-0.82 -0.72,-1.33 -0.26,-1.28 -0.71,-2.5 -1.15,-3.73 -0.05,-0.23 0.04,-0.46 0.05,-0.7 0.57,-3.64 0.05,-7.45 -1.46,-10.82 -1.44,-3.23 -3.77,-6.06 -6.67,-8.09 -3.38,-2.39 -7.54,-3.65 -11.68,-3.54 -2.52,0.05 -5.02,0.59 -7.33,1.59 -2.65,1.15 -5.04,2.89 -6.95,5.07 -2.08,2.36 -3.58,5.23 -4.33,8.29 -0.64,2.63 -0.72,5.4 -0.24,8.06 0.08,0.66 0.29,1.29 0.42,1.94 -0.31,1.03 -0.72,2.04 -1.17,3.02 -0.54,1.11 -1.33,2.15 -2.43,2.75 -1.19,-2.43 -2.02,-5.06 -2.37,-7.75 -0.47,-3.43 -0.22,-6.97 0.74,-10.3 1.74,-6.16 5.96,-11.56 11.5,-14.76 2.94,-1.72 6.25,-2.82 9.65,-3.22zm5.91 13.88c0.31,-0.48 0.5,-1.11 1.05,-1.37 0.52,-0.12 0.99,0.23 1.48,0.31 1.32,0.27 2.68,0.34 4.03,0.25 0.67,-0.05 1.29,-0.34 1.96,-0.39 0.38,-0.02 0.66,0.26 0.94,0.46 -0.24,0.78 -0.14,1.61 -0.14,2.41 0.01,0.63 0.02,1.28 0.28,1.86 0.34,0.82 0.68,1.64 1.03,2.46 0.8,1.73 1.62,3.46 2.45,5.18 0.99,2.03 1.88,4.12 2.54,6.28 0.25,0.77 0.3,1.6 0.72,2.31 0.37,0.7 0.93,1.25 1.48,1.8 0.45,0.4 0.92,0.78 1.43,1.09 -0.29,0.52 -0.59,1.04 -0.89,1.57 -0.93,-0.27 -1.85,-0.57 -2.81,-0.73 -1.65,-0.26 -3.36,-0.16 -4.98,0.27 -1.25,0.33 -2.43,0.88 -3.62,1.39 -0.34,-0.45 -0.69,-0.89 -1.03,-1.34 0.7,-0.98 1.78,-1.6 2.5,-2.57 0.55,-0.77 0.64,-1.81 0.39,-2.71 -0.16,-0.74 -0.47,-1.43 -0.78,-2.12 -0.55,-1.26 -1.1,-2.52 -1.66,-3.78 -0.45,-1.07 -0.97,-2.13 -1.62,-3.1 -0.23,-0.32 -0.36,-0.8 -0.78,-0.92 -0.39,0.03 -0.65,0.42 -1.05,0.42 -0.56,0.01 -0.96,-0.43 -1.34,-0.78 -0.32,-0.36 -0.74,-0.71 -0.8,-1.23 -0.05,-0.36 0.21,-0.65 0.42,-0.91 0.66,-0.85 1.42,-1.65 1.78,-2.67 0.15,-0.34 0.19,-0.72 0.27,-1.08 -0.71,-1.25 -2.44,-1.21 -3.25,-2.36zm-16.88 -0.88c1.91,-0.07 3.82,0.05 5.73,0.11 0.91,0.05 1.82,0.01 2.72,0.04 0.98,2.24 2.13,4.41 3.47,6.46 0.74,1.24 1.61,2.41 2.45,3.59 0.5,-0.2 0.78,-0.7 1.19,-1.04 0.42,-0.34 1.07,-0.4 1.52,-0.08 0.41,0.28 0.65,0.73 0.95,1.11 0.12,0.16 0.27,0.33 0.26,0.54 0.02,0.54 -0.33,0.97 -0.54,1.43 -0.62,1.38 -0.58,2.95 -0.29,4.41 0.45,2.22 1.35,4.31 1.93,6.49 -0.82,0.58 -1.64,1.14 -2.44,1.75 -1.14,0.81 -2.13,1.86 -2.74,3.13 -0.69,-0.34 -1.38,-0.68 -2.07,-1.03 0.18,-0.56 0.33,-1.15 0.27,-1.75 -0.46,-2.53 -0.93,-5.06 -1.67,-7.53 -0.59,-1.95 -1.28,-3.89 -2.31,-5.66 -0.79,-1.36 -1.85,-2.54 -2.99,-3.61 -0.23,-0.2 -0.39,-0.52 -0.71,-0.6 -0.29,-0.02 -0.5,0.21 -0.63,0.45 -0.26,0.51 -0.44,1.08 -0.77,1.56 -0.15,0.25 -0.47,0.18 -0.7,0.12 -0.63,-0.13 -1.15,-0.54 -1.69,-0.86 -0.26,-0.15 -0.59,-0.16 -0.81,-0.37 -0.11,-0.2 0.04,-0.4 0.1,-0.58 0.4,-0.98 0.75,-1.98 1.08,-2.99 0.24,-0.61 0.31,-1.26 0.36,-1.91 0.05,-0.29 -0.26,-0.41 -0.45,-0.53 -0.77,-0.38 -1.62,-0.51 -2.39,-0.89 0.39,-0.59 0.79,-1.16 1.17,-1.76zm-0.19 10.07c0.22,-0.06 0.44,0.07 0.64,0.15 0.61,0.29 1.22,0.57 1.82,0.87 0.29,0.15 0.28,0.54 0.17,0.81 -0.52,1.37 -1.01,2.75 -1.58,4.1 -0.26,0.61 -0.45,1.24 -0.67,1.87 -0.37,1.15 -0.52,2.35 -0.65,3.55 -0.04,0.35 0.22,0.62 0.41,0.88 0.38,0.44 0.87,0.77 1.38,1.05 -0.01,0.34 0.06,0.68 0.01,1.02 -0.02,0.15 -0.19,0.19 -0.32,0.16 -1.67,-0.24 -3.39,-0.2 -5.03,0.22 -1,0.25 -1.95,0.68 -2.77,1.3 -0.33,-0.53 -0.67,-1.06 -1,-1.58 1.76,-0.93 2.86,-2.71 3.59,-4.51 1.26,-3.15 1.97,-6.53 3.68,-9.49 0.09,-0.15 0.18,-0.3 0.32,-0.4zm27.2 16.42c1.44,-0.53 3,-0.72 4.53,-0.6 0.95,0.08 1.85,0.38 2.76,0.62 -2.46,3.39 -5.75,6.19 -9.54,7.99 -5.41,2.63 -11.78,3.17 -17.56,1.55 -5.13,-1.4 -9.74,-4.52 -13.02,-8.69 1.13,-0.88 2.58,-1.21 3.98,-1.32 0.66,-0.06 1.31,-0.01 1.97,0.03 0.11,0.01 0.24,-0.02 0.33,0.07 0.61,0.5 1.16,1.06 1.81,1.49 1.65,1.24 3.5,2.2 5.44,2.86 4.71,1.59 10.03,1.27 14.52,-0.85 1.04,-0.49 2.03,-1.08 2.97,-1.74 0.65,-0.41 1.19,-0.96 1.81,-1.41z"/>
 </g>
</svg>
