<?xml version="1.0" encoding="UTF-8"?>
<!DOCTYPE svg PUBLIC "-//W3C//DTD SVG 1.1//EN" "http://www.w3.org/Graphics/SVG/1.1/DTD/svg11.dtd">
<!-- Creator: CorelDRAW 2020 (64-Bit) -->
<svg xmlns="http://www.w3.org/2000/svg" xml:space="preserve" width="305px" height="305px" version="1.1" style="shape-rendering:geometricPrecision; text-rendering:geometricPrecision; image-rendering:optimizeQuality; fill-rule:evenodd; clip-rule:evenodd"
viewBox="0 0 86.48 86.49"
 xmlns:xlink="http://www.w3.org/1999/xlink"
 xmlns:xodm="http://www.corel.com/coreldraw/odm/2003">
 <defs>
  <style type="text/css">
   <![CDATA[
    .fil0 {fill:black;fill-rule:nonzero}
   ]]>
  </style>
 </defs>
 <g id="Layer_x0020_1">
  <metadata id="CorelCorpID_0Corel-Layer"/>
  <path class="fil0" d="M39.56 0.16c7.74,-0.67 15.66,0.78 22.64,4.19 6.71,3.26 12.57,8.28 16.76,14.46 4.84,7.05 7.48,15.57 7.52,24.12 0.09,8.84 -2.61,17.69 -7.66,24.95 -4.16,6.05 -9.91,11 -16.52,14.21 -7.98,3.94 -17.2,5.26 -25.98,3.85 -7.95,-1.25 -15.51,-4.81 -21.56,-10.11 -5.74,-4.99 -10.11,-11.55 -12.52,-18.77 -3.07,-9.12 -2.98,-19.27 0.24,-28.34 2.63,-7.42 7.33,-14.09 13.44,-19.05 6.69,-5.45 15.04,-8.82 23.64,-9.51zm0.05 8.68c-1.86,1.68 -3.43,3.66 -4.65,5.85 0.98,1.61 3.2,2 3.96,3.8 0.68,1.82 0.29,4.04 -1.02,5.49 -0.97,1.12 -2.44,1.63 -3.88,1.73 -1.06,-1.55 -1.74,-3.37 -3.08,-4.73 -1.14,-1.12 -3.03,-1.55 -4.45,-0.72 -0.89,0.44 -1.79,1.15 -2.84,0.94 -1.33,-0.21 -2.33,-1.29 -2.87,-2.47 -1.31,-2.84 -1.42,-6.05 -2.62,-8.93 -0.28,3.72 -1.43,7.28 -2.04,10.95 -0.52,3.04 -0.64,6.39 0.99,9.15 1.63,0.01 3.12,-1.01 4.76,-0.73 1.91,0.53 3.25,2.39 3.48,4.32 0.28,1.86 -0.54,3.78 -2.01,4.94 -1.82,-0.39 -3.49,-1.95 -5.44,-1.25 -2.09,0.83 -2.76,3.21 -4.22,4.73 -0.73,0.82 -1.95,0.85 -2.97,0.67 -3.21,-0.6 -5.49,-3.51 -8.79,-3.86 0.72,0.64 1.4,1.31 1.96,2.1 2.16,3 3.69,6.44 6.16,9.23 0.98,1.09 2.17,2.11 3.64,2.45 0.91,0.2 1.98,0.24 2.76,-0.38 1.25,-0.99 1.92,-2.53 3.2,-3.49 1.15,-0.89 2.9,-0.67 3.97,0.25 1.18,1.01 1.71,2.54 2.1,3.99 -1.86,1.17 -3.78,2.47 -4.83,4.47 0.43,1.58 0.71,3.29 0.19,4.89 -0.45,1.44 -1.6,2.54 -2.89,3.25 -2.53,1.42 -5.46,1.91 -8.02,3.25 4.67,0.47 9.24,1.91 13.96,1.78 1.89,-0.03 3.78,-0.46 5.43,-1.39 0.63,-2.15 0.23,-4.41 0.3,-6.61 1.04,-1.16 2.69,-1.44 4.18,-1.41 1.29,0.07 2.78,0.44 3.4,1.71 -1.11,1.28 -2.09,3.01 -1.49,4.75 0.82,2.34 3.13,3.61 4.62,5.46 0.88,1.02 0.85,2.48 0.6,3.72 -0.74,3.17 -3.4,5.44 -4.16,8.6 3.42,-3.2 7.73,-5.26 11.15,-8.46 1.62,-1.5 2.93,-3.34 3.77,-5.37 -1.88,-0.65 -3.3,-2.29 -3.88,-4.16 -0.5,-1.52 -0.44,-3.35 0.62,-4.62 0.86,-1.05 2.25,-1.44 3.55,-1.57 1.07,1.36 1.75,2.97 2.83,4.32 0.76,0.98 1.99,1.68 3.26,1.55 1.37,-0.14 2.38,-1.27 3.74,-1.4 1.32,-0.05 2.45,0.9 3.03,2.01 1.53,2.87 1.47,6.36 3.33,9.08 0.49,-4.19 1.67,-8.27 1.99,-12.48 0.19,-2.31 0.06,-4.65 -0.57,-6.89 -2.71,1.17 -6.09,0.42 -8.04,-1.79 -0.84,-0.93 -1.32,-2.26 -0.96,-3.5 0.31,-1.09 1.17,-1.89 2.03,-2.57 2.44,0.62 5.22,1.18 7.58,0.02 0.37,-1.15 0.67,-2.41 1.63,-3.23 1.18,-1.12 2.98,-1.08 4.47,-0.71 3.04,0.79 5.71,2.52 8.47,3.97 -1.97,-2.07 -3.17,-4.7 -4.61,-7.13 -1.38,-2.34 -2.79,-4.76 -4.92,-6.5 -1.35,-1.07 -3.25,-1.75 -4.92,-1.09 -1.7,0.97 -2.06,3.21 -3.66,4.3 -0.92,0.62 -2.19,0.37 -3.01,-0.3 -1.19,-0.94 -1.82,-2.39 -2.33,-3.78 2.1,-0.83 4.11,-2.31 4.93,-4.5 0.86,-2.14 0.41,-4.54 -0.45,-6.61 0.68,-0.86 1.57,-1.54 2.58,-1.95 2.87,-1.22 6.1,-1.32 8.87,-2.81 -3.68,-0.37 -7.27,-1.29 -10.94,-1.69 -3.21,-0.33 -6.71,-0.43 -9.55,1.32 -0.41,1.77 0.4,3.52 0.16,5.29 -0.1,0.83 -0.73,1.53 -1.54,1.73 -2.08,0.64 -4.74,-0.09 -5.77,-2.13 0.89,-1.31 1.38,-3.02 0.79,-4.56 -0.95,-2.56 -3.41,-4.1 -4.75,-6.4 -0.76,-1.27 -0.65,-2.86 -0.13,-4.19 1.02,-2.61 3.18,-4.54 4.48,-6.99 -3.68,2.21 -7.44,4.38 -10.62,7.29zm1.48 17.39c4.48,-0.57 9.26,0.37 12.91,3.13 5.37,3.99 7.98,11.31 6.33,17.8 -1.17,4.9 -4.49,9.27 -8.95,11.62 -6.73,3.66 -15.75,1.96 -20.93,-3.61 -5.56,-5.97 -5.86,-15.85 -1.07,-22.37 2.7,-3.77 7.11,-6.13 11.71,-6.57zm-0.23 1.75c-2.78,0.39 -5.5,1.39 -7.75,3.1 -2.48,1.85 -4.27,4.57 -5.08,7.54 -1.17,4.26 -0.72,9.06 1.71,12.81 4.1,6.43 12.93,9.24 20.02,6.48 2.96,-1.13 5.48,-3.31 7.1,-6.02 2.19,-3.66 2.93,-8.16 2.05,-12.33 -0.94,-4.2 -3.77,-7.97 -7.59,-9.98 -3.18,-1.7 -6.93,-2.11 -10.46,-1.6z"/>
 </g>
</svg>
