<?xml version="1.0" encoding="UTF-8"?>
<!DOCTYPE svg PUBLIC "-//W3C//DTD SVG 1.1//EN" "http://www.w3.org/Graphics/SVG/1.1/DTD/svg11.dtd">
<!-- Creator: CorelDRAW 2020 (64-Bit) -->
<svg xmlns="http://www.w3.org/2000/svg" xml:space="preserve" width="305px" height="305px" version="1.1" style="shape-rendering:geometricPrecision; text-rendering:geometricPrecision; image-rendering:optimizeQuality; fill-rule:evenodd; clip-rule:evenodd"
viewBox="0 0 431.65 431.64"
 xmlns:xlink="http://www.w3.org/1999/xlink"
 xmlns:xodm="http://www.corel.com/coreldraw/odm/2003">
 <defs>
  <style type="text/css">
   <![CDATA[
    .fil0 {fill:black;fill-rule:nonzero}
   ]]>
  </style>
 </defs>
 <g id="Layer_x0020_1">
  <metadata id="CorelCorpID_0Corel-Layer"/>
  <path class="fil0" d="M191.19 1.42c44.25,-5.16 90.04,3.81 129.02,25.43 33.94,18.61 62.59,46.68 82.08,80.11 19.21,32.87 29.4,70.89 29.36,108.96 -0.02,30.96 -6.7,61.94 -19.66,90.07 -15.17,33.23 -39.03,62.46 -68.54,83.98 -29.45,21.68 -64.55,35.58 -100.83,40.03 -41.76,5.15 -85.07,-1.87 -122.73,-20.77 -42.45,-20.83 -77.59,-56.19 -98.11,-98.79 -22.56,-45.85 -27.78,-99.85 -14.79,-149.24 10.52,-40.72 33.34,-78.19 64.75,-106.15 32.94,-29.72 75.34,-48.73 119.45,-53.63zm-32.06 26.9c-13.88,3.78 -28,8.72 -39.35,17.75 -1.85,12.24 -0.54,25.57 6.5,36.09 8.41,12.87 22.56,19.96 33.72,30.06 -14.75,-5.95 -30.56,-8.69 -45.24,-14.8 -3.84,-12.43 -7.24,-25.03 -8.67,-37.98 -10.25,6.47 -19.12,14.9 -27.02,24.03 -27.29,32.39 -43.38,74.93 -41.14,117.49 0.57,11.29 2.34,22.97 8.59,32.63 5.94,9.52 15.72,15.92 26,19.89 18.28,7.08 37.98,8.8 57.03,12.74 2.51,2.76 4.56,5.94 6.7,9 3.38,5.09 2.72,11.52 2.57,17.31 -1.09,15.45 -4.26,30.64 -5.64,46.06 -1.07,13.46 -2.24,28.08 4.34,40.41 4.81,9.11 15.84,11.94 25.42,11.16 4.75,-13.54 1.06,-27.9 1.61,-41.82 0,-7.05 2.9,-14.02 8.42,-18.51 5.51,17.52 9.99,35.35 13.84,53.31 6.95,-0.02 13.91,0.03 20.87,-0.05 2.24,-17.32 0,-36.02 8.61,-51.88 3.74,0.48 7.68,2.4 8.39,6.49 2.43,11.69 -2.39,23.54 -0.16,35.29 10.77,-1.46 21.16,-7.53 26.62,-17.09 4.17,-6.81 4.38,-15.11 3.19,-22.78 5.22,1.4 10.11,4.99 11.4,10.49 4.19,16.37 -3.84,34.1 3.55,49.93 8.4,-1.03 16.82,-2.34 24.91,-4.91 2.04,-0.55 1.47,-3.28 2.06,-4.86 5.36,-36.82 -5.84,-74.02 0.79,-110.79 3.67,-2.75 7.6,-5.18 11.91,-6.84 19.7,-7.89 41.77,-6.14 61.49,-13.96 9,-3.43 16.21,-10.61 20.3,-19.27 6.93,-14.41 7.59,-30.87 6.82,-46.59 -1.56,-27.46 -11.58,-53.91 -25.97,-77.15 -9.15,-14.63 -20.02,-28.36 -33.38,-39.38 -16.98,9 -34.5,20.36 -54.55,19.17 15.79,-8.58 32.78,-17.19 42.84,-32.78 -19.63,-17.43 -45.59,-25.47 -70.93,-30.22 -31.85,-5.48 -64.98,-5.5 -96.44,2.36zm96.56 165.04c6.64,-24.2 28.81,-43.15 53.64,-46.36 12,-1.42 24.99,0.65 34.77,8.18 11.69,8.82 21.07,21.12 25.27,35.26 3.15,10.51 1.96,23.06 -5.65,31.44 -6.47,6.32 -15.93,7.85 -24.57,8.89 -27.32,2.5 -54.5,-2.66 -81.7,-4.36 -4.04,-10.48 -4.78,-22.22 -1.76,-33.05zm-147.49 -44.62c13.85,-3.69 28.26,0.63 40.37,7.51 13.3,7.56 25.33,18.12 32.66,31.71 4.51,8.43 6.72,18.59 3.89,27.93 -1.17,4.09 -5.07,6.5 -8.65,8.27 -8.39,3.9 -17.66,5.35 -26.77,6.45 -16.93,1.72 -34.13,1.47 -50.94,-1.3 -7.65,-1.4 -15.47,-3.1 -22.22,-7.12 -6.05,-3.54 -8.51,-10.84 -9.16,-17.45 -0.92,-13.21 5.04,-25.78 12.35,-36.42 6.65,-9.75 16.65,-17.54 28.47,-19.58zm85.23 90.94c2.61,-7.92 6.2,-15.88 12.47,-21.59 7.37,19.57 1.55,40.93 5.53,61.04 0.72,4.13 2.49,7.95 4.67,11.51 8.46,-21.87 6.41,-45.8 8.71,-68.71 9.16,14.2 16.19,29.99 19.28,46.68 2.44,13.33 1.67,27.19 -2.12,40.22 -15.94,-5.14 -33.94,-8.11 -49.98,-1.8 -5.41,-22.03 -5.19,-45.61 1.44,-67.35z"/>
 </g>
</svg>
