<?xml version="1.0" encoding="UTF-8"?>
<!DOCTYPE svg PUBLIC "-//W3C//DTD SVG 1.1//EN" "http://www.w3.org/Graphics/SVG/1.1/DTD/svg11.dtd">
<!-- Creator: CorelDRAW 2020 (64-Bit) -->
<svg xmlns="http://www.w3.org/2000/svg" xml:space="preserve" width="305px" height="305px" version="1.1" style="shape-rendering:geometricPrecision; text-rendering:geometricPrecision; image-rendering:optimizeQuality; fill-rule:evenodd; clip-rule:evenodd"
viewBox="0 0 60.8 60.8"
 xmlns:xlink="http://www.w3.org/1999/xlink"
 xmlns:xodm="http://www.corel.com/coreldraw/odm/2003">
 <defs>
  <style type="text/css">
   <![CDATA[
    .fil0 {fill:black;fill-rule:nonzero}
   ]]>
  </style>
 </defs>
 <g id="Layer_x0020_1">
  <metadata id="CorelCorpID_0Corel-Layer"/>
  <path class="fil0" d="M26.71 0.22c6.37,-0.78 12.98,0.5 18.58,3.65 5.33,2.97 9.71,7.6 12.39,13.08 3.08,6.21 3.9,13.49 2.36,20.24 -1.39,6.18 -4.77,11.88 -9.53,16.05 -4.39,3.86 -9.91,6.42 -15.7,7.24 -6.19,0.91 -12.66,-0.13 -18.24,-2.98 -5.78,-2.93 -10.57,-7.77 -13.42,-13.59 -2.77,-5.55 -3.73,-11.95 -2.81,-18.07 0.93,-6.35 3.95,-12.36 8.49,-16.89 4.75,-4.81 11.16,-7.94 17.88,-8.73zm-2.36 2.8c-2.26,1.19 -4.07,3.33 -4.52,5.89 -0.76,-0.68 -1.64,-1.23 -2.64,-1.47 -3.13,-0.79 -6.74,1.14 -7.7,4.26 -0.51,1.58 -0.15,3.31 0.62,4.74 -0.35,0.19 -0.74,0.35 -0.95,0.7 -0.48,0.72 -0.46,1.62 -0.48,2.45 -0.74,0.08 -1.49,0.23 -2.11,0.67 -1.27,0.85 -1.95,2.37 -2.12,3.86 -0.21,1.76 0.26,3.68 1.55,4.95 -1.12,0.79 -1.85,2.07 -2.02,3.43 -0.31,2.29 0.5,4.73 2.16,6.34 1.16,1.14 2.86,1.59 4.46,1.45 2.63,-0.22 5.01,-2.03 6.11,-4.41 3.12,0.18 6.36,1.75 7.75,4.67 1.07,2.12 1.09,4.59 0.71,6.89 -2.67,1.39 -5.76,1.59 -8.49,2.82 -1.04,0.47 -2.02,1.12 -2.68,2.06 1.94,0.12 3.87,-0.2 5.8,-0.24 1.34,-0.03 2.71,0.11 3.92,0.7 0.45,1.08 0.34,2.48 1.39,3.21 1.2,-0.85 1.54,-2.82 3.19,-2.98 0.27,1.42 0.75,3.05 2.2,3.69 0.7,-1.15 1.02,-2.6 2.17,-3.43 1.96,0.9 3.38,2.81 5.6,3.17 0.17,-0.79 -0.09,-1.91 0.7,-2.42 2.25,0.04 4.67,1.17 6.82,0.02 0.06,-0.87 -0.95,-0.91 -1.5,-1.26 -0.26,-0.09 -0.08,-0.51 0.16,-0.49 1.02,-0.17 2.3,0.2 3.06,-0.69 -1.98,-1.51 -4.6,-1.25 -6.94,-1.58 -1.34,-0.17 -2.79,-0.58 -3.66,-1.7 -1.1,-1.43 -1.1,-3.36 -0.84,-5.06 0.33,-2.2 1.09,-4.3 1.71,-6.43 3.8,-1.79 8.04,-3.18 12.29,-2.43 0.58,1.04 1.52,1.96 2.74,2.15 2.79,0.42 5.68,-2.26 5.26,-5.1 -0.15,-1.13 -0.99,-2 -1.88,-2.64 2.24,-3.98 0.2,-9.47 -3.86,-11.37 0.44,-0.8 0.66,-1.79 0.29,-2.66 -0.53,-1.33 -1.88,-2.14 -3.23,-2.45 -0.65,-2.84 -2.61,-5.44 -5.36,-6.52 -2.07,-0.86 -4.42,-0.72 -6.51,-0.01 -0.86,-1.36 -2.1,-2.48 -3.55,-3.17 -3.02,-1.43 -6.7,-1.17 -9.62,0.39zm3 17.32c0.66,-0.04 1.29,0.19 1.93,0.33 0,0.93 0,1.86 0,2.78 -0.6,-0.53 -1.3,-1.01 -1.66,-1.75 -0.21,-0.42 -0.24,-0.9 -0.27,-1.36zm8.72 0.05c1.12,0.56 2.36,0.88 3.38,1.64 -0.12,1.11 -0.48,2.23 -1.23,3.07 -0.58,0.68 -1.35,1.15 -2.14,1.53 -0.01,-2.08 0,-4.16 -0.01,-6.24zm-16.44 5c0.47,-0.71 1.19,-1.36 2.1,-1.37 1.17,0.02 2.28,0.86 2.66,1.96 -1.63,0.43 -3.14,-0.62 -4.76,-0.59zm17.16 7.73c1.05,-1.93 3.4,-2.5 4.85,-4.05 0.88,0.21 1.32,1.06 1.85,1.7 -2.26,0.7 -4.63,1.15 -6.7,2.35zm-19.29 -1.9c2.33,-1.54 5.71,-0.99 7.49,1.13 0.78,0.89 1.15,2.06 1.15,3.23 -1.7,-1 -3.07,-2.47 -4.83,-3.37 -1.17,-0.64 -2.49,-0.93 -3.81,-0.99z"/>
 </g>
</svg>
