<?xml version="1.0" encoding="UTF-8"?>
<!DOCTYPE svg PUBLIC "-//W3C//DTD SVG 1.1//EN" "http://www.w3.org/Graphics/SVG/1.1/DTD/svg11.dtd">
<!-- Creator: CorelDRAW 2020 (64-Bit) -->
<svg xmlns="http://www.w3.org/2000/svg" xml:space="preserve" width="259px" height="306px" version="1.1" style="shape-rendering:geometricPrecision; text-rendering:geometricPrecision; image-rendering:optimizeQuality; fill-rule:evenodd; clip-rule:evenodd"
viewBox="0 0 29.56 34.84"
 xmlns:xlink="http://www.w3.org/1999/xlink"
 xmlns:xodm="http://www.corel.com/coreldraw/odm/2003">
 <defs>
  <style type="text/css">
   <![CDATA[
    .fil0 {fill:black;fill-rule:nonzero}
   ]]>
  </style>
 </defs>
 <g id="Layer_x0020_1">
  <metadata id="CorelCorpID_0Corel-Layer"/>
  <path class="fil0" d="M13.94 0.28c0.63,-0.38 0.61,-0.36 1.25,-0.02l13.73 7.68c0.17,0.09 0.35,0.22 0.37,0.42l0.24 17.06c0,0.46 0.18,1.39 -0.31,1.63l-12.25 7.32c-0.61,0.37 -0.93,0.62 -1.41,0.37l-14.77 -7.62c-0.23,-0.13 -0.49,-0.22 -0.67,-0.42 -0.09,-0.1 -0.11,-0.24 -0.12,-0.37l0.03 -16.22c-0.01,-0.28 -0.01,-0.55 0,-0.83 0,-0.1 0.06,-0.19 0.14,-0.24 0.52,-0.37 1.11,-0.63 1.61,-1.02l12.16 -7.74zm0.17 0.69l-4.31 2.78c-0.1,0.07 -0.51,0.36 -0.09,0.21 0.46,-0.14 0.9,-0.37 1.32,-0.63 0.21,-0.11 0.54,-0.09 0.32,0.2 -0.87,0.98 -1.72,1.99 -2.58,2.97 -0.1,0.12 -0.19,0.25 -0.31,0.34 -0.13,0.08 -0.29,0.06 -0.43,0.02 -0.08,-0.03 -0.06,-0.14 -0.01,-0.19 0.28,-0.33 0.56,-0.66 0.85,-0.98 0.34,-0.41 0.7,-0.79 1.03,-1.21 0.28,-0.35 -0.83,0.29 -0.83,-0.01 0.05,-0.2 0.3,-0.37 0.04,-0.25 -0.84,0.37 -5.98,3.83 -6.91,4.37 -0.07,0.04 -0.4,0.26 -0.11,0.22l12.2 -1.62c0.22,-0.03 0.89,-0.02 0.86,-0.27l-0.75 -5.76c-0.03,-0.25 -0.02,-0.36 -0.29,-0.19zm0.99 0.5l0.71 5.42c0.05,0.22 0.39,0.18 0.58,0.2l10.48 0.91c0.2,0.02 0.99,0.1 0.57,-0.14l-12.18 -6.8c-0.28,-0.16 -0.18,0.29 -0.16,0.41zm1.05 6.36c0.03,0.14 0.13,0.25 0.2,0.37l8.18 12.9c0.09,0.15 0.19,0.25 0.26,0l3.62 -11.99c0.07,-0.24 0.08,-0.29 -0.21,-0.32l-11.9 -1.01c-0.06,-0.01 -0.1,0.02 -0.15,0.05zm-1.75 0l-12.45 1.61c-0.26,0.04 -0.52,0.05 -0.75,0.16 -0.09,0.03 -0.11,0.14 -0.07,0.21 0.14,0.28 0.28,0.55 0.41,0.82l5.18 10.72c0.12,0.17 0.17,0.16 0.3,0l7.34 -12.47c0.19,-0.29 0.39,-0.57 0.57,-0.87 0.13,-0.23 -0.4,-0.2 -0.53,-0.18zm0.9 0.72l-7.63 13.01c-0.13,0.22 -0.25,0.37 0.12,0.37l16.1 -0.22c0.04,0 0.08,-0.03 0.11,-0.05 -0.01,-0.11 -0.08,-0.21 -0.14,-0.3l-8.2 -12.94c-0.04,-0.06 -0.09,-0.14 -0.17,-0.12 -0.09,0.05 -0.13,0.16 -0.19,0.25zm-14.62 2.3l0 14.73c0,0.22 0.04,0.21 0.22,0.1l5.28 -3.25c0.1,-0.06 0.22,-0.15 0.2,-0.28 -0.04,-0.2 -0.15,-0.38 -0.24,-0.56l-5.15 -10.59c-0.14,-0.29 -0.31,-0.88 -0.31,-0.15zm27.8 0.35l-3.2 10.54c-0.04,0.12 -0.08,0.26 0,0.38l3.31 3.66c0.28,0.31 0.24,0.05 0.24,-0.2l-0.15 -14.11c0,-0.47 0.01,-0.95 -0.2,-0.27zm-20.92 11.39c-0.28,-0.02 -0.09,0.25 -0.01,0.35l8.21 10.95c0.04,0.05 0.12,0.08 0.17,0.03 0.09,-0.08 0.15,-0.18 0.22,-0.28l7.93 -11.02c0.19,-0.28 0,-0.24 -0.25,-0.24l-16.27 0.21zm17.11 0.32l-1.88 2.63c-0.04,0.05 -0.06,0.11 -0.07,0.17 0.15,0.04 0.3,-0.04 0.46,0 0.11,0.04 0.23,0.09 0.34,0.14 0.85,0.39 1.7,0.77 2.55,1.15 0.18,0.07 0.23,0.29 0.22,0.47 0,0.08 -0.08,0.13 -0.16,0.15 -0.14,0.03 -0.28,0.05 -0.42,0.08 -0.65,0.14 -1.32,0.23 -1.97,0.39 -0.04,0.01 -0.08,0.04 -0.08,0.09 -0.02,0.13 0.05,0.26 0.03,0.39 -0.03,0.1 -0.14,0.13 -0.23,0.15 -0.09,0.01 -0.18,0.03 -0.26,0 -0.1,-0.06 -0.1,-0.21 -0.12,-0.31 -0.02,-0.08 -0.07,-0.19 -0.17,-0.17 -0.24,0.03 -0.49,0.1 -0.74,0.13 -0.07,0.01 -0.14,-0.06 -0.16,-0.13 -0.03,-0.11 -0.07,-0.23 -0.05,-0.36 0,-0.08 0.08,-0.13 0.15,-0.14 0.23,-0.05 0.46,-0.07 0.68,-0.13 0.11,-0.04 0.11,-0.17 0.09,-0.26 -0.09,-0.42 -0.15,-0.85 -0.25,-1.26 -0.02,-0.05 -0.03,-0.13 -0.1,-0.13 -0.04,0.01 -0.07,0.05 -0.1,0.08l-5.03 7.02c-0.09,0.13 -0.27,0.41 0.04,0.22l10.57 -6.35c0.22,-0.14 0.53,-0.25 0.3,-0.49l-3.34 -3.6c-0.15,-0.12 -0.19,-0.08 -0.3,0.07zm-18.43 0.3l-4.93 3.01c-0.17,0.1 -0.41,0.21 -0.15,0.35l12.99 6.67c0.27,0.14 0.45,0.16 0.18,-0.14l-7.53 -10.05c-0.14,-0.17 -0.36,0.04 -0.56,0.16zm17.09 3.38c0.04,0.21 0.09,0.43 0.13,0.65 0.01,0.08 0.03,0.19 0.13,0.21 0.12,0 0.25,-0.04 0.37,-0.06 0.32,-0.07 0.64,-0.11 0.96,-0.19 0.05,-0.01 0.08,-0.08 0.03,-0.11 -0.17,-0.11 -0.37,-0.17 -0.55,-0.26 -0.3,-0.12 -0.59,-0.27 -0.89,-0.39 -0.19,-0.07 -0.18,-0.01 -0.18,0.15zm-6.57 -23.31c0.12,-0.07 0.28,-0.01 0.34,0.12 0.58,0.97 1.13,1.96 1.7,2.94 0.07,0.11 0.15,0.21 0.18,0.34 0.02,0.07 -0.05,0.13 -0.11,0.14 -0.12,0.01 -0.25,0.02 -0.33,-0.07 -0.08,-0.09 -0.13,-0.19 -0.19,-0.29 -0.37,-0.63 -0.73,-1.28 -1.1,-1.91 -0.05,-0.08 -0.09,-0.19 -0.18,-0.24 -0.09,-0.01 -0.14,0.08 -0.2,0.14 -0.08,0.08 -0.19,0.18 -0.31,0.11 -0.1,-0.08 -0.17,-0.21 -0.2,-0.33 -0.03,-0.11 0.05,-0.19 0.11,-0.27 0.11,-0.13 0.19,-0.29 0.2,-0.46 0.01,-0.08 0.01,-0.18 0.09,-0.22zm1.06 0.2c0.07,-0.14 0.22,-0.2 0.37,-0.22 0.31,-0.04 0.63,0.01 0.9,0.15 0.39,0.21 0.71,0.54 0.9,0.94 0.16,0.33 0.16,0.72 0.03,1.07 -0.09,0.25 -0.22,0.48 -0.3,0.73 -0.03,0.07 0.01,0.16 0.09,0.16 0.4,0.03 0.81,-0.01 1.21,0.01 0.16,0.02 0.23,0.18 0.29,0.31 0.03,0.05 0.01,0.1 -0.01,0.15 -0.22,0.07 -0.44,0.01 -0.66,0.04 -0.28,0.03 -0.55,-0.02 -0.83,-0.01 -0.13,0 -0.25,0 -0.38,0 -0.09,0 -0.16,-0.06 -0.19,-0.14 -0.1,-0.19 -0.09,-0.4 -0.08,-0.6 0.01,-0.27 0.14,-0.5 0.25,-0.73 0.1,-0.25 0.22,-0.51 0.15,-0.78 -0.07,-0.22 -0.19,-0.42 -0.38,-0.56 -0.17,-0.13 -0.38,-0.26 -0.61,-0.23 -0.11,0.01 -0.22,0.08 -0.24,0.19 0,0.09 0.04,0.18 0.04,0.28 -0.03,0.16 -0.43,0.1 -0.51,-0.09 -0.09,-0.21 -0.15,-0.46 -0.04,-0.67zm-5.17 -0.08c0.17,-0.03 0.35,-0.03 0.52,-0.01 0.16,0.03 0.33,0.13 0.35,0.31 0.05,0.26 -0.08,0.51 -0.2,0.73 -0.24,0.4 -0.55,0.73 -0.84,1.08 -0.29,0.31 -0.58,0.62 -0.92,0.87 -0.37,0.29 -0.78,0.56 -1.25,0.65 -0.16,0.02 -0.32,0.02 -0.48,0.01 -0.15,-0.01 -0.33,-0.08 -0.39,-0.23 -0.07,-0.21 0,-0.44 0.09,-0.63 0.26,-0.47 0.6,-0.89 0.97,-1.28 0.27,-0.32 0.58,-0.6 0.9,-0.87 0.38,-0.28 0.79,-0.54 1.25,-0.63zm-0.18 0.47c-0.48,0.14 -0.85,0.51 -1.2,0.86 -0.36,0.39 -0.72,0.78 -1.02,1.22 -0.09,0.14 -0.2,0.29 -0.2,0.47 0,0.07 0.05,0.13 0.12,0.16 0.11,0.03 0.23,0.01 0.34,-0.03 0.37,-0.13 0.69,-0.37 0.96,-0.65 0.25,-0.24 0.48,-0.49 0.7,-0.74 0.23,-0.29 0.48,-0.57 0.66,-0.89 0.05,-0.11 0.11,-0.26 0.01,-0.36 -0.09,-0.1 -0.25,-0.08 -0.37,-0.04zm11.73 5.79c0.28,-0.05 0.58,-0.04 0.85,0.09 0.42,0.2 0.75,0.56 0.97,0.98 0.11,0.22 0.17,0.46 0.19,0.71 -0.01,0.31 -0.09,0.63 -0.3,0.87 -0.28,0.37 -0.77,0.55 -1.23,0.53 -0.42,0.03 -0.83,-0.07 -1.24,-0.14 -0.42,-0.1 -0.84,-0.2 -1.27,-0.27 -0.34,-0.03 -0.17,0.14 -0.07,0.29 0.34,0.42 0.66,0.85 1,1.27 0.06,0.09 0.13,0.17 0.18,0.26 0.05,0.09 -0.02,0.19 -0.08,0.24 -0.1,0.08 -0.2,0.17 -0.32,0.21 -0.11,0.02 -0.18,-0.08 -0.24,-0.16 -0.53,-0.68 -1.07,-1.35 -1.59,-2.03 -0.1,-0.13 -0.22,-0.25 -0.3,-0.39 -0.04,-0.07 0,-0.15 0.06,-0.19 0.23,-0.17 0.53,-0.2 0.8,-0.23 0.98,-0.03 1.9,0.42 2.87,0.44 0.24,0 0.49,-0.05 0.69,-0.18 0.24,-0.15 0.36,-0.43 0.35,-0.7 -0.04,-0.3 -0.22,-0.58 -0.47,-0.75 -0.18,-0.15 -0.43,-0.23 -0.67,-0.16 -0.13,0.04 -0.24,0.12 -0.37,0.16 -0.11,0.03 -0.18,-0.07 -0.23,-0.15 -0.07,-0.1 -0.15,-0.2 -0.19,-0.31 -0.03,-0.07 0,-0.14 0.06,-0.18 0.16,-0.12 0.36,-0.17 0.55,-0.21zm-18.01 0.85c0.15,-0.03 0.3,-0.02 0.45,0.01 0.4,0.05 0.77,0.3 0.94,0.66 0.07,0.14 0.07,0.29 0.1,0.43 0.02,0.07 0.1,0.07 0.15,0.04 0.12,-0.06 0.24,-0.12 0.38,-0.15 0.64,-0.13 1.34,0.22 1.66,0.79 0.23,0.38 0.27,0.86 0.13,1.28 -0.15,0.48 -0.48,0.92 -0.94,1.14 -0.32,0.14 -0.68,0.19 -1.02,0.1 -0.32,-0.06 -0.61,-0.22 -0.84,-0.45 -0.17,-0.16 -0.3,-0.37 -0.36,-0.61 -0.03,-0.12 0,-0.26 -0.03,-0.38 -0.02,-0.06 -0.09,-0.07 -0.14,-0.05 -0.13,0.05 -0.26,0.11 -0.41,0.11 -0.69,0.04 -1.33,-0.57 -1.36,-1.25 -0.02,-0.34 0.09,-0.68 0.27,-0.97 0.22,-0.36 0.59,-0.65 1.02,-0.7zm0 0.71c-0.4,0.09 -0.69,0.52 -0.59,0.92 0.08,0.36 0.45,0.61 0.81,0.6 0.4,-0.05 0.73,-0.45 0.69,-0.86 -0.05,-0.42 -0.5,-0.74 -0.91,-0.66zm2.03 0.97c-0.45,0.08 -0.81,0.51 -0.82,0.96 0.02,0.61 0.67,1.09 1.26,0.97 0.47,-0.12 0.82,-0.62 0.74,-1.11 -0.06,-0.32 -0.31,-0.6 -0.61,-0.73 -0.18,-0.07 -0.38,-0.14 -0.57,-0.09zm4.85 2.1c0.22,-0.05 0.44,-0.03 0.66,-0.03 0.28,0.03 0.56,0.1 0.79,0.26 0.27,0.17 0.49,0.43 0.61,0.72 0.19,0.49 0.15,1.05 -0.06,1.53 -0.19,0.36 -0.46,0.68 -0.74,0.97 -0.24,0.25 -0.5,0.48 -0.76,0.71 -0.25,0.26 -0.54,0.49 -0.77,0.77 -0.03,0.04 -0.09,0.11 -0.06,0.17 0.06,0.04 0.13,0.04 0.19,0.04 0.72,0.01 1.44,-0.01 2.16,0 0.08,0 0.15,0.06 0.15,0.14 0.02,0.14 0.02,0.29 0.01,0.43 -0.02,0.24 -0.05,0.23 -0.28,0.24 -1.03,0 -2.07,0 -3.1,0 -0.24,-0.01 -0.32,0.02 -0.3,-0.27 0.05,-0.46 0.31,-0.87 0.61,-1.22 0.42,-0.49 0.93,-0.88 1.38,-1.34 0.32,-0.31 0.64,-0.64 0.81,-1.06 0.12,-0.32 0.12,-0.72 -0.09,-1 -0.25,-0.38 -0.8,-0.5 -1.21,-0.32 -0.31,0.13 -0.52,0.45 -0.57,0.78 -0.06,0.27 0,0.31 -0.32,0.28 -0.13,-0.02 -0.26,-0.01 -0.39,-0.06 -0.09,-0.03 -0.09,-0.14 -0.09,-0.22 0.03,-0.25 0.11,-0.49 0.22,-0.71 0.22,-0.44 0.67,-0.74 1.15,-0.81zm4.13 0c0.44,-0.07 0.93,-0.04 1.3,0.23 0.33,0.21 0.53,0.57 0.66,0.93 0.13,0.37 0.21,0.76 0.23,1.15 0.03,0.37 0.02,0.73 0.01,1.1 -0.01,0.24 -0.01,0.49 -0.06,0.73 -0.08,0.49 -0.22,0.98 -0.54,1.36 -0.24,0.31 -0.63,0.5 -1.03,0.53 -0.3,0.01 -0.61,0 -0.89,-0.13 -0.35,-0.16 -0.62,-0.47 -0.78,-0.82 -0.2,-0.42 -0.25,-0.87 -0.31,-1.32 -0.02,-0.38 -0.05,-0.77 -0.02,-1.15 0.02,-0.2 0.01,-0.41 0.05,-0.61 0.07,-0.55 0.21,-1.14 0.61,-1.56 0.2,-0.23 0.48,-0.38 0.77,-0.44zm0.2 0.68c-0.17,0.04 -0.33,0.15 -0.44,0.29 -0.19,0.22 -0.26,0.52 -0.32,0.81 -0.1,0.57 -0.09,1.16 -0.08,1.75 0.03,0.21 0.02,0.43 0.07,0.64 0.05,0.26 0.1,0.53 0.25,0.75 0.16,0.24 0.42,0.43 0.72,0.43 0.24,-0.02 0.46,-0.15 0.61,-0.33 0.24,-0.27 0.32,-0.64 0.36,-0.99 0.05,-0.34 0.02,-0.69 0.05,-1.04 -0.02,-0.48 -0.01,-0.97 -0.13,-1.45 -0.06,-0.23 -0.17,-0.46 -0.34,-0.63 -0.19,-0.19 -0.48,-0.3 -0.75,-0.23zm-15.24 0.28c0.19,-0.05 0.39,0.05 0.51,0.19 0.25,0.29 0.39,0.65 0.5,1.01 0.1,0.37 0.15,0.75 0.15,1.13 0.01,0.72 -0.17,1.43 -0.42,2.1 -0.1,0.25 -0.18,0.51 -0.32,0.74 -0.1,0.19 -0.22,0.37 -0.4,0.5 -0.17,0.12 -0.43,0.1 -0.59,-0.04 -0.16,-0.14 -0.29,-0.32 -0.38,-0.52 -0.19,-0.37 -0.29,-0.78 -0.34,-1.19 -0.01,-0.29 -0.02,-0.59 0.04,-0.88 0.02,-0.08 0.02,-0.17 0.08,-0.22 0.08,-0.05 0.15,0.04 0.19,0.1 0.08,0.14 0.19,0.29 0.16,0.47 -0.08,0.45 -0.04,0.93 0.19,1.33 0.06,0.1 0.15,0.2 0.27,0.21 0.14,0.01 0.26,-0.1 0.33,-0.21 0.12,-0.17 0.23,-0.36 0.27,-0.56 0,-0.15 -0.19,-0.13 -0.28,-0.2 -0.31,-0.22 -0.46,-0.6 -0.57,-0.95 -0.14,-0.49 -0.14,-1 -0.12,-1.51 0.03,-0.34 0.1,-0.68 0.24,-0.99 0.1,-0.22 0.25,-0.44 0.49,-0.51zm0.12 0.83c-0.09,0.05 -0.14,0.13 -0.19,0.22 -0.17,0.33 -0.25,0.7 -0.24,1.07 0.01,0.38 0.1,0.76 0.3,1.07 0.06,0.1 0.17,0.22 0.3,0.19 0.16,-0.06 0.23,-0.22 0.29,-0.36 0.19,-0.56 0.2,-1.19 0.01,-1.75 -0.05,-0.13 -0.11,-0.26 -0.21,-0.36 -0.06,-0.08 -0.17,-0.13 -0.26,-0.08zm25.3 0.53c0.1,-0.05 0.14,0.08 0.16,0.14 0.13,0.65 0.25,1.3 0.38,1.95 0.01,0.08 0.04,0.16 0.09,0.23l-0.01 -0.03 0.03 -0.01c0.09,-0.16 0.06,-0.36 0.15,-0.52 0.02,-0.03 0.09,-0.02 0.1,0.02 0.08,0.14 0.1,0.3 0.07,0.46 -0.07,0.35 -0.11,0.71 -0.15,1.06 -0.02,0.24 0.04,0.5 -0.08,0.71 -0.06,0.09 -0.17,0.03 -0.17,-0.06 -0.09,-0.41 -0.17,-0.82 -0.25,-1.24 -0.04,-0.27 -0.11,-0.53 -0.17,-0.8 -0.08,-0.27 -0.08,-0.55 -0.15,-0.83 -0.04,-0.19 -0.07,-0.38 -0.11,-0.57 -0.04,-0.17 -0.03,-0.39 0.11,-0.51zm-0.49 1.13c0.09,-0.05 0.21,-0.02 0.28,0.05 0.14,0.13 0.18,0.32 0.24,0.5 0.03,0.17 0.04,0.35 0.03,0.53 -0.01,0.2 0.01,0.4 -0.03,0.6 -0.01,0.11 -0.05,0.24 0.05,0.32 0.17,0.14 0.21,0.37 0.23,0.58 0.01,0.16 0.05,0.32 0.04,0.48 -0.04,0.39 -0.05,0.79 -0.23,1.15 -0.06,0.14 -0.12,0.3 -0.27,0.36 -0.11,0.04 -0.23,-0.03 -0.29,-0.13 -0.12,-0.2 -0.14,-0.45 -0.16,-0.68 -0.03,-0.2 0.02,-0.41 0.02,-0.61 0.01,-0.17 -0.21,-0.19 -0.26,-0.32 -0.18,-0.39 -0.18,-0.83 -0.17,-1.25 0,-0.44 0.09,-0.87 0.27,-1.27 0.06,-0.12 0.13,-0.24 0.25,-0.31zm-0.01 0.67c-0.07,0.06 -0.1,0.16 -0.13,0.24 -0.13,0.41 -0.15,0.85 -0.03,1.26 0.02,0.08 0.05,0.2 0.16,0.2 0.09,-0.02 0.12,-0.12 0.16,-0.19 0.13,-0.39 0.15,-0.8 0.08,-1.2 -0.03,-0.1 -0.04,-0.21 -0.12,-0.29 -0.02,-0.04 -0.08,-0.05 -0.12,-0.02zm0.36 1.96c-0.04,0.02 -0.06,0.07 -0.08,0.11 -0.08,0.19 -0.11,0.39 -0.1,0.58 0,0.19 -0.01,0.39 0.1,0.54 0.07,0.06 0.15,-0.02 0.17,-0.09 0.12,-0.31 0.15,-0.66 0.07,-0.99 -0.02,-0.07 -0.06,-0.19 -0.16,-0.15zm-23.59 -2.37c0.05,-0.06 0.13,-0.01 0.16,0.05 0.07,0.11 0.14,0.23 0.18,0.35 0.04,0.15 -0.03,0.29 -0.07,0.42 -0.33,0.96 -0.66,1.92 -0.98,2.88 -0.03,0.08 -0.07,0.19 0.02,0.25 0.19,0.12 0.44,0.18 0.58,0.36 0.07,0.1 0.03,0.22 0,0.32 -0.04,0.09 -0.06,0.2 -0.13,0.27 -0.08,0.05 -0.17,0 -0.24,-0.04 -0.17,-0.09 -0.37,-0.18 -0.57,-0.12 -0.1,0.03 -0.21,0.1 -0.31,0.04 -0.12,-0.11 -0.18,-0.27 -0.15,-0.42 0.03,-0.15 0.09,-0.28 0.14,-0.42 0.41,-1.19 0.81,-2.39 1.22,-3.59 0.04,-0.12 0.07,-0.25 0.15,-0.35zm12.66 5.98c0.01,-0.08 0.09,-0.14 0.17,-0.14 0.15,0 0.3,-0.02 0.44,0.01 0.09,0.03 0.1,0.12 0.1,0.19 0.01,0.4 0.03,0.79 0.04,1.18 0,0.65 0.01,1.31 0.04,1.95 0.02,0.17 0,0.34 0.03,0.5 0,0.04 0.03,0.06 0.05,0.08 0.14,-0.05 0.24,-0.15 0.36,-0.23 0.17,-0.11 0.35,-0.23 0.54,-0.31 0.07,-0.03 0.16,-0.06 0.21,0.01 0.06,0.09 0.04,0.21 0.04,0.31 0,0.12 0.02,0.28 -0.09,0.36 -0.23,0.16 -0.47,0.3 -0.68,0.48 -0.18,0.17 -0.36,0.35 -0.49,0.56 -0.09,0.12 -0.16,0.28 -0.32,0.29 -0.12,0.01 -0.29,0.02 -0.32,-0.12 -0.05,-0.25 -0.01,-0.5 -0.04,-0.74 -0.02,-0.75 -0.01,-1.5 -0.04,-2.25 -0.01,-0.51 0,-1.02 -0.03,-1.53 0.01,-0.2 -0.04,-0.4 -0.01,-0.6zm-3.12 -0.07c0.14,-0.04 0.28,-0.02 0.43,-0.02 0.08,-0.01 0.16,0.04 0.17,0.12 0.03,0.13 0.01,0.27 0.03,0.4 0.02,0.21 -0.01,0.42 0.02,0.63 0.03,0.12 0.18,0.1 0.28,0.1 0.28,-0.02 0.55,0 0.83,-0.04 0.29,0 0.59,-0.01 0.88,0 0.11,-0.01 0.17,0.09 0.18,0.18 0.01,0.21 0.03,0.44 -0.09,0.63 -0.31,0.48 -0.62,0.97 -0.93,1.46 -0.39,0.58 -0.75,1.17 -1.14,1.75 -0.1,0.14 -0.29,0.11 -0.44,0.12 -0.11,0.01 -0.22,-0.06 -0.21,-0.18 0,-0.39 -0.03,-0.78 -0.03,-1.18 -0.03,-0.58 -0.01,-1.16 -0.02,-1.74 -0.02,-0.1 -0.01,-0.25 -0.12,-0.29 -0.17,-0.02 -0.34,0.05 -0.49,-0.02 -0.1,-0.04 -0.1,-0.16 -0.11,-0.25 0,-0.1 -0.01,-0.21 0.02,-0.31 0.03,-0.09 0.14,-0.11 0.22,-0.12 0.12,-0.01 0.24,0.01 0.36,-0.02 0.07,-0.04 0.07,-0.13 0.07,-0.2 0.01,-0.29 -0.01,-0.59 0.01,-0.88 0,-0.06 0.02,-0.12 0.08,-0.14zm0.77 1.93c-0.07,0.01 -0.11,0.08 -0.11,0.15 0,0.25 0,0.5 0.02,0.74 0,0.29 0.01,0.57 0.01,0.86 0.03,0.41 0.15,0.14 0.28,-0.05 0.32,-0.52 0.65,-1.02 0.97,-1.54 0.1,-0.16 0.01,-0.21 -0.15,-0.19 -0.34,0.03 -0.68,0 -1.02,0.03zm-9.34 0.63c0.15,-0.16 0.38,-0.17 0.58,-0.18 0.15,0.02 0.36,-0.01 0.43,0.16 0.03,0.1 0.08,0.21 0.02,0.31 -0.06,0.05 -0.14,0.03 -0.21,0.04 -0.12,0 -0.27,0.03 -0.34,0.15 -0.05,0.11 0.01,0.23 0.07,0.32 0.23,0.31 0.57,0.5 0.92,0.65 0.11,0.05 0.22,0.12 0.35,0.1 -0.03,-0.12 -0.12,-0.21 -0.18,-0.31 -0.11,-0.17 -0.15,-0.4 -0.11,-0.6 0.05,-0.18 0.23,-0.3 0.41,-0.34 0.26,-0.06 0.54,-0.04 0.8,0.02 0.25,0.04 0.49,0.15 0.73,0.24 0.53,0.22 1.09,0.6 1.22,1.2 0.05,0.2 0.01,0.43 -0.15,0.56 -0.18,0.18 -0.44,0.21 -0.68,0.2 -0.32,-0.01 -0.63,-0.05 -0.94,-0.14 -0.55,-0.13 -1.08,-0.29 -1.6,-0.52 -0.32,-0.14 -0.63,-0.33 -0.9,-0.55 -0.25,-0.21 -0.47,-0.48 -0.54,-0.81 -0.03,-0.17 -0.01,-0.37 0.12,-0.5zm2.34 0.81c-0.1,0.03 -0.2,0.11 -0.2,0.22 -0.01,0.17 0.09,0.31 0.2,0.43 0.36,0.36 0.87,0.54 1.37,0.56 0.15,-0.01 0.34,-0.05 0.39,-0.21 0.05,-0.15 -0.05,-0.29 -0.14,-0.4 -0.28,-0.3 -0.66,-0.47 -1.05,-0.57 -0.19,-0.05 -0.39,-0.1 -0.57,-0.03z"/>
 </g>
</svg>
