<?xml version="1.0" encoding="UTF-8"?>
<!DOCTYPE svg PUBLIC "-//W3C//DTD SVG 1.1//EN" "http://www.w3.org/Graphics/SVG/1.1/DTD/svg11.dtd">
<!-- Creator: CorelDRAW 2020 (64-Bit) -->
<svg xmlns="http://www.w3.org/2000/svg" xml:space="preserve" width="284px" height="284px" version="1.1" style="shape-rendering:geometricPrecision; text-rendering:geometricPrecision; image-rendering:optimizeQuality; fill-rule:evenodd; clip-rule:evenodd"
viewBox="0 0 38.64 38.64"
 xmlns:xlink="http://www.w3.org/1999/xlink"
 xmlns:xodm="http://www.corel.com/coreldraw/odm/2003">
 <defs>
  <style type="text/css">
   <![CDATA[
    .fil0 {fill:black}
   ]]>
  </style>
 </defs>
 <g id="Layer_x0020_1">
  <metadata id="CorelCorpID_0Corel-Layer"/>
  <path class="fil0" d="M19.32 0c10.67,0 19.32,8.65 19.32,19.32 0,10.67 -8.65,19.32 -19.32,19.32 -10.67,0 -19.32,-8.65 -19.32,-19.32 0,-10.67 8.65,-19.32 19.32,-19.32zm-3.79 33.16c-0.47,-0.09 -2.14,-0.2 -2.59,-2.94l0 -4.15c0,-3.08 -4.88,-2.45 -6.71,-4.14 -1.51,-1.38 -1.31,-6.9 3.04,-12.47 0.16,0.68 0.11,1.32 0.21,1.92 1.51,-0.22 3.75,0.29 5.91,0.75 -1.1,-0.74 -2.72,-1.5 -4.18,-2.12 0.04,-0.57 0.04,-1.13 -0.08,-2.25 4.27,-2.74 11.63,-3.3 16.57,-0.07 -0.26,0.35 -1.55,1.28 -1.77,2.1 0.46,0 1.83,-0.74 2.98,-1.38 1.06,1.17 4.32,3.87 4.35,9.78 0.02,3.62 -1.62,4.63 -4.34,5.15 -2.06,0.38 -3.15,1.35 -3.2,2.48l-0.22 4.43c-0.08,1.49 -0.53,2.28 -2.47,2.83 -0.05,-1.56 -0.1,-4.4 -0.47,-4.64 -0.42,0.42 -0.58,2.57 -0.79,3.81 -0.66,0.05 -1.35,-0.01 -1.97,-0.12 -0.04,-0.99 -0.15,-3.6 -0.58,-3.84 -0.43,0.52 -0.25,3.25 -0.4,4.46 -0.64,0.18 -1.16,0.21 -1.83,0.2 -0.23,-1.24 -0.65,-3.88 -1.13,-4.1 -0.44,0.46 -0.3,2.61 -0.33,4.31zm1.74 -9.46c0.05,-1.43 0.36,-2.5 1.27,-3.34 -0.08,1.2 0.02,2.66 0.15,3.54 0.21,1.03 0.49,1.22 0.91,0.06 0.26,-0.79 0.34,-2.32 0.32,-3.52 0.97,0.87 1.21,2.2 1.2,3.26l0 2.61c-1.72,-0.64 -2.33,-0.43 -3.85,0l0 -2.61zm-5.58 -8.74c-3.24,0.17 -3.94,3.47 -3.53,4.93 0.8,1.33 7.24,1.27 8.22,0.28 0.59,-0.96 -0.35,-5.44 -4.69,-5.21zm14.65 0.17c-1.65,-0.05 -4.82,1.14 -4.32,4.91 1.5,1.86 7.22,1.26 8.31,-0.19 0.32,-1.62 -0.11,-4.6 -3.99,-4.72zm-7.02 -13.18c9.59,0 17.37,7.78 17.37,17.37 0,9.59 -7.78,17.37 -17.37,17.37 -9.59,0 -17.37,-7.78 -17.37,-17.37 0,-9.59 7.78,-17.37 17.37,-17.37z"/>
 </g>
</svg>
