<?xml version="1.0" encoding="UTF-8"?>
<!DOCTYPE svg PUBLIC "-//W3C//DTD SVG 1.1//EN" "http://www.w3.org/Graphics/SVG/1.1/DTD/svg11.dtd">
<!-- Creator: CorelDRAW 2020 (64-Bit) -->
<svg xmlns="http://www.w3.org/2000/svg" xml:space="preserve" width="284px" height="284px" version="1.1" style="shape-rendering:geometricPrecision; text-rendering:geometricPrecision; image-rendering:optimizeQuality; fill-rule:evenodd; clip-rule:evenodd"
viewBox="0 0 55.86 55.86"
 xmlns:xlink="http://www.w3.org/1999/xlink"
 xmlns:xodm="http://www.corel.com/coreldraw/odm/2003">
 <defs>
  <style type="text/css">
   <![CDATA[
    .fil0 {fill:black}
   ]]>
  </style>
 </defs>
 <g id="Layer_x0020_1">
  <metadata id="CorelCorpID_0Corel-Layer"/>
  <path class="fil0" d="M27.93 0c15.43,0 27.93,12.5 27.93,27.93 0,15.43 -12.5,27.93 -27.93,27.93 -15.42,0 -27.93,-12.5 -27.93,-27.93 0,-15.43 12.51,-27.93 27.93,-27.93zm-3.88 38.17c-0.08,1.31 -0.2,2.5 0.06,3.98 0.56,1.47 1.3,1.95 2.77,2.72 0.03,1.54 -0.43,3.07 -1.18,4.77 4.61,-1.53 6.69,-4.44 7.27,-7.11 -1.68,-1.17 -2.41,-1.55 -2.35,-3.63 0.19,-1.05 0.84,-1.41 1.8,-1.12 0.87,0.99 1.61,1.92 2.84,2.79 1.43,0.65 2.3,0.47 3.89,-0.03 1.1,1.08 1.85,2.49 2.51,4.22 2.2,-4.32 1.63,-7.86 0.16,-10.16 -2.01,0.35 -3.39,0.41 -4.22,-0.92 -0.47,-0.82 -0.23,-1.85 0.43,-1.99 1.31,0.09 2.5,0.22 3.98,-0.03 1.47,-0.56 1.96,-1.29 2.73,-2.77 1.54,-0.02 3.07,0.45 4.76,1.21 -1.5,-4.62 -4.41,-6.72 -7.08,-7.31 -1.17,1.68 -1.56,2.41 -3.64,2.34 -0.74,-0.05 -1.53,-0.79 -1.08,-1.7 0.99,-0.86 1.93,-1.6 2.8,-2.82 0.65,-1.43 0.48,-2.3 -0.01,-3.89 1.08,-1.1 2.5,-1.84 4.23,-2.5 -4.32,-2.22 -7.85,-1.66 -10.17,-0.2 0.35,2.01 0.68,3.27 -0.87,4.35 -0.62,0.39 -1.75,0.19 -1.89,-0.61 0.11,-1.31 0.12,-2.54 -0.12,-4.02 -0.53,-1.48 -1.26,-1.98 -2.73,-2.77 0.01,-1.54 0.49,-3.06 1.28,-4.74 -4.64,1.44 -6.78,4.31 -7.4,6.97 1.66,1.2 2.47,1.64 2.38,3.72 -0.03,0.77 -1.01,1.53 -1.9,1.1 -0.87,-0.99 -1.57,-2.03 -2.8,-2.89 -1.43,-0.65 -2.3,-0.47 -3.89,0.03 -1.1,-1.08 -1.85,-2.49 -2.51,-4.23 -2.2,4.33 -1.63,7.87 -0.16,10.17 2.01,-0.23 3.23,-0.49 4.21,0.8 0.44,0.57 0.34,2.04 -0.33,2.21 -1.31,-0.08 -2.5,-0.2 -3.98,0.06 -1.46,0.57 -1.94,1.31 -2.71,2.79 -1.54,0.03 -3.07,-0.43 -4.77,-1.18 1.54,4.61 4.46,6.69 7.13,7.26 1.16,-1.69 1.54,-2.41 3.62,-2.36 0.96,0.25 1.22,1.08 1.03,1.76 -0.99,0.86 -1.88,1.48 -2.78,2.84 -0.56,1.37 -0.36,2.39 0.03,3.88 -1.06,1.17 -2.46,1.92 -4.22,2.52 4.33,2.2 7.87,1.62 10.17,0.15 -0.41,-1.95 -0.54,-2.8 0.91,-4.22 0.64,-0.47 1.8,-0.16 1.8,0.56zm3.88 -19.38c5.05,0 9.14,4.09 9.14,9.14 0,5.05 -4.09,9.14 -9.14,9.14 -5.05,0 -9.14,-4.09 -9.14,-9.14 0,-5.05 4.09,-9.14 9.14,-9.14zm0 1.6c4.17,0 7.54,3.38 7.54,7.54 0,4.17 -3.37,7.54 -7.54,7.54 -4.16,0 -7.54,-3.37 -7.54,-7.54 0,-4.16 3.38,-7.54 7.54,-7.54zm0 -17.57c13.87,0 25.11,11.24 25.11,25.11 0,13.87 -11.24,25.11 -25.11,25.11 -13.87,0 -25.11,-11.24 -25.11,-25.11 0,-13.87 11.24,-25.11 25.11,-25.11z"/>
 </g>
</svg>
