<?xml version="1.0" encoding="UTF-8"?>
<!DOCTYPE svg PUBLIC "-//W3C//DTD SVG 1.1//EN" "http://www.w3.org/Graphics/SVG/1.1/DTD/svg11.dtd">
<!-- Creator: CorelDRAW 2020 (64-Bit) -->
<svg xmlns="http://www.w3.org/2000/svg" xml:space="preserve" width="293px" height="296px" version="1.1" style="shape-rendering:geometricPrecision; text-rendering:geometricPrecision; image-rendering:optimizeQuality; fill-rule:evenodd; clip-rule:evenodd"
viewBox="0 0 1908.64 1924.99"
 xmlns:xlink="http://www.w3.org/1999/xlink"
 xmlns:xodm="http://www.corel.com/coreldraw/odm/2003">
 <defs>
  <style type="text/css">
   <![CDATA[
    .fil0 {fill:black;fill-rule:nonzero}
   ]]>
  </style>
 </defs>
 <g id="Layer_x0020_1">
  <metadata id="CorelCorpID_0Corel-Layer"/>
  <path class="fil0" d="M865.69 167.52c73.23,-66.79 159.49,-116.74 243.98,-167.52 -29.83,56.37 -79.43,100.55 -102.88,160.52 -11.78,30.56 -14.34,67.23 3.02,96.28 30.91,53 87.35,88.3 109.21,147.12 13.61,35.36 2.27,74.65 -18.28,104.83 23.68,46.86 84.89,63.55 132.72,48.85 18.51,-4.55 33.03,-20.67 35.25,-39.69 5.58,-40.65 -13.04,-81.02 -3.71,-121.67 65.43,-40.14 145.77,-37.76 219.4,-30.35 84.32,9.28 166.88,30.4 251.38,38.88 -63.55,34.34 -137.85,36.61 -203.73,64.52 -23.29,9.57 -43.73,25.1 -59.33,44.87 19.81,47.54 30.07,102.71 10.42,151.96 -18.84,50.29 -64.96,84.11 -113.3,103.29 11.67,32 26.13,65.15 53.45,86.89 18.96,15.26 48,21.18 69.13,6.72 36.78,-25 45.1,-76.29 84.21,-98.62 38.38,-15.2 82.1,0.29 112.91,25 49.09,39.85 81.42,95.54 113.14,149.24 33.08,55.91 60.76,116.26 105.96,163.87 -63.37,-33.31 -124.75,-73 -194.73,-91.17 -34.11,-8.48 -75.38,-9.39 -102.6,16.3 -21.98,18.89 -28.92,47.81 -37.35,74.13 -54.32,26.81 -118.09,13.78 -174.18,-0.46 -19.75,15.66 -39.63,34.05 -46.64,59.15 -8.41,28.36 2.63,59 21.93,80.3 44.76,50.78 122.59,68.1 184.76,41.27 14.41,51.31 17.37,105.23 13.21,158.24 -7.4,96.68 -34.56,190.46 -45.71,286.68 -42.88,-62.4 -41.4,-142.69 -76.53,-208.51 -13.5,-25.67 -39.4,-47.43 -69.75,-46.35 -31.26,2.97 -54.49,29.1 -85.76,32.23 -29.32,2.91 -57.44,-12.98 -75.04,-35.64 -24.7,-31.03 -40.42,-68.04 -64.91,-99.31 -29.94,3.03 -61.83,11.96 -81.59,36.28 -24.43,29.09 -25.73,71.12 -14.23,105.96 13.2,43.16 45.89,80.74 89.16,95.55 -19.41,46.85 -49.53,88.93 -86.61,123.5 -78.68,73.5 -177.58,120.82 -256.27,194.33 17.41,-72.49 78.63,-124.81 95.6,-197.52 5.8,-28.53 6.54,-62.18 -13.84,-85.41 -34.27,-42.53 -87.18,-71.69 -106.01,-125.49 -13.91,-39.92 8.7,-79.77 34.15,-109.27 -14.17,-29.09 -48.56,-37.69 -78.17,-39.17 -34.11,-0.75 -72.14,5.75 -95.94,32.45 -1.66,50.5 7.57,102.43 -7.01,151.75 -37.86,21.4 -81.25,31.31 -124.58,31.88 -108.59,3.13 -213.52,-30.01 -320.85,-40.71 58.93,-30.92 126.12,-42.25 184.31,-74.7 29.72,-16.35 56.14,-41.74 66.45,-74.83 11.96,-36.66 5.35,-76.01 -4.44,-112.34 24.2,-45.94 68.15,-75.83 110.97,-102.65 -8.99,-33.37 -21.24,-68.38 -48.34,-91.51 -24.54,-21.35 -64.63,-26.25 -91.11,-5.81 -29.49,21.98 -44.8,57.46 -73.61,80.12 -17.72,14.18 -42.37,13.32 -63.38,8.77 -33.65,-7.92 -61.04,-31.26 -83.64,-56.37 -56.54,-64.12 -91.73,-143.09 -141.49,-211.98 -12.7,-18.11 -28.48,-33.6 -44.87,-48.29 75.78,8.03 128.06,74.87 201.9,88.77 23.29,3.98 51.31,3.41 68.28,-15.49 33.42,-34.96 48.73,-89.56 96.9,-108.58 44.7,-16.23 83.19,19.64 124.92,28.64 33.77,-26.59 52.5,-70.78 46.07,-113.54 -5.13,-44.3 -35.93,-86.88 -79.77,-99.19 -37.75,-6.43 -72.03,17.09 -109.49,16.69 -37.36,-63.2 -34.57,-140.19 -22.66,-210.17 13.94,-84.15 40.48,-166.14 46.85,-251.55 27.68,66.11 30.18,139.96 60.24,205.21 12.42,27.04 35.25,51.99 65.88,56.71 24.2,4.84 44.81,-11.39 65.14,-21.58 32.74,-18.96 76.24,-9.28 102.38,16.57 30.69,31.15 46.4,73.06 70.78,108.75 33.07,-2.39 66.9,-14.01 89.11,-39.8 30.18,-33.42 38.94,-84.27 23.4,-126.23 -17.37,-41.28 -68.34,-50.16 -90.94,-87.23 28.02,-50.23 64.12,-95.77 106.7,-134.37zm34 399.59c-105.51,10.02 -206.92,64.12 -268.87,150.94 -110.06,149.7 -103.29,376.71 24.6,513.82 118.83,128 326.09,167.12 480.74,83.01 102.6,-54.09 178.67,-154.35 205.72,-266.92 37.92,-149.18 -22.1,-317.38 -145.48,-409.16 -83.81,-63.38 -193.65,-85.01 -296.71,-71.69zm-5.24 40.09c81.26,-11.73 167.29,-2.28 240.34,36.84 87.74,46.17 152.76,132.72 174.46,229.29 20.27,95.77 3.19,199.05 -47.09,283.1 -37.18,62.46 -95.26,112.33 -163.24,138.42 -162.84,63.37 -365.66,-1.2 -459.84,-148.9 -55.97,-86.1 -66.22,-196.32 -39.4,-294.21 18.73,-68.38 59.73,-130.84 116.78,-173.26 51.58,-39.23 114.16,-62.4 177.99,-71.28z"/>
 </g>
</svg>
