<?xml version="1.0" encoding="UTF-8"?>
<!DOCTYPE svg PUBLIC "-//W3C//DTD SVG 1.1//EN" "http://www.w3.org/Graphics/SVG/1.1/DTD/svg11.dtd">
<!-- Creator: CorelDRAW 2020 (64-Bit) -->
<svg xmlns="http://www.w3.org/2000/svg" xml:space="preserve" width="615px" height="219px" version="1.1" style="shape-rendering:geometricPrecision; text-rendering:geometricPrecision; image-rendering:optimizeQuality; fill-rule:evenodd; clip-rule:evenodd"
viewBox="0 0 212.32 75.64"
 xmlns:xlink="http://www.w3.org/1999/xlink"
 xmlns:xodm="http://www.corel.com/coreldraw/odm/2003">
 <defs>
  <style type="text/css">
   <![CDATA[
    .fil0 {fill:black}
    .fil1 {fill:white;fill-rule:nonzero}
   ]]>
  </style>
 </defs>
 <g id="Layer_x0020_1">
  <metadata id="CorelCorpID_0Corel-Layer"/>
  <g id="_2706000034256">
   <path class="fil0" d="M201.96 40.93c15.88,2.63 12.94,29.4 -4.99,26.2 -1.67,0.58 -3.33,0.75 -5.24,0.78 -2.41,0.06 -4.81,-0.44 -7,-1.41 -1.14,0.44 -2.37,0.72 -3.63,0.81 -1.65,0.12 -3.27,-0.01 -4.8,-0.4 -3.13,1.06 -6.51,1.32 -9.79,0.66 -1.61,-0.32 -2.97,-0.66 -4.35,-1.28 -0.96,0.41 -1.97,0.71 -3.02,0.88 -3.09,0.5 -6.23,0.02 -8.96,-1.54 -2.65,1.54 -5.79,2.04 -8.83,1.57 -1.75,0.57 -3.35,0.7 -5.32,0.71 -2.46,0.03 -4.89,-0.53 -7.11,-1.57l-0.22 -0.11c-3.95,-1.96 -6.79,-5.6 -7.86,-9.86 -0.05,-0.19 -0.09,-0.38 -0.13,-0.57 -0.23,0.42 -0.46,0.84 -0.71,1.25 -3.07,5.28 -7.42,9.7 -12.62,12.9 -2.95,1.81 -6.12,3.26 -9.46,4.2 -8.1,2.47 -17.47,1.8 -25.18,-1.44 -6.64,-2.79 -12.4,-7.45 -16.5,-13.32 -2.42,5.72 -8.25,8.5 -14.27,7.51 -0.82,0.25 -1.67,0.43 -2.54,0.54 -4.18,0.54 -8.45,-0.2 -12.05,-2.41 -1.36,-0.8 -2.55,-1.76 -3.63,-2.84 -7.09,9.23 -23.76,5.08 -23.75,-8.09 0.01,-10.79 0,-21.59 0,-32.38 -0.08,-6.35 4.23,-12 10.74,-12.92 1.08,-0.15 2.05,-0.15 2.86,-0.14 1.5,-0.02 2.97,0.22 4.35,0.7 5.66,-1.94 12.22,0 15.41,5.24 2.29,-3.75 6.33,-5.9 10.69,-5.95 2.97,-0.03 5.65,0.67 8.07,2.44 1.82,1.33 3.2,3.11 4.07,5.11 0.94,-1.36 1.98,-2.66 3.1,-3.89 3.86,-4.43 9.85,-8.24 15.12,-10.14l0.26 -0.09c13.63,-4.56 29.13,-1.61 39.29,8.7 2.62,2.54 4.82,5.49 6.6,8.68 0.11,0.19 0.21,0.39 0.32,0.58 0.62,-1.78 1.61,-3.42 2.94,-4.79 1.49,-1.56 3.19,-2.82 5.16,-3.7 2.51,-1.11 5.12,-1.28 7.52,-0.71 2.13,-1.33 4.58,-1.93 7.2,-1.89 5.94,-0.1 11.04,4.05 12.36,9.62 1.91,0.49 3.73,1.29 5.38,2.38 4.52,-2.77 10.44,-3.58 15.61,-2.61 2.86,-5.43 10,-9.43 16.01,-7.81 4.46,1.2 7.87,5.26 8.22,11.58 4.94,4.76 5.25,13.68 0.68,18.82z"/>
   <path class="fil1" d="M86.13 11.44c4,-0.18 8.01,0.65 11.7,2.17 2.96,1.39 5.79,3.13 8.09,5.47 1.81,1.75 3.31,3.8 4.54,6 1.86,3.34 2.89,7.11 3.2,10.91 0.04,1.14 0.05,2.29 0.01,3.43 -0.17,2.42 -0.66,4.81 -1.44,7.11 -0.57,1.64 -1.34,3.2 -2.21,4.7 -1.15,1.96 -2.58,3.73 -4.16,5.36 -1.41,1.29 -2.9,2.52 -4.54,3.52 -2.06,1.29 -4.3,2.31 -6.65,2.95 -2.04,0.64 -4.17,0.87 -6.29,1.02 -3.8,0.1 -7.66,-0.51 -11.17,-2.02 -6.44,-2.66 -11.75,-7.98 -14.3,-14.47 -0.76,-1.9 -1.36,-3.87 -1.6,-5.91 -0.33,-2.04 -0.37,-4.12 -0.21,-6.18 0.47,-5.74 2.92,-11.29 6.83,-15.51 0.66,-0.79 1.45,-1.44 2.2,-2.14 2.42,-2.07 5.2,-3.73 8.2,-4.81 1.78,-0.6 3.6,-1.11 5.46,-1.37 0.78,-0.09 1.56,-0.15 2.34,-0.23zm-2.67 3.62c-0.83,0.35 -1.36,1.11 -2,1.72 -0.95,0.9 -1.86,1.85 -2.8,2.77 -0.49,0.49 -1.01,0.95 -1.38,1.53 -0.12,0.19 -0.16,0.42 -0.16,0.63 -0.06,0.87 0.96,1.49 1.74,1.25 0.84,-0.27 1.59,-0.76 2.43,-1.02 1.31,-0.51 2.69,-0.84 4.09,-0.99 0.52,-0.06 1.04,0.13 1.44,0.47 0.56,0.5 1.08,1.05 1.62,1.58 1.32,1.37 2.72,2.67 4.03,4.05 0.36,0.34 0.44,0.95 0.09,1.34 -0.63,0.74 -1.35,1.4 -2.04,2.09 -5.51,5.49 -11.01,11 -16.52,16.49 -0.52,0.54 -1.11,1.08 -1.86,1.25 -0.91,0.21 -1.84,-0.22 -2.45,-0.89 -0.58,-0.54 -1.07,-1.32 -1.93,-1.44 -0.86,0.01 -1.63,0.91 -1.36,1.78 0.28,0.68 0.89,1.15 1.39,1.67 2.95,2.96 5.9,5.9 8.85,8.85 0.33,0.29 0.72,0.59 1.18,0.55 0.54,0.06 0.99,-0.34 1.26,-0.77 0.28,-0.47 0.14,-1.09 -0.22,-1.49 -0.55,-0.61 -1.21,-1.14 -1.67,-1.83 -0.36,-0.57 -0.48,-1.3 -0.22,-1.93 0.28,-0.69 0.86,-1.2 1.37,-1.72 1.57,-1.57 3.15,-3.13 4.71,-4.71 4.46,-4.53 8.99,-9.02 13.49,-13.51 0.31,-0.36 0.81,-0.5 1.25,-0.32 0.24,0.14 0.44,0.33 0.64,0.53 1.53,1.53 3.06,3.07 4.61,4.6 0.4,0.44 0.9,0.83 1.1,1.42 0.17,1.03 -0.15,2.05 -0.37,3.04 -0.33,1.43 -0.95,2.75 -1.54,4.07 -0.44,0.86 0.3,2 1.26,1.93 0.72,-0.07 1.21,-0.66 1.7,-1.14 1.08,-1.09 2.18,-2.17 3.26,-3.26 0.6,-0.65 1.37,-1.2 1.69,-2.06 0.13,-0.6 -0.26,-1.14 -0.66,-1.54 -3.63,-3.61 -7.24,-7.26 -10.9,-10.84 -0.65,-0.65 -1.26,-1.36 -1.96,-1.98 -3.9,-3.89 -7.8,-7.79 -11.71,-11.68 -0.36,-0.39 -0.91,-0.63 -1.45,-0.49zm-71.11 5.18c0.47,-0.06 0.95,-0.03 1.42,-0.03 0.37,-0.01 0.78,0.17 0.94,0.53 0.09,0.25 0.14,0.51 0.14,0.77 -0.01,10.94 0,21.87 -0.01,32.81 0.02,0.51 -0.25,1.09 -0.81,1.17 -0.58,0.04 -1.18,0.07 -1.76,-0.02 -0.58,-0.15 -0.72,-0.84 -0.72,-1.36 0,-10.83 0,-21.67 0.01,-32.5 -0.02,-0.55 0.16,-1.27 0.79,-1.37zm9.22 0.09c0.44,-0.18 0.95,-0.14 1.41,-0.08 0.62,0.12 0.76,0.83 0.75,1.36 -0.02,1.59 0.07,3.18 -0.09,4.76 -0.18,1.41 -0.36,2.81 -0.54,4.22 -0.07,0.41 -0.17,0.87 -0.54,1.11 -0.22,0.02 -0.5,0.08 -0.66,-0.11 -0.33,-0.35 -0.32,-0.85 -0.39,-1.3 -0.12,-1.35 -0.34,-2.69 -0.45,-4.04 -0.04,-1.64 -0.03,-3.28 -0.02,-4.93 0,-0.38 0.12,-0.86 0.53,-0.99zm21.65 0.31c0.19,-0.34 0.61,-0.43 0.97,-0.43 0.37,-0.01 0.79,-0.04 1.1,0.21 0.32,0.21 0.41,0.62 0.4,0.98 0,5.8 0.01,11.59 0,17.39 0,5.21 0.03,10.42 0,15.63 0.01,0.38 -0.18,0.78 -0.52,0.97 -0.36,0.19 -0.79,0.12 -1.18,0.12 -0.39,-0.01 -0.76,-0.26 -0.86,-0.63 -0.18,-0.63 -0.04,-1.36 -0.54,-1.87 -0.63,-0.08 -1.01,0.5 -1.38,0.92 -0.81,1.02 -1.92,1.88 -3.25,2.05 -1.57,0.2 -3.26,0.03 -4.61,-0.85 -1.09,-0.61 -1.92,-1.56 -2.66,-2.54 -0.44,-0.63 -0.75,-1.34 -1.1,-2.02 -0.51,-0.98 -0.72,-2.08 -0.99,-3.15 -0.35,-1.22 -0.36,-2.49 -0.44,-3.75 -0.16,-0.94 0.05,-1.87 0.04,-2.81 0,-0.35 0.07,-0.68 0.09,-1.03 0.02,-0.97 0.31,-1.91 0.5,-2.86 0.22,-1.01 0.58,-1.99 1.06,-2.9 0.46,-1.11 1.23,-2.05 2.08,-2.88 0.66,-0.62 1.47,-1.05 2.29,-1.43 0.77,-0.29 1.6,-0.38 2.42,-0.51 1.48,-0.03 2.93,0.6 4.02,1.58 0.4,0.36 0.74,0.78 1.16,1.11 0.26,0.22 0.75,0.29 0.95,-0.03 0.29,-0.41 0.24,-0.93 0.25,-1.4 -0.01,-2.9 0.02,-5.79 0,-8.69 -0.01,-0.4 0.02,-0.82 0.2,-1.18zm-7.15 12.23c-0.52,0.12 -1.05,0.26 -1.53,0.51 -0.59,0.31 -1.06,0.8 -1.53,1.27 -0.78,0.78 -1.12,1.86 -1.51,2.86 -0.46,1.17 -0.49,2.44 -0.62,3.67 -0.15,1.09 -0.12,2.2 0.03,3.29 0.16,1.02 0.18,2.08 0.53,3.06 0.35,0.86 0.68,1.73 1.17,2.52 0.54,0.73 1.21,1.37 1.96,1.86 1.19,0.66 2.66,0.85 3.94,0.36 0.95,-0.29 1.7,-0.98 2.37,-1.68 0.49,-0.52 0.77,-1.2 1.07,-1.84 0.31,-0.71 0.58,-1.45 0.69,-2.23 0.13,-1.27 0.34,-2.53 0.29,-3.81 0,-1.07 -0.18,-2.13 -0.26,-3.19 -0.12,-1.14 -0.54,-2.22 -1.01,-3.25 -0.22,-0.54 -0.52,-1.05 -0.94,-1.47 -0.53,-0.53 -1.05,-1.11 -1.75,-1.43 -0.9,-0.41 -1.91,-0.67 -2.9,-0.5zm106.42 -12.1c0.35,-0.37 0.91,-0.25 1.36,-0.26 0.52,-0.04 1,0.4 0.99,0.93 0.02,2.51 0,5.01 0.01,7.52 0.01,0.79 -0.04,1.59 0.08,2.38 0,0.34 0.21,0.62 0.41,0.88 0.18,0 0.36,0.01 0.55,-0.02 0.43,-0.17 0.73,-0.55 1.06,-0.86 0.84,-0.87 1.96,-1.43 3.12,-1.7 2.14,-0.38 4.57,0.19 6.05,1.85 1.3,1.45 1.72,3.45 1.89,5.33 0.12,0.72 0.05,1.45 0.15,2.17 0.02,5.04 0,10.08 0.01,15.12 0.01,0.36 0,0.73 -0.12,1.08 -0.15,0.29 -0.42,0.53 -0.74,0.57 -0.47,0.08 -0.98,0.08 -1.4,-0.17 -0.39,-0.25 -0.42,-0.75 -0.42,-1.17 0,-4.1 0,-8.21 0,-12.32 -0.02,-1.07 0.05,-2.14 -0.09,-3.21 -0.07,-0.85 -0.15,-1.72 -0.43,-2.54 -0.3,-0.9 -0.76,-1.79 -1.54,-2.38 -0.78,-0.67 -1.84,-0.9 -2.85,-0.91 -1.87,0.01 -3.6,1.17 -4.53,2.76 -0.57,0.97 -0.82,2.09 -1.01,3.18 -0.15,0.89 -0.08,1.79 -0.19,2.68 -0.01,4.32 0.01,8.64 -0.01,12.95 0.03,0.42 -0.14,0.86 -0.53,1.05 -0.5,0.19 -1.06,0.16 -1.56,0.02 -0.42,-0.15 -0.6,-0.66 -0.6,-1.07 -0.01,-10.87 0,-21.74 0,-32.6 -0.01,-0.44 0,-0.94 0.34,-1.26zm-8.82 1.34c0.31,-0.14 0.54,0.19 0.59,0.46 0.16,0.98 0.07,1.98 0.1,2.98 0,1.03 -0.01,2.07 0,3.1 -0.01,0.54 0.27,1.12 0.8,1.33 0.76,0.36 1.65,0 2.43,0.28 0.48,0.17 0.58,0.74 0.6,1.18 -0.01,0.59 0.11,1.25 -0.24,1.76 -0.34,0.45 -0.96,0.37 -1.45,0.37 -0.61,-0.02 -1.29,0.02 -1.76,0.46 -0.28,0.34 -0.39,0.8 -0.38,1.25 -0.01,4.34 0,8.69 0,13.03 0,1 -0.03,2 0.24,2.97 0.26,0.82 1.03,1.48 1.9,1.55 0.57,0.11 1.31,-0.04 1.68,0.52 0.33,0.64 0.36,1.4 0.35,2.11 0.01,0.32 -0.27,0.55 -0.54,0.67 -0.66,0.29 -1.4,0.22 -2.11,0.23 -0.71,0.01 -1.41,-0.18 -2.06,-0.49 -0.9,-0.44 -1.53,-1.34 -1.77,-2.31 -0.35,-1.37 -0.31,-2.79 -0.37,-4.19 -0.03,-4.66 0,-9.33 -0.01,-13.99 -0.05,-0.48 -0.08,-1 -0.44,-1.36 -0.43,-0.44 -1.1,-0.39 -1.65,-0.5 -0.47,-0.09 -0.7,-0.6 -0.7,-1.04 0,-0.45 -0.01,-0.9 0,-1.35 -0.01,-0.49 0.43,-0.94 0.92,-0.97 0.5,-0.03 1.08,-0.05 1.44,-0.46 0.38,-0.34 0.37,-0.89 0.42,-1.36 0.01,-1.29 -0.01,-2.58 0.02,-3.87 0,-0.45 0.15,-0.89 0.46,-1.21 0.44,-0.46 0.94,-0.89 1.53,-1.15zm54.59 0.54c0.35,-0.25 0.7,-0.58 1.16,-0.57 0.16,0.23 0.34,0.47 0.33,0.76 0.04,1.84 0,3.67 0.01,5.5 0.01,0.54 0.1,1.19 0.57,1.52 0.74,0.45 1.62,0.21 2.43,0.32 0.46,0.07 0.81,0.5 0.82,0.96 0.02,0.51 0.02,1.03 0,1.54 -0.04,0.43 -0.38,0.82 -0.81,0.87 -0.8,0.08 -1.68,-0.11 -2.4,0.32 -0.51,0.36 -0.62,1.03 -0.62,1.61 0.02,4.55 0.01,9.11 0.02,13.66 0.07,0.73 0.02,1.48 0.25,2.18 0.17,0.55 0.58,1 1.09,1.27 0.58,0.28 1.23,0.28 1.86,0.35 0.28,0.07 0.56,0.25 0.69,0.52 0.19,0.45 0.21,0.95 0.3,1.42 0.07,0.43 -0.03,0.95 -0.44,1.18 -0.63,0.35 -1.37,0.28 -2.06,0.3 -0.86,0.02 -1.72,-0.21 -2.46,-0.64 -0.69,-0.46 -1.22,-1.16 -1.45,-1.96 -0.59,-1.68 -0.34,-3.49 -0.43,-5.24 -0.07,-0.72 -0.03,-1.45 -0.03,-2.17 0.13,-1.35 -0.04,-2.69 -0.01,-4.04 0.01,-1.17 -0.01,-2.35 0,-3.52 0.07,-1.34 0.11,-2.69 -0.04,-4.03 -0.11,-0.41 -0.33,-0.87 -0.77,-1 -0.52,-0.25 -1.17,-0.08 -1.64,-0.45 -0.39,-0.37 -0.27,-0.96 -0.29,-1.45 0.02,-0.5 -0.1,-1.13 0.34,-1.49 0.58,-0.36 1.38,-0.11 1.92,-0.58 0.46,-0.37 0.48,-1.01 0.53,-1.55 0.02,-1.33 -0.02,-2.66 0.02,-3.98 0.02,-0.71 0.6,-1.2 1.11,-1.61zm-16.82 6.93c2.19,-0.2 4.62,-0.02 6.45,1.36 1.27,0.96 1.92,2.52 2.19,4.05 0.13,1.09 0.18,2.19 0.17,3.29 0.1,1.24 0.04,2.48 0.06,3.72 -0.01,1.59 0.01,3.18 0.04,4.76 0.19,2.28 -0.1,4.6 0.43,6.85 0.11,0.54 0.36,1.07 0.27,1.64 -0.13,0.32 -0.45,0.51 -0.78,0.54 -0.57,0.04 -1.25,0.04 -1.67,-0.42 -0.53,-0.52 -0.54,-1.34 -0.97,-1.93 -0.27,-0.4 -0.89,-0.42 -1.24,-0.12 -0.64,0.5 -1.13,1.17 -1.82,1.6 -1.64,1.21 -3.79,1.72 -5.79,1.32 -0.75,-0.16 -1.53,-0.25 -2.19,-0.66 -0.74,-0.44 -1.44,-0.97 -1.91,-1.7 -0.53,-0.83 -1.01,-1.72 -1.15,-2.7 -0.14,-0.92 -0.34,-1.86 -0.2,-2.79 0.15,-2.11 1.17,-4.28 3.03,-5.4 0.73,-0.45 1.48,-0.91 2.33,-1.12 1.32,-0.3 2.65,-0.56 3.98,-0.83 0.95,-0.15 1.89,-0.31 2.8,-0.62 0.68,-0.22 1.48,-0.41 1.87,-1.06 0.28,-0.41 0.22,-0.92 0.22,-1.39 0,-1 -0.22,-2.01 -0.74,-2.86 -0.6,-0.9 -1.55,-1.56 -2.6,-1.82 -1.06,-0.25 -2.18,-0.32 -3.26,-0.15 -1.06,0.12 -2.1,0.59 -2.83,1.37 -0.57,0.63 -0.94,1.4 -1.24,2.18 -0.16,0.41 -0.51,0.86 -1,0.82 -0.55,0.02 -1.14,-0.08 -1.58,-0.45 -0.32,-0.3 -0.26,-0.78 -0.15,-1.17 0.47,-1.78 1.28,-3.58 2.79,-4.72 0.91,-0.72 2.02,-1.1 3.12,-1.39 0.44,-0.12 0.9,-0.15 1.37,-0.2zm4.54 14.17c-1.09,0.39 -2.22,0.6 -3.35,0.81 -1.08,0.18 -2.14,0.44 -3.21,0.69 -1.03,0.26 -2.04,0.75 -2.69,1.61 -1.06,1.48 -0.88,3.75 0.53,4.94 0.94,0.87 2.26,1.1 3.5,1.09 0.9,-0.06 1.82,-0.15 2.64,-0.57 1.8,-0.76 3.29,-2.34 3.82,-4.24 0.3,-0.97 0.32,-1.98 0.39,-2.98 -0.04,-0.41 -0.08,-0.87 -0.4,-1.17 -0.32,-0.33 -0.83,-0.26 -1.23,-0.18zm22.87 8.58c0.56,-0.05 1.23,-0.17 1.7,0.24 0.39,0.37 0.27,0.95 0.29,1.43 -0.02,0.53 0.11,1.2 -0.37,1.57 -0.47,0.3 -1.08,0.27 -1.6,0.16 -0.46,-0.08 -0.73,-0.56 -0.74,-1 0,-0.48 -0.01,-0.97 0.01,-1.46 0.02,-0.42 0.3,-0.82 0.71,-0.94z"/>
  </g>
 </g>
</svg>
