<?xml version="1.0" encoding="UTF-8"?>
<!DOCTYPE svg PUBLIC "-//W3C//DTD SVG 1.1//EN" "http://www.w3.org/Graphics/SVG/1.1/DTD/svg11.dtd">
<!-- Creator: CorelDRAW 2020 (64-Bit) -->
<svg xmlns="http://www.w3.org/2000/svg" xml:space="preserve" width="237px" height="264px" version="1.1" style="shape-rendering:geometricPrecision; text-rendering:geometricPrecision; image-rendering:optimizeQuality; fill-rule:evenodd; clip-rule:evenodd"
viewBox="0 0 28.49 31.7"
 xmlns:xlink="http://www.w3.org/1999/xlink"
 xmlns:xodm="http://www.corel.com/coreldraw/odm/2003">
 <defs>
  <style type="text/css">
   <![CDATA[
    .fil0 {fill:black;fill-rule:nonzero}
   ]]>
  </style>
 </defs>
 <g id="Layer_x0020_1">
  <metadata id="CorelCorpID_0Corel-Layer"/>
  <path class="fil0" d="M5.67 0.86c3.89,-1.17 8.21,-1.23 11.99,0.35 2.88,1.19 5.36,3.41 6.71,6.23 0.49,1 0.83,2.07 1.05,3.16 0.37,-0.71 0.47,-1.54 0.33,-2.32 -0.25,-1.54 -1.11,-2.89 -1.53,-4.38 1.2,1.46 2.3,3.02 3.05,4.76 0.81,1.88 1.14,3.99 0.81,6.01 -0.23,1.46 -0.93,2.81 -1.84,3.96 -1.31,1.69 -3.03,3.02 -4.17,4.84 2.42,-0.36 4.56,-1.7 6.42,-3.23 -0.5,1.73 -1.1,3.55 -2.51,4.77 -1.33,1.24 -3.22,1.53 -4.96,1.75 -1.94,0.26 -4.04,0.38 -5.69,1.55 0.31,0.53 0.9,0.8 1.48,0.89 1.46,0.23 2.93,-0.06 4.39,0.11 -1.43,0.96 -3.12,1.47 -4.81,1.76 -1.77,0.31 -3.57,0.39 -5.36,0.51 -0.91,0.06 -1.82,0.17 -2.73,0.1 -1.94,-0.1 -3.89,-0.78 -5.39,-2.05 -1.54,-1.29 -2.54,-3.18 -2.81,-5.17 -0.37,-2.57 0.27,-5.37 2.07,-7.3 1.54,-1.67 3.89,-2.45 6.13,-2.28 0.83,0.08 1.59,0.45 2.4,0.61 1.19,0.24 2.43,0.03 3.53,-0.45 1.44,-0.62 2.64,-1.66 4.04,-2.38 0.05,1.82 -0.41,3.68 -1.45,5.18 -0.45,0.63 -0.99,1.2 -1.66,1.6 -0.6,0.36 -1.27,0.67 -1.71,1.24 -0.4,0.49 -0.41,1.28 0.03,1.74 0.47,0.5 1.2,0.64 1.86,0.62 0.7,-0.01 1.34,-0.38 1.86,-0.83 0.66,-0.59 1.19,-1.35 1.44,-2.2 0.31,-1.26 0.25,-2.57 0.29,-3.85 0.03,-0.75 0.11,-1.54 0.55,-2.17 0.31,-0.44 0.79,-0.71 1.28,-0.9 -0.13,1.07 -0.61,2.08 -0.59,3.17 0,0.45 0.17,0.87 0.42,1.24 0.56,-0.34 0.99,-0.86 1.25,-1.45 0.45,-0.98 0.64,-2.04 0.93,-3.07 -1.51,-0.38 -3.05,-0.95 -4.15,-2.1 -1.02,-1.08 -1.43,-2.61 -1.38,-4.06 0.92,0.61 1.05,2 2.18,2.36 0.79,-1.58 0.29,-3.65 -1.09,-4.74 -0.53,-0.42 -1.26,-0.64 -1.93,-0.43 -1.28,0.4 -2.38,1.41 -3.79,1.38 -1.09,0.04 -2.07,-0.51 -2.98,-1.03 1.56,-0.15 3.15,-0.41 4.54,-1.18 -0.54,-0.85 -1.46,-1.35 -2.41,-1.59 -1.99,-0.53 -4.07,-0.43 -6.09,-0.73zm-1.68 1.32c0.75,-0.38 1.66,-0.54 2.47,-0.26 0.98,0.38 1.47,1.69 0.89,2.59 -0.8,0.06 -1.59,0.3 -2.23,0.79 -0.74,0.55 -1.21,1.36 -1.62,2.17 -0.33,-0.55 -0.36,-1.19 -0.43,-1.8 -0.71,0.05 -1.28,0.5 -1.79,0.95 -0.29,0.25 -0.6,0.48 -0.99,0.54 0.17,-0.99 0.66,-1.9 1.23,-2.72 0.65,-0.91 1.46,-1.75 2.47,-2.26zm4.91 4.2c0.38,-0.09 0.79,-0.11 1.16,0.04 0.69,0.28 1.21,0.85 1.9,1.14 0.53,-0.78 1.49,-1.25 2.43,-1.21 0.41,0.02 0.85,0.19 1.08,0.54 0.28,0.4 0.27,0.93 0.18,1.39 -0.12,0.56 -0.57,0.98 -1.04,1.25 -0.78,0.43 -1.81,0.57 -2.6,0.08 -1.31,-0.8 -1.77,-2.46 -3.11,-3.23z"/>
 </g>
</svg>
