<?xml version="1.0" encoding="UTF-8"?>
<!DOCTYPE svg PUBLIC "-//W3C//DTD SVG 1.1//EN" "http://www.w3.org/Graphics/SVG/1.1/DTD/svg11.dtd">
<!-- Creator: CorelDRAW 2020 (64-Bit) -->
<svg xmlns="http://www.w3.org/2000/svg" xml:space="preserve" width="718px" height="207px" version="1.1" style="shape-rendering:geometricPrecision; text-rendering:geometricPrecision; image-rendering:optimizeQuality; fill-rule:evenodd; clip-rule:evenodd"
viewBox="0 0 150.99 43.49"
 xmlns:xlink="http://www.w3.org/1999/xlink"
 xmlns:xodm="http://www.corel.com/coreldraw/odm/2003">
 <defs>
  <style type="text/css">
   <![CDATA[
    .fil0 {fill:black}
   ]]>
  </style>
 </defs>
 <g id="Layer_x0020_1">
  <metadata id="CorelCorpID_0Corel-Layer"/>
  <path class="fil0" d="M69.44 29.81l0.76 0 0.04 0.28 4.27 0 0.03 -0.28 0.76 0 0.16 2.36 -0.73 0c-0.05,-0.35 -0.16,-0.61 -0.34,-0.79 -0.18,-0.17 -0.42,-0.25 -0.74,-0.25l-0.14 0 0 5.82 0.66 0 0 0.86 -3.6 0 0 -0.86 0.66 0 0 -5.82 -0.14 0c-0.31,0 -0.56,0.08 -0.73,0.25 -0.18,0.17 -0.29,0.43 -0.34,0.79l-0.74 0 0.16 -2.36zm63.97 -17.72l0.01 -0.17 0 -0.16 0.01 -0.16 0.02 -0.15 0.02 -0.14 0.03 -0.14 0.03 -0.12 0.03 -0.12 0 0 0.09 -0.19 0.16 -0.3 0.15 -0.27 0.14 -0.24 0.14 -0.22 0.13 -0.19 0.12 -0.17 0.12 -0.14 0.11 -0.13 0.1 -0.1 0.1 -0.09 0.09 -0.07 0.09 -0.07 0.09 -0.06 0.1 -0.05 0.1 -0.04 0.11 -0.05 0.13 -0.04 0.14 -0.04 0.17 -0.03 0.18 -0.04 0.21 -0.02 0.23 -0.02 0.25 -0.02 0.27 -0.01 0.3 0 0.32 0.01 0.35 0.01 0.37 0.02 0.39 0.02 0.05 0.01 0.02 0.12 0.01 0.18 0 0.22 0 0.25 -0.02 0.27 -0.03 0.3 -0.15 1.31 0.95 1.4 0.96 0.57 0.84 0.18 0.73 -0.01 0.69 -0.15 0.7 -0.31 0.7 -0.55 0.78 -1.13 0.02 -1.13 0.02 -0.28 0.02 -0.25 0.04 -0.23 0.05 -0.2 0.05 -0.18 0.06 -0.16 0.07 -0.15 0.06 -0.13 0.08 -0.11 0.08 -0.12 0.09 -0.1 0.11 -0.1 0.12 -0.11 0.14 -0.1 1.47 -0.91 -0.05 -1.84 -0.05 -0.47 -0.1 -0.45 -0.13 -0.44 -0.16 -0.4 -0.19 -0.37 -0.21 -0.35 -0.24 -0.32 -0.24 -0.28 -0.26 -0.26 -0.27 -0.23 -0.28 -0.21 -0.29 -0.19 -0.29 -0.16 -0.32 -0.14 -1.99 -0.68 -1.19 1.79 -0.08 0.11 -0.06 0.07 0 0.01 -0.03 -0.01 -0.08 -0.01 -0.2 -0.08 -0.39 -0.16 -0.4 -0.15 -0.41 -0.15 -0.41 -0.14 -0.42 -0.14 -0.43 -0.13 -0.43 -0.12 -0.44 -0.11 -0.45 -0.1 -0.45 -0.09 -0.46 -0.08 -0.47 -0.06 -0.47 -0.05 -0.48 -0.03 -0.48 -0.01 -0.49 0.01 -0.5 0.02 -0.5 0.06 -0.5 0.07 -0.51 0.1 -0.51 0.12 -0.51 0.15 -0.51 0.17 -0.51 0.2 -0.5 0.23 -0.51 0.26 -0.5 0.28 -0.5 0.32 -0.49 0.34 -0.49 0.37 -0.5 0.41 -0.52 0.48 -0.49 0.53 -0.44 0.57 -0.4 0.6 -0.36 0.62 -0.31 0.64 -0.28 0.65 -0.23 0.67 -0.2 0.69 -0.16 0.69 -0.13 0.7 -0.1 0.7 -0.06 0.71 -0.02 0.72 0 0.71 0.04 0.72 0.06 0.71 0.1 0.7 0.13 0.7 0.16 0.7 0.19 0.68 0.23 0.68 0.26 0.66 0.29 0.64 0.33 0.63 0.37 0.61 0.4 0.58 0.44 0.56 0.48 0.53 0.52 0.5 0.56 0.46 0.68 0.46 0.58 0.28 0.42 0.19 0.41 0.18 0.42 0.18 0.42 0.18 0.41 0.16 0.42 0.16 0.42 0.15 0.42 0.14 0.42 0.13 0.43 0.13 0.43 0.11 0.42 0.1 0.43 0.09 0.44 0.07 0.43 0.06 0.46 0.06 0.46 0.03 0.47 0.03 0.46 0.01 0.46 0 0.46 -0.02 0.46 -0.03 0.45 -0.04 0.46 -0.06 0.46 -0.07 0.46 -0.08 0.45 -0.09 0.46 -0.11 0.46 -0.12 0.45 -0.13 0.46 -0.14 0.46 -0.15 0.45 -0.17 0.46 -0.17 0.47 -0.19 0.46 -0.19 0.46 -0.21 0.47 -0.22 0.47 -0.22 0.47 -0.24 0.48 -0.25 0.48 -0.26 0.48 -0.26 0.49 -0.28 0.49 -0.28 0.5 -0.3 1.18 -0.71 0.51 -1.16 0.22 -0.89 -0.29 -1.67 -1.49 -1.06 -1.06 -0.05 -0.44 0.08 -0.14 0.04 -0.27 0.05 -0.26 0.1 -0.08 0.03 -0.08 0.04 -0.08 0.03 -0.09 0.03 -0.11 0.04 -0.43 0.11 -0.57 0.15 -0.58 0.13 -0.58 0.13 -0.58 0.13 -0.59 0.11 -0.58 0.1 -0.57 0.09 -0.58 0.07 -0.56 0.06 -0.55 0.04 -0.54 0.03 -0.52 0 -0.5 -0.01 -0.49 -0.04 -0.46 -0.06 -0.44 -0.07 -0.41 -0.1 -0.39 -0.12 -0.36 -0.14 -0.33 -0.15 -0.3 -0.18 -0.29 -0.19 -0.26 -0.22 -0.25 -0.24 -0.23 -0.27 -0.22 -0.32 -0.21 -0.35 -0.19 -0.41 -0.18 -0.46 -0.16 -0.52 -0.14 -0.62 -0.04 -0.18 -0.03 -0.2 -0.02 -0.19 -0.03 -0.2 -0.01 -0.19 -0.01 -0.18 -0.01 -0.18zm7.34 -1.54l0.28 0.41 0.31 0.18 0.3 0.07 0.3 0 0.3 -0.07 0.29 -0.13 0.27 -0.21 0.26 -0.38 0.01 -0.59 0.03 -0.36 0.04 -0.36 0.05 -0.33 0.07 -0.32 0.09 -0.31 0.11 -0.28 0.12 -0.27 0.14 -0.26 0.15 -0.24 0.18 -0.24 0.19 -0.22 0.21 -0.2 0.24 -0.2 0.26 -0.19 0.56 -0.35 -0.02 -0.61 -0.03 -0.29 -0.06 -0.28 -0.08 -0.26 -0.1 -0.24 -0.12 -0.23 -0.12 -0.21 -0.14 -0.19 -0.15 -0.17 -0.16 -0.16 -0.16 -0.14 -0.16 -0.12 -0.16 -0.1 -0.17 -0.09 -0.16 -0.07 -0.46 -0.16 -0.37 0.55 -0.15 0.2 -0.14 0.16 -0.73 0.79 -1.07 -0.14 -0.34 -0.06 -0.38 -0.15 -0.37 -0.15 -0.37 -0.14 -0.38 -0.14 -0.38 -0.13 -0.38 -0.13 -0.38 -0.12 -0.39 -0.1 -0.39 -0.1 -0.39 -0.09 -0.4 -0.08 -0.39 -0.07 -0.4 -0.06 -0.44 -0.04 -0.4 -0.02 -0.41 -0.01 -0.41 0 -0.41 0.03 -0.42 0.04 -0.41 0.06 -0.42 0.08 -0.42 0.1 -0.42 0.12 -0.42 0.14 -0.42 0.17 -0.42 0.19 -0.42 0.22 -0.43 0.24 -0.42 0.27 -0.43 0.29 -0.42 0.32 -0.43 0.35 -0.41 0.38 -0.38 0.42 -0.36 0.45 -0.32 0.48 -0.29 0.5 -0.25 0.53 -0.23 0.55 -0.2 0.56 -0.17 0.58 -0.14 0.59 -0.11 0.61 -0.08 0.61 -0.05 0.62 -0.03 0.62 0.01 0.63 0.03 0.62 0.06 0.63 0.08 0.62 0.12 0.61 0.14 0.6 0.16 0.6 0.2 0.58 0.22 0.56 0.25 0.55 0.27 0.53 0.31 0.5 0.33 0.49 0.36 0.45 0.38 0.43 0.41 0.39 0.44 0.36 0.48 0.33 0.42 0.19 0.39 0.18 0.4 0.18 0.39 0.17 0.39 0.16 0.38 0.15 0.39 0.15 0.39 0.14 0.37 0.12 0.38 0.12 0.38 0.11 0.38 0.1 0.37 0.09 0.38 0.08 0.37 0.07 0.37 0.05 0.41 0.05 0.4 0.03 0.4 0.02 0.4 0.01 0.4 0 0.41 -0.01 0.4 -0.03 0.4 -0.03 0.41 -0.05 0.4 -0.06 0.41 -0.07 0.4 -0.09 0.41 -0.09 0.41 -0.11 0.41 -0.12 0.42 -0.12 0.42 -0.14 0.42 -0.15 0.42 -0.17 0.43 -0.16 0.43 -0.19 0.44 -0.19 0.43 -0.21 0.45 -0.21 0.44 -0.22 0.46 -0.24 0.46 -0.25 0.47 -0.25 0.47 -0.27 0.47 -0.27 0.49 -0.29 0.63 -0.39 0.19 -0.42 0.08 -0.32 -0.08 -0.45 -0.35 -0.25 -0.25 -0.01 -0.16 0.02 -0.11 0.03 -0.14 0.03 -0.66 0.26 -0.56 0.14 -0.6 0.15 -0.6 0.14 -0.6 0.14 -0.62 0.13 -0.61 0.12 -0.63 0.1 -0.61 0.1 -0.6 0.08 -0.62 0.06 -0.61 0.05 -0.61 0.02 -0.59 0.01 -0.59 -0.02 -0.57 -0.04 -0.57 -0.07 -0.54 -0.1 -0.53 -0.12 -0.51 -0.16 -0.49 -0.19 -0.48 -0.22 -0.44 -0.25 -0.42 -0.29 -0.4 -0.33 -0.37 -0.37 -0.35 -0.4 -0.32 -0.46 -0.29 -0.5 -0.27 -0.55 -0.23 -0.6 -0.2 -0.66 -0.17 -0.72 -0.04 -0.24 -0.04 -0.25 -0.04 -0.25 -0.02 -0.25 -0.02 -0.24 -0.02 -0.26 0 -0.22 0 -0.23 0.01 -0.24 0.02 -0.22 0.02 -0.22 0.03 -0.23 0.04 -0.21 0.05 -0.21 0.1 -0.34 0.19 -0.38 0.16 -0.32 0.18 -0.32 0.17 -0.29 0.17 -0.28 0.18 -0.25 0.17 -0.23 0.17 -0.22 0.18 -0.2 0.17 -0.17 0.18 -0.16 0.19 -0.16 0.19 -0.13 0.19 -0.12 0.21 -0.11 0.21 -0.1 0.22 -0.09 0.23 -0.07 0.25 -0.07 0.25 -0.05 0.27 -0.05 0.28 -0.04 0.3 -0.02 0.31 -0.02 0.32 -0.01 0.37 0 0.36 0 0.38 0.01 0.39 0.02 0.46 0.03 1.62 0.12 0.23 1.79 0.02 0.29 0.01 0.31 -0.01 0.33 -0.02 0.34 -0.03 0.36 -0.07 0.6zm-29.87 14.85l0.24 0.17 0.27 0.1 0.43 0.07 0.43 -0.34 0.25 -0.2 0.24 -0.18 0.27 -0.19 0.24 -0.17 0.28 -0.18 0.26 -0.15 0.24 -0.14 0.26 -0.15 0.26 -0.13 0.27 -0.13 0.26 -0.12 0.27 -0.11 0.27 -0.1 0.28 -0.1 0.27 -0.08 0.27 -0.07 0.28 -0.07 0.28 -0.06 0.28 -0.04 0.29 -0.04 0.29 -0.03 0.28 -0.02 0.3 -0.01 0.29 0.01 0.3 0.01 0.29 0.02 0.31 0.04 0.3 0.04 0.31 0.06 0.31 0.07 0.45 0.11 0.38 -0.14 0.26 -0.2 0.18 -0.27 0.09 -0.31 0.01 -0.3 -0.03 -0.26 -0.06 -0.24 -0.13 -0.45 -0.48 -0.25 -0.24 -0.15 -0.21 -0.15 -0.19 -0.16 -0.17 -0.17 -0.14 -0.16 -0.13 -0.18 -0.1 -0.17 -0.09 -0.18 -0.08 -0.19 -0.08 -0.2 -0.05 -0.2 -0.06 -0.21 -0.04 -0.22 -0.04 -0.22 -0.03 -0.26 -0.08 -0.37 -0.05 -0.29 -0.06 -0.35 -0.04 -0.31 -0.03 -0.31 -0.03 -0.34 -0.03 -0.33 -0.02 -0.32 -0.01 -0.33 -0.01 -0.33 0 -0.33 0 -0.34 0.01 -0.33 0 -0.34 0.02 -0.33 0.01 -0.34 0.02 -0.33 0.02 -0.34 0.03 -0.35 0.02 -0.32 0.03 -0.36 0.11 -1.36 0.03 -0.34 0.06 -0.68 0.05 -0.68 0.02 -0.35 0.02 -0.38 -0.02 -0.32 0.01 -0.06 0 -0.05 0.05 -0.35 0.09 -0.24 0.04 -0.11 0.09 -0.18 0.09 -0.15 0.11 -0.16 0.12 -0.17 0.15 -0.16 0.15 -0.16 0.16 -0.16 0.18 -0.16 0.18 -0.16 0.56 -0.45 -0.29 -0.6 -0.06 -0.13 -0.1 -0.19 -0.13 -0.2 -0.18 -0.19 -0.23 -0.17 -0.28 -0.11 -0.39 -0.08 -0.38 0.13 -0.26 0.08 -0.28 0.07 -0.25 0.07 -0.28 0.06 -0.24 0.05 -0.29 0.06 -0.26 0.04 -0.27 0.04 -0.26 0.03 -0.26 0.03 -0.27 0.02 -0.25 0.02 -0.26 0.01 -0.25 0.01 -0.28 0 -0.26 0 -0.26 -0.01 -0.26 -0.01 -0.26 -0.01 -0.26 -0.02 -0.26 -0.03 -0.26 -0.03 -0.27 -0.03 -0.25 -0.04 -0.27 -0.04 -0.25 -0.04 -0.27 -0.05 -0.25 -0.05 -0.26 -0.05 -0.27 -0.06 -0.37 -0.08 -0.33 0.11 -0.23 0.1 -0.23 0.15 -0.2 0.2 -0.18 0.27 -0.11 0.32 -0.03 0.34 0.05 0.64 0.5 0.26 0.24 0.12 0.22 0.11 0.2 0.12 0.21 0.12 0.2 0.13 0.2 0.14 0.19 0.14 0.18 0.16 0.17 0.15 0.17 0.18 0.15 0.17 0.28 0.38 0.2 0.54 0.04 0.65 0.05 0.51 0.1 1.06 0.11 1.14 0.06 0.58 0.05 0.6 0.05 0.6 0.04 0.61 0.03 0.6 0.03 0.61 0.02 0.61 0 0.58 -0.01 0.6 -0.03 0.59 -0.04 0.58 -0.06 0.56 -0.08 0.55 -0.1 0.54 -0.12 0.51 -0.15 0.49 -0.17 0.47 -0.2 0.45 -0.22 0.42 -0.25 0.38 -0.28 0.37 -0.31 0.33 -0.35 0.3 -0.38 0.27 -0.76 0.43 0.08 0.72 0.08 0.32 0.11 0.29 0.15 0.27 0.2 0.23zm-4.1 -10.75l0.93 0.63 -5.39 -0.26 -4.07 0.28 -0.11 0.13 -0.11 0.2 -0.09 0.21 -0.07 0.22 -0.97 4.59 -2.08 -0.41 -0.19 -0.04 -0.23 -0.06 -0.18 -0.05 -0.22 -0.07 -0.2 -0.07 -0.19 -0.07 -0.19 -0.08 -0.19 -0.09 -0.18 -0.09 -0.18 -0.1 -0.17 -0.1 -0.17 -0.11 -0.17 -0.12 -0.15 -0.12 -0.15 -0.12 -0.15 -0.14 -0.14 -0.14 -0.22 -0.24 -0.2 -0.25 -0.18 -0.28 -0.18 -0.3 -0.16 -0.31 -0.15 -0.33 -0.13 -0.35 -0.12 -0.37 -0.1 -0.37 -0.09 -0.39 -0.07 -0.39 -0.06 -0.4 -0.04 -0.41 -0.02 -0.42 -0.01 -0.41 0.01 -0.44 0 -0.24 0.02 -0.23 0.02 -0.22 0.04 -0.24 0.04 -0.24 0.05 -0.24 0.06 -0.24 0.07 -0.24 0.07 -0.23 0.08 -0.24 0.09 -0.24 0.1 -0.24 0.1 -0.23 0.12 -0.23 0.11 -0.22 0.13 -0.23 0.13 -0.22 0.14 -0.21 0.14 -0.21 0.15 -0.21 0.16 -0.2 0.15 -0.19 0.17 -0.19 0.16 -0.18 0.17 -0.17 0.19 -0.17 0.18 -0.15 0.18 -0.15 0.19 -0.14 0.5 -0.34 0.68 -0.06 0.29 -0.02 0.32 -0.01 0.29 0 0.34 0 0.31 0.01 0.33 0.03 0.34 0.03 0.35 0.04 0.36 0.05 0.31 0.05 0.34 0.07 0.34 0.08 0.33 0.1 0.74 0.21 0.32 0.1 0.32 0.11 1.37 0.55 0.03 1.53 -0.03 0.49 -0.13 0.92 0.4 0.33 0.84 0.58 1.04 -0.73 0.11 -0.58 0.07 -0.32 0.08 -0.34 0.08 -0.33 0.08 -0.3 0.09 -0.32 0.11 -0.31 0.11 -0.31 0.13 -0.31 0.13 -0.3 0.15 -0.3 0.16 -0.3 0.19 -0.3 0.19 -0.29 0.22 -0.29 0.42 -0.51 -0.12 -0.59 -0.08 -0.31 -0.1 -0.31 -0.14 -0.31 -0.17 -0.29 -0.23 -0.27 -0.28 -0.22 -0.52 -0.27 -0.58 0.4 -0.18 0.12 -0.21 0.14 -0.18 0.11 -0.21 0.12 -0.21 0.12 -0.22 0.11 -0.23 0.1 -0.24 0.09 -0.24 0.08 -0.24 0.06 -0.25 0.04 -0.26 0.03 -0.26 0 -0.26 -0.02 -0.28 -0.05 -0.31 -0.08 -0.29 -0.08 -0.3 -0.09 -0.32 -0.11 -0.28 -0.1 -0.59 -0.22 -0.58 -0.22 -0.31 -0.11 -0.31 -0.1 -0.31 -0.1 -0.35 -0.1 -0.34 -0.08 -0.37 -0.07 -0.79 -0.02 -0.38 -0.01 -0.37 0 -0.38 0.01 -0.37 0 -0.36 0.02 -0.37 0.02 -0.36 0.02 -0.37 0.03 -0.34 0.04 -0.35 0.05 -0.36 0.06 -0.33 0.07 -0.38 0.09 -0.3 0.08 -0.38 0.11 -0.33 0.12 -0.32 0.13 -0.32 0.14 -0.33 0.16 -0.31 0.18 -0.31 0.19 -0.3 0.2 -0.3 0.23 -0.29 0.24 -0.29 0.26 -0.28 0.28 -0.27 0.3 -0.27 0.32 -0.26 0.34 -0.27 0.38 -0.13 0.25 -0.12 0.26 -0.11 0.25 -0.11 0.26 -0.11 0.25 -0.09 0.27 -0.09 0.26 -0.09 0.28 -0.08 0.26 -0.07 0.28 -0.07 0.28 -0.06 0.28 -0.05 0.28 -0.05 0.3 -0.04 0.28 -0.04 0.3 -0.03 0.3 -0.02 0.29 -0.01 0.31 -0.01 0.31 -0.01 0.3 0.01 0.32 0.01 0.31 0.02 0.32 0.02 0.32 0.03 0.33 0.04 0.33 0.04 0.32 0.05 0.34 0.06 0.34 0.06 0.34 0.09 0.39 0.2 0.57 0.76 1.86 -0.07 0.04 1.55 1.77 0.37 0.38 0.39 0.37 0.41 0.34 0.42 0.32 0.45 0.3 0.48 0.29 0.43 0.24 0.22 0.17 0.27 0.19 0.28 0.17 0.28 0.15 0.29 0.13 0.3 0.11 0.31 0.09 0.3 0.07 0.31 0.05 0.32 0.03 0.32 0.01 0.33 0 0.32 -0.03 0.34 -0.03 0.33 -0.05 0.39 -0.08 0.3 -0.15 0.25 -0.11 0.26 -0.11 0.27 -0.1 0.28 -0.09 0.29 -0.09 0.3 -0.08 0.3 -0.07 0.33 -0.07 0.31 -0.07 0.31 -0.05 0.32 -0.05 0.31 -0.05 0.32 -0.04 0.3 -0.03 0.3 -0.02 0.34 -0.02 0.31 0.01 0.29 0.03 0.28 0.05 0.26 0.07 0.24 0.09 0.25 0.11 0.23 0.14 0.23 0.14 0.23 0.18 0.22 0.19 0.22 0.2 0.23 0.23 0.23 0.25 0.25 0.27 0.29 0.34 0.29 0.16 0.25 0.08 0.24 0.04 0.23 0 0.23 -0.02 0.21 -0.05 0.2 -0.07 0.68 -0.25 -0.31 -0.91 -0.11 -0.35 -0.09 -0.33 -0.08 -0.32 -0.06 -0.32 -0.05 -0.3 -0.03 -0.29 -0.02 -0.29 -0.01 -0.28 0 -0.26 0.02 -0.26 0.03 -0.25 0.05 -0.24 0.05 -0.24 0.07 -0.23 0.08 -0.22 0.09 -0.21 0.1 -0.21 0.11 -0.21 0.13 -0.2 0.14 -0.19 0.15 -0.19 0.16 -0.18 0.17 -0.19 0.19 -0.17 0.2 -0.17 0.21 -0.17 0.22 -0.16 0.24 -0.16 0.25 -0.15 0.25 -0.14 0.51 -0.27 0.11 -0.61 0 -0.36 -0.08 -0.35 -0.16 -0.31 -0.21 -0.24 -0.25 -0.18 -0.26 -0.13 -0.35 -0.13 -0.12 0.02zm-42.25 -6.86l3.03 0.86 0.31 0.09 0.62 0.17 0.88 0.23 0.45 0.68 0.1 0.17 0.11 0.18 0.1 0.2 0.11 0.22 0.11 0.23 0.1 0.23 0.1 0.26 0.11 0.26 0.1 0.27 0.1 0.28 0.1 0.29 0.1 0.3 0.09 0.31 0.1 0.31 0.11 0.37 2.58 8.75 -1.51 -1.75 0.01 0.66 0 0.67 0.1 0.4 0.12 0.31 0.15 0.26 0.17 0.21 0.2 0.17 0.2 0.11 0.19 0.07 0.28 0.06 0.28 -0.09 0.33 -0.09 0.17 -0.05 0.17 -0.04 0.17 -0.04 0.17 -0.04 0.18 -0.04 0.18 -0.03 0.18 -0.03 0.17 -0.03 0.18 -0.02 0.21 -0.02 0.2 -0.01 0.18 -0.01 0.23 -0.01 0.2 0 0.24 0.01 0.21 0.01 0.23 0.01 0.27 0.02 0.25 0.03 0.26 0.04 0.27 0.04 0.28 0.05 0.28 0.05 0.29 0.07 0.3 0.07 0.32 0.08 0.34 0.09 0.33 0.1 0.38 0.11 0.27 0.04 0.26 -0.01 0.26 -0.07 0.26 -0.15 0.21 -0.26 0.12 -0.32 0.04 -0.34 -0.16 -2.61 -0.99 0.48 -1.25 -2.21 -0.36 -0.66 -0.33 -0.63 -0.3 -0.61 -0.28 -0.58 -0.25 -0.56 -0.23 -0.52 -0.21 -0.54 -0.18 -0.48 -0.18 -0.51 -0.14 -0.45 -0.14 -0.47 -0.12 -0.42 -0.11 -0.45 -0.1 -0.42 -0.08 -0.42 -0.08 -0.4 -0.07 -0.4 -0.07 -0.39 -0.06 -0.39 -0.06 -0.39 -0.17 -1.18 -0.06 -0.4 -0.06 -0.4 -0.07 -0.41 -0.09 -0.5 -0.27 -0.61 -0.29 -0.45 -0.31 -0.34 -0.33 -0.24 -0.34 -0.14 -0.32 -0.07 -0.29 -0.03 -0.3 -0.02 -0.44 0.04 -0.41 0.03 -0.41 0.03 -0.41 0.03 -0.4 0.02 -0.41 0.03 -0.41 0.01 -0.41 0.02 -0.41 0.01 -0.4 0.01 -0.41 0.01 -0.41 0 -0.4 0 -0.41 -0.01 -0.41 -0.02 -0.4 -0.01 -0.41 -0.03 -0.4 -0.03 -0.41 -0.03 -0.4 -0.04 -0.41 -0.05 -0.4 -0.05 -0.41 -0.06 -0.4 -0.07 -0.4 -0.08 -0.41 -0.08 -0.4 -0.09 -0.4 -0.1 -0.41 -0.11 -0.4 -0.11 -0.4 -0.13 -0.61 -0.2 -0.4 0.32 -0.2 0.19 -0.18 0.21 -0.17 0.25 -0.12 0.29 -0.06 0.32 0.01 0.35 0.14 0.48 0.36 0.26 0.25 0.17 0.23 0.16 0.26 0.15 0.25 0.16 0.26 0.14 0.26 0.15 0.27 0.14 0.26 0.13 0.28 0.13 1.98 0.93zm-0.35 2.24l-1.84 0.66 -0.22 0.14 -0.2 0.18 -0.19 0.23 -0.16 0.27 -0.15 0.31 -0.12 0.36 -0.1 0.37 -0.08 0.31 -0.09 0.29 -0.09 0.27 -0.11 0.28 -0.11 0.27 -0.13 0.27 -0.13 0.27 -0.15 0.28 -0.15 0.27 -0.15 0.26 -0.16 0.26 -0.16 0.25 -0.32 0.53 -0.16 0.25 -0.17 0.26 -0.16 0.26 -0.16 0.26 -0.15 0.27 -0.15 0.26 -0.15 0.27 -0.13 0.27 -0.14 0.31 -1.91 4.5 3.16 0.76 0.25 0 0.23 0 0.22 0 0.23 0 0.22 -0.01 0.46 -0.01 0.97 -0.02 0.52 -0.01 0.55 -0.01 0.27 0.01 0.4 -0.02 0.35 -0.04 0.31 -0.07 0.29 -0.1 0.26 -0.14 0.24 -0.16 0.21 -0.19 0.18 -0.22 0.16 -0.22 0.14 -0.24 0.11 -0.21 0.13 -0.27 0.27 -0.55 0.14 -0.28 0.14 -0.26 0.16 -0.28 0.15 -0.21 0.15 -0.19 0.17 -0.16 0.17 -0.15 0.22 -0.16 0.27 -0.19 0.48 -0.31 0.08 -0.39 0.04 -0.21 0.29 -1.89 0.43 0.02 -1.29 -1.49 -0.23 -0.18 -0.17 -0.1 -0.18 -0.06 -0.18 -0.03 -2.43 -0.12 0.44 -2.26 0.03 -0.4 -0.04 -0.37 -0.09 -0.35 -0.79 -1.5zm-8.21 13.21l-1.85 -4.36 -0.3 -0.68 -0.29 -0.67 -0.3 -0.67 -0.3 -0.65 -0.3 -0.64 -0.3 -0.63 -0.3 -0.61 -0.3 -0.61 -0.29 -0.59 -0.29 -0.57 -0.3 -0.57 -0.28 -0.55 -0.29 -0.53 -0.28 -0.51 -0.25 -0.45 -0.09 -0.44 -0.05 -0.27 -0.04 -0.3 -0.04 -0.27 -0.03 -0.28 -0.02 -0.28 -0.02 -0.29 -0.02 -0.28 -0.02 -0.3 -0.04 -0.88 -0.03 -0.61 -0.02 -0.29 0.02 -0.47 -0.03 -0.49 -0.09 -0.46 -0.23 -0.42 -0.37 -0.29 -0.45 -0.11 -0.48 0.05 -0.53 0.14 -0.16 0.06 -0.15 0.04 -0.13 0.02 -0.15 0.03 -0.15 0.02 -0.14 0.01 -0.16 0 -0.16 0 -0.13 -0.01 -0.16 -0.01 -0.3 -0.03 -0.18 -0.02 -0.15 -0.02 -0.15 -0.03 -0.14 -0.03 -0.46 -0.08 -0.44 -0.06 -0.43 -0.06 -0.4 -0.05 -0.38 -0.04 -0.38 -0.04 -0.36 -0.03 -0.36 -0.02 -0.7 -0.04 -0.37 -0.03 -0.36 -0.02 -0.36 -0.03 -0.39 -0.03 -0.4 -0.04 -0.48 -0.05 -0.34 0.09 -0.31 0.22 -0.24 0.28 -0.2 0.33 -0.13 0.38 -0.04 0.44 0.12 0.48 0.3 0.32 0.25 0.15 0.18 0.12 0.19 0.11 0.36 0.24 0.35 0.23 0.18 0.12 0.18 0.13 0.35 0.24 0.35 0.24 0.18 0.13 0.33 0.25 0.25 0.33 0.1 0.15 0.08 0.14 0.08 0.15 0.08 0.15 0.06 0.17 0.05 0.15 0.06 0.2 0.17 0.89 -0.48 0.74 -0.33 0.5 -0.17 0.25 -0.16 0.24 -0.17 0.25 -0.17 0.23 -0.17 0.24 -0.17 0.23 -0.17 0.22 -0.17 0.21 -0.19 0.24 -0.18 0.2 -0.18 0.19 -0.11 0.12 -0.09 0.09 -0.12 0.12 -0.11 0.13 -0.11 0.15 -0.1 0.18 -0.08 0.21 -0.33 1.96 -1.83 -0.4 -0.28 0 -0.28 0.11 -2.25 1.91 -1.24 -2.15 -0.63 -1.12 -0.66 -1.15 -0.66 -1.18 -0.34 -0.58 -0.34 -0.59 -0.34 -0.58 -0.33 -0.57 -0.34 -0.56 -0.33 -0.55 -0.33 -0.53 -0.33 -0.52 -0.32 -0.49 -0.31 -0.47 -0.31 -0.44 -0.3 -0.42 -0.3 -0.38 -0.31 -0.38 -0.28 -0.32 -0.28 -0.28 -0.27 -0.25 -0.27 -0.21 -0.28 -0.16 -0.29 -0.11 -0.25 -0.04 -0.19 -0.01c-2.9,0.25 -5.8,0.18 -8.7,-0.08l-0.25 0.01 -0.32 0.08 -0.32 0.19 -0.29 0.23 -0.27 0.26 -0.24 0.29 -0.2 0.29 -0.15 0.32 -0.17 0.84 0.95 0.13 0.39 0.08 0.36 0.09 0.34 0.11 0.31 0.12 0.27 0.14 0.26 0.16 0.23 0.19 0.15 0.16 0.18 0.22 0.15 0.28 0.1 0.25 0.08 0.31 0.05 0.35 0.02 0.38 -0.02 0.4 -0.12 0.44 -0.13 0.44 -0.13 0.43 -0.13 0.4 -0.14 0.38 -0.13 0.36 -0.13 0.33 -0.12 0.31 -0.13 0.28 -0.13 0.3 -0.13 0.26 -0.13 0.25 -0.13 0.24 -0.12 0.21 -0.13 0.23 -0.26 0.41 0.59 2.23 -1.22 0.55 -0.28 0.31 -0.19 0.57 -0.14 0.44 -0.29 0.87 -0.14 0.43 -0.29 0.86 -0.3 0.86 -0.29 0.85 -0.3 0.84 -0.3 0.84 -0.3 0.83 -0.16 0.41 -0.3 0.82 -0.31 0.82 -0.15 0.41 -0.31 0.81 -0.31 0.81 -0.32 0.81 -0.45 1.15 -0.52 0.85 -0.28 0.46 -0.28 0.45 -0.29 0.44 -0.29 0.42 -0.31 0.43 -0.32 0.41 -0.34 0.41 -0.36 0.39 -0.39 0.37 -0.4 0.36 -0.44 0.33 -0.46 0.32 -0.5 0.29 -0.69 0.34 -0.26 0.5 -0.08 0.45 0.04 0.44 0.14 0.4 0.22 0.34 0.32 0.26 0.4 0.12 0.45 -0.07 0.32 -0.24 0.23 -0.16 0.22 -0.16 0.24 -0.15 0.26 -0.16 0.23 -0.13 0.26 -0.14 0.25 -0.13 0.26 -0.12 0.27 -0.11 0.28 -0.12 0.31 -0.11 0.26 -0.09 0.3 -0.1 0.3 -0.08 0.31 -0.08 0.34 -0.08 0.3 -0.06 0.34 -0.06 0.33 -0.05 0.37 -0.04 0.33 -0.04 0.39 -0.03 0.37 -0.02 0.38 -0.01 0.38 0 0.4 0 0.4 0.01 0.41 0.03 0.43 0.02 0.43 0.04 0.51 0.06 0.44 -0.13 0.33 -0.36 0.18 -0.44 0.05 -0.45 -0.05 -0.45 -0.16 -0.44 -0.29 -0.38 -0.41 -0.22 -1.34 -0.2 -0.15 -1.62 -0.02 -0.39 0 -0.37 0.01 -0.39 0.02 -0.39 0.03 -0.4 0.04 -0.4 0.06 -0.41 0.07 -0.41 0.08 -0.41 0.09 -0.43 0.1 -0.43 0.13 -0.45 0.12 -0.44 0.14 -0.44 0.16 -0.45 0.16 -0.45 0.17 -0.46 0.19 -0.46 0.2 -0.47 0.2 -0.47 0.22 -0.48 0.23 -0.48 0.25 -0.49 0.25 -0.49 0.26 -0.5 0.27 -0.5 0.29 -0.51 0.29 -0.51 0.31 -0.53 0.15 -0.3 -0.02 -0.44 -0.84 -1.88 1.65 -0.75 0.3 -0.25 0.18 -0.28 0.08 -0.12 0.13 -0.18 0.1 -0.16 0.12 -0.19 0.08 -0.14 1.05 -2.41 2.36 2.09 0.5 0.52 0.49 0.6 0.49 0.66 0.49 0.72 0.47 0.78 0.47 0.83 0.45 0.88 0.44 0.92 0.44 0.96 0.41 0.98 0.41 1 0.38 1.02 0.37 1.02 0.36 1.04 0.34 1.04 0.32 1.03 0.31 1.03 0.29 1.01 0.27 0.99 0.25 0.96 0.23 0.93 0.21 0.9 0.19 0.86 0.17 0.81 0.14 0.75 0.13 0.7 0.1 0.64 0.07 0.54 0.05 0.49 0.05 0.39 0.13 0.4 0.2 0.34 0.26 0.27 0.32 0.18 0.35 0.06 0.37 -0.08 0.29 -0.2 2.4 -2.2 0.34 -0.32 1.69 -1.55 1 -0.92 0.27 -0.21 0.25 -0.26 0.2 -0.27 0.16 -0.29 0.12 -0.28 0.08 -0.28 0.06 -0.26 0.07 -0.41 -0.16 -0.45 -0.12 -0.31 -0.12 -0.31 -0.12 -0.31 -0.13 -0.31 -0.12 -0.31 -0.14 -0.32 -0.13 -0.31 -0.14 -0.31 -0.15 -0.31 -0.14 -0.32 -0.15 -0.31 -0.15 -0.32 -0.16 -0.31 -0.16 -0.32 -0.16 -0.32 -0.17 -0.35 -0.15 -0.35 -0.13 -0.34 -0.1 -0.32 -0.09 -0.31 -0.06 -0.31 -0.05 -0.29 -0.03 -0.29 -0.02 -0.29 0 -0.27 0.01 -0.28 0.03 -0.27 0.03 -0.28 0.05 -0.27 0.05 -0.28 0.06 -0.27 0.08 -0.3 0.07 -0.28 0.08 -0.28 0.09 -0.29 0.27 -0.89 0.09 -0.31 0.09 -0.32 0.09 -0.33 0.08 -0.33 0.07 -0.35 0.07 -0.35 0.06 -0.37 0.05 -0.37 0.2 -1.99 2.19 0.07 0.23 -0.05 1.62 -0.72 1.04 1.67 0.2 0.32 0.2 0.33 0.19 0.33 0.2 0.34 0.19 0.34 0.19 0.34 0.19 0.35 0.18 0.35 0.19 0.36 0.18 0.36 0.18 0.37 0.18 0.37 0.18 0.37 0.17 0.38 0.18 0.38 0.17 0.39 0.17 0.39 0.17 0.4 0.16 0.39 0.17 0.41 0.16 0.41 0.16 0.41 0.16 0.42 0.16 0.42 0.15 0.43 0.16 0.43 0.15 0.44 0.15 0.44 0.14 0.45 0.15 0.45 0.13 0.42 0.08 0.36 0.07 0.38 0.06 0.37 0.05 0.33 0.05 0.34 0.03 0.34 0.02 0.32 0 0.3 -0.01 0.29 -0.03 0.26 -0.04 0.25 -0.18 0.68 -0.45 0.42 -0.17 0.17 -0.17 0.16 -0.18 0.15 -0.17 0.16 -0.17 0.15 -0.17 0.15 -0.17 0.14 -0.17 0.15 -0.17 0.14 -0.17 0.12 -0.17 0.13 -0.17 0.12 -0.16 0.11 -0.15 0.1 -0.36 0.22 -0.14 0.6 -0.02 0.39 0.05 0.39 0.17 0.35 0.27 0.27 0.32 0.15 0.34 0.05 0.49 0 0.28 -0.22 0.16 -0.12 0.17 -0.11 0.17 -0.11 0.18 -0.11 0.19 -0.1 0.21 -0.11 0.17 -0.09 0.21 -0.09 0.22 -0.1 0.2 -0.08 0.22 -0.08 0.24 -0.09 0.22 -0.07 0.25 -0.07 0.21 -0.06 0.22 -0.04 0.22 -0.04 0.22 -0.03 0.21 -0.03 0.23 -0.03 0.2 -0.02 0.22 -0.03 0.22 -0.02 0.42 -0.04 0.41 -0.03 0.41 -0.02 0.2 -0.01 0.21 -0.01 0.4 -0.01 0.39 -0.01 0.21 0 0.39 0 0.39 0 0.21 0 0.39 0.01 0.39 0.01 0.36 0.02 0.31 0.04 0.31 0.05 0.32 0.06 0.31 0.05 0.31 0.06 0.32 0.07 0.31 0.07 0.32 0.08 0.3 0.08 0.31 0.09 0.32 0.09 0.31 0.1 0.3 0.11 0.29 0.11 0.31 0.12 0.36 0.15 0.43 0.08 0.4 -0.02 0.37 -0.1 0.33 -0.21 0.27 -0.34 0.12 -0.45 -0.04 -0.47 -0.2 -0.47 -0.48 -0.47 -0.41 -0.37 -0.39 -0.32 -0.43 -0.32 -0.44 -0.32 -0.83 -0.6 -0.38 -0.28 -0.38 -0.3 -0.35 -0.3 -0.33 -0.31 -0.3 -0.33 -0.28 -0.36 -0.25 -0.37 -0.21 -0.41 -0.18 -0.44 -0.17 -0.67 -0.19 -0.74 -0.21 -0.74 -0.21 -0.74 -0.23 -0.73 -0.23 -0.74 -1.15 -3.54 0.03 0.01zm53.58 3.65l0.62 0.44 0.69 0.27 1.52 0.24 1.09 -0.88 0.22 -0.17 0.22 -0.17 0.22 -0.15 0.22 -0.15 0.22 -0.14 0.22 -0.14 0.22 -0.12 0.21 -0.12 0.22 -0.11 0.21 -0.11 0.22 -0.09 0.21 -0.09 0.22 -0.08 0.21 -0.08 0.21 -0.06 0.22 -0.06 0.21 -0.05 0.21 -0.04 0.22 -0.04 0.21 -0.03 0.22 -0.02 0.22 -0.01 0.22 -0.01 0.23 0 0.22 0.01 0.24 0.02 0.23 0.03 0.24 0.03 0.24 0.05 0.25 0.05 1.02 0.26 1.22 -0.46 0.76 -0.57 0.55 -0.81 0.24 -0.84 0.02 -0.7 -0.06 -0.53 -0.1 -0.4 -0.39 -1.31 -1.16 -0.61 -0.12 -0.07 -0.09 -0.07 -0.07 -0.06 -0.05 -0.05 -0.03 -0.04 -0.04 -0.04 -0.02 -0.05 -0.03 -0.06 -0.03 -0.07 -0.03 -0.08 -0.03 -0.11 -0.03 -0.12 -0.03 -0.15 -0.03 -0.16 -0.04 -0.3 -0.08 -0.39 -0.05 -0.27 -0.05 -0.27 -0.03 -0.28 -0.04 -0.28 -0.02 -0.29 -0.03 -0.29 -0.01 -0.29 -0.01 -0.3 -0.01 -0.3 -0.01 -0.3 0.01 -0.31 0 -0.32 0.01 -0.31 0.01 -0.32 0.02 -0.32 0.01 -0.32 0.02 -0.33 0.03 -0.33 0.02 -0.33 0.03 -0.33 0.02 -0.34 0.03 -0.34 0.03 -0.34 0.03 -0.34 0.03 -0.35 0.03 -0.34 0.03 -0.35 0.02 -0.35 0.03 -0.36 0.02 -0.35 0.03 -0.49 -0.02 -0.29 0.01 -0.01 0 0 0 -0.01 0 0 0.01 -0.02 0.01 -0.04 0.03 -0.04 0.04 -0.06 0.06 -0.08 0.07 -0.08 0.09 -0.1 0.11 -0.11 0.13 -0.11 0.14 -0.12 1.76 -1.43 -0.96 -1.97 -0.07 -0.18 -0.17 -0.31 -0.27 -0.43 -0.44 -0.48 -0.59 -0.41 -0.67 -0.28 -1.08 -0.21 -0.85 0.28 -0.22 0.07 -0.23 0.06 -0.22 0.06 -0.22 0.05 -0.23 0.05 -0.22 0.04 -0.22 0.04 -0.23 0.03 -0.22 0.03 -0.22 0.02 -0.22 0.02 -0.23 0.01 -0.22 0.02 -0.23 0 -0.22 0 -0.23 0 -0.23 0 -0.22 -0.01 -0.23 -0.02 -0.23 -0.01 -0.23 -0.02 -0.23 -0.03 -0.23 -0.03 -0.24 -0.03 -0.23 -0.04 -0.23 -0.03 -0.24 -0.05 -0.23 -0.04 -0.24 -0.05 -0.24 -0.05 -0.91 -0.21 -0.97 0.32 -0.46 0.21 -0.51 0.33 -0.51 0.49 -0.43 0.66 -0.26 0.77 -0.08 0.75 0.17 1.94 1.48 0.74 0.2 0.11 0.19 0.1 0.17 0.1 0.16 0.09 0.15 0.1 0.13 0.09 0.12 0.09 0.1 0.08 0.1 0.09 0.08 0.09 0.08 0.09 0.06 0.09 0.01 0 0.02 0.4 0.05 0.52 0.05 0.54 0.05 0.54 0.06 0.56 0.05 0.57 0.06 0.57 0.05 0.58 0.05 0.58 0.04 0.58 0.03 0.58 0.03 0.57 0.01 0.57 0 0.56 -0.01 0.55 -0.02 0.53 -0.04 0.52 -0.05 0.49 -0.07 0.48 -0.08 0.44 -0.1 0.42 -0.12 0.38 -0.12 0.35 -0.14 0.32 -0.15 0.28 -0.16 0.25 -0.17 0.21 -0.18 0.19 -0.2 0.18 -0.22 0.15 -1.83 1.03 0.26 2.14 0.13 0.55 0.21 0.58 0.34 0.58 0.49 0.55zm-7.46 -24.81l-0.15 0.09 -0.16 0.09 -0.14 0.07 -0.15 0.06 -0.13 0.05 -0.13 0.04 -0.11 0.03 -0.11 0.02 -0.1 0.01 -0.09 0 -0.05 0 -0.13 -0.03 -0.23 -0.05 -0.23 -0.07 -0.25 -0.07 -0.26 -0.09 -0.26 -0.09 -0.28 -0.11 -0.29 -0.11 -0.31 -0.11 -0.32 -0.12 -0.34 -0.12 -0.35 -0.12 -0.37 -0.11 -0.39 -0.11 -0.4 -0.1 -0.58 -0.11 -0.59 -0.02 -0.4 -0.01 -0.39 0 -0.4 0 -0.4 0 -0.4 0.01 -0.4 0.01 -0.4 0.02 -0.4 0.03 -0.41 0.04 -0.4 0.05 -0.41 0.05 -0.4 0.07 -0.41 0.08 -0.41 0.1 -0.4 0.11 -0.41 0.13 -0.4 0.14 -0.41 0.16 -0.4 0.18 -0.39 0.2 -0.39 0.21 -0.39 0.24 -0.38 0.26 -0.37 0.28 -0.36 0.3 -0.36 0.32 -0.34 0.35 -0.34 0.36 -0.32 0.38 -0.31 0.41 -0.37 0.53 -0.22 0.42 -0.14 0.29 -0.13 0.3 -0.13 0.3 -0.12 0.31 -0.11 0.3 -0.11 0.32 -0.1 0.31 -0.09 0.32 -0.09 0.32 -0.07 0.33 -0.07 0.32 -0.06 0.33 -0.06 0.34 -0.05 0.33 -0.04 0.34 -0.03 0.34 -0.02 0.35 -0.02 0.34 -0.01 0.35 0 0.35 0 0.36 0.01 0.35 0.02 0.36 0.03 0.36 0.04 0.36 0.04 0.37 0.05 0.37 0.06 0.37 0.06 0.37 0.07 0.37 0.11 0.54 0.27 0.73 0.07 0.18 -0.32 -0.57 -0.34 -0.62 -0.32 -0.6 -0.28 -0.57 -0.26 -0.55 -0.24 -0.52 -0.21 -0.5 -0.19 -0.48 -0.17 -0.46 -0.16 -0.44 -0.13 -0.43 -0.13 -0.41 -0.11 -0.4 -0.1 -0.39 -0.08 -0.39 -0.08 -0.37 -0.08 -0.38 -0.06 -0.37 -0.07 -0.38 -0.05 -0.37 -0.06 -0.39 -0.06 -0.38 -0.05 -0.4 -0.06 -0.41 -0.07 -0.41 -0.06 -0.42 -0.08 -0.44 -0.13 -0.74 -0.43 -0.95 -0.45 -0.72 -0.57 -0.63 -0.69 -0.49 -0.71 -0.29 -0.61 -0.14 -0.45 -0.04 -0.47 -0.03 -0.57 0.05 -0.4 0.03 -0.4 0.03 -0.4 0.03 -0.39 0.02 -0.4 0.02 -0.39 0.02 -0.39 0.01 -0.39 0.02 -0.39 0.01 -0.39 0 -0.38 0 -0.39 0 -0.38 -0.01 -0.38 -0.01 -0.38 -0.02 -0.38 -0.02 -0.37 -0.03 -0.38 -0.03 -0.37 -0.04 -0.38 -0.04 -0.37 -0.05 -0.37 -0.05 -0.37 -0.07 -0.37 -0.06 -0.36 -0.08 -0.37 -0.08 -0.36 -0.09 -0.37 -0.1 -0.36 -0.1 -0.36 -0.11 -1.64 -0.55 -1.3 1.05 -0.33 0.3 -0.34 0.4 -0.33 0.5 -0.28 0.65 -0.15 0.77 0.04 0.81 0.38 1.36 0.97 0.7 0.28 0.19 0.28 0.19 0.28 0.17 0.29 0.17 0.29 0.17 0.29 0.16 0.29 0.15 0.3 0.15 0.3 0.14 0.17 0.09 -0.4 0.14 -0.55 0.34 -0.45 0.4 -0.37 0.46 -0.29 0.47 -0.24 0.5 -0.18 0.53 -0.13 0.48 -0.07 0.27 -0.06 0.2 -0.07 0.2 -0.08 0.21 -0.09 0.21 -0.1 0.22 -0.11 0.22 -0.12 0.23 -0.13 0.23 -0.14 0.24 -0.14 0.24 -0.15 0.24 -0.16 0.26 -0.16 0.25 -0.17 0.27 -0.17 0.27 -0.17 0.28 -0.17 0.28 -0.17 0.29 -0.17 0.31 -0.17 0.31 -0.16 0.33 -0.16 0.33 -0.15 0.35 -0.09 -0.22 -0.3 -0.69 -0.3 -0.69 -0.31 -0.67 -0.3 -0.67 -0.3 -0.65 -0.31 -0.64 -0.3 -0.63 -0.31 -0.62 -0.3 -0.6 -0.3 -0.59 -0.3 -0.58 -0.29 -0.55 -0.29 -0.55 -0.29 -0.53 -0.1 -0.18 -0.03 -0.11 -0.04 -0.22 -0.03 -0.23 -0.03 -0.24 -0.03 -0.24 -0.02 -0.25 -0.02 -0.27 -0.02 -0.27 -0.01 -0.28 -0.02 -0.29 -0.01 -0.29 -0.02 -0.31 -0.01 -0.31 -0.02 -0.32 -0.01 -0.18 0.02 -0.46 -0.04 -0.73 -0.19 -0.9 -0.55 -1.04 -1.06 -0.82 -1.18 -0.27 -0.98 0.08 -0.75 0.21 -0.14 0.05 -0.04 0.01 -0.05 0.01 -0.05 0.01 -0.06 0.01 -0.07 0 -0.07 0 -0.08 0 -0.09 0 -0.1 -0.01 -0.1 -0.01 -0.12 -0.01 -0.12 -0.02 -0.12 -0.01 -0.13 -0.03 -0.16 -0.02 -0.49 -0.09 -0.47 -0.07 -0.46 -0.06 -0.43 -0.06 -0.41 -0.04 -0.4 -0.04 -0.38 -0.03 -0.37 -0.02 -0.36 -0.03 -0.36 -0.02 -0.35 -0.02 -0.34 -0.02 -0.36 -0.03 -0.36 -0.03 -0.37 -0.03 -0.82 -0.09 -1.05 0.26 -0.82 0.58 -0.52 0.6 -0.38 0.66 -0.27 0.78 -0.11 1.03 0.34 1.3 0.83 0.89 0.47 0.29 0.17 0.11 0.17 0.11 0.18 0.11 0.17 0.11 0.17 0.11 0.17 0.11 0.17 0.12 0.16 0.11 0.17 0.12 0.17 0.11 0.16 0.12 0.17 0.12 0.16 0.11 0.1 0.07 0.04 0.06 0.04 0.06 0.04 0.06 0.03 0.06 0.02 0.06 0.03 0.05 0.02 0.06 0.01 0.07 0.01 0.02 -0.04 0.06 -0.17 0.25 -0.16 0.24 -0.15 0.24 -0.16 0.23 -0.16 0.22 -0.15 0.22 -0.15 0.22 -0.16 0.2 -0.15 0.2 -0.15 0.19 -0.15 0.18 -0.15 0.17 -0.15 0.17 -0.08 0.08 -0.1 0.1 -0.15 0.16 -0.21 0.22 -0.24 0.33 -0.24 0.44 -0.19 0.53 -0.01 0.07 -0.03 -0.01 -0.84 0.03 -0.92 0.33 -0.71 0.6 -0.04 -0.07 -0.31 -0.55 -0.32 -0.56 -0.33 -0.58 -0.33 -0.58 -0.33 -0.59 -0.34 -0.59 -0.34 -0.6 -0.34 -0.59 -0.35 -0.59 -0.34 -0.58 -0.34 -0.58 -0.35 -0.56 -0.34 -0.55 -0.33 -0.53 -0.34 -0.52 -0.34 -0.5 -0.33 -0.47 -0.33 -0.46 -0.33 -0.43 -0.33 -0.41 -0.34 -0.38 -0.36 -0.36 -0.38 -0.35 -0.43 -0.33 -0.52 -0.3 -0.65 -0.26 -0.57 -0.08 -0.41 -0.02c-2.87,0.25 -5.73,0.19 -8.61,-0.08l-0.59 0.02 -0.8 0.21 -0.68 0.39 -0.5 0.39 -0.41 0.41 -0.36 0.43 -0.33 0.49 -0.33 0.68 -0.62 3.14 2.97 0.43 0.29 0.06 0.24 0.06 0.21 0.07 0.16 0.06 0.12 0.06 0.08 0.05 0.04 0.03 0.01 0.02 0.01 0.01 0 0.01 0.02 0.03 0.02 0.08 0.02 0.14 0.01 0.2 -0.01 0.09 -0.05 0.19 -0.12 0.42 -0.12 0.4 -0.12 0.36 -0.12 0.35 -0.12 0.31 -0.11 0.3 -0.12 0.28 -0.11 0.26 -0.11 0.24 -0.11 0.22 -0.11 0.22 -0.11 0.2 -0.1 0.19 -0.11 0.18 -0.71 1.15 0.38 1.42 -0.05 0.03 -0.86 0.92 -0.31 0.98 -0.15 0.44 -0.14 0.43 -0.14 0.43 -0.14 0.43 -0.15 0.42 -0.14 0.43 -0.15 0.42 -0.14 0.43 -0.15 0.42 -0.15 0.41 -0.14 0.42 -0.15 0.42 -0.15 0.41 -0.15 0.42 -0.15 0.41 -0.15 0.41 -0.15 0.41 -0.15 0.41 -0.15 0.41 -0.15 0.4 -0.16 0.41 -0.15 0.4 -0.15 0.41 -0.16 0.4 -0.15 0.4 -0.16 0.4 -0.15 0.4 -0.16 0.4 -0.15 0.4 -0.16 0.4 -0.07 0.19 -0.16 0.26 -0.27 0.44 -0.27 0.44 -0.26 0.42 -0.27 0.41 -0.27 0.39 -0.27 0.38 -0.29 0.36 -0.28 0.34 -0.3 0.32 -0.3 0.3 -0.33 0.28 -0.33 0.26 -0.36 0.24 -0.38 0.23 -1.23 0.61 -0.68 1.34 -0.18 1 0.08 0.94 0.3 0.87 0.54 0.81 0.85 0.69 1.19 0.37 1.4 -0.21 0.71 -0.53 0.19 -0.14 0.18 -0.12 0.2 -0.13 0.19 -0.12 0.2 -0.11 0.21 -0.11 0.21 -0.11 0.21 -0.1 0.22 -0.09 0.23 -0.1 0.23 -0.08 0.24 -0.08 0.25 -0.08 0.25 -0.07 0.26 -0.07 0.26 -0.06 0.28 -0.06 0.28 -0.05 0.29 -0.04 0.3 -0.04 0.31 -0.03 0.32 -0.02 0.32 -0.02 0.34 -0.01 0.34 -0.01 0.36 0.01 0.36 0.01 0.38 0.02 0.38 0.02 0.39 0.04 0.91 0.1 1.34 -0.4 0.96 -1.03 0.41 -1.03 0.11 -0.94 -0.1 -0.9 -0.35 -0.95 -0.74 -0.97 -1.08 -0.58 -0.14 -0.02 -0.01 -0.03 -0.01 -0.3 0 -0.32 0 -0.32 0.02 -0.33 0.02 -0.34 0.04 -0.34 0.05 -0.36 0.06 -0.36 0.07 -0.36 0.08 -0.38 0.1 -0.38 0.1 -0.39 0.12 -0.4 0.13 -0.4 0.14 -0.41 0.15 -0.42 0.16 -0.43 0.17 -0.43 0.18 -0.44 0.2 -0.44 0.21 -0.45 0.22 -0.46 0.23 -0.47 0.23 -0.47 0.26 -0.47 0.26 -0.48 0.27 -0.49 0.28 -0.5 0.35 -0.59 0.41 -0.83 -0.07 -1.32 -0.18 -0.41 0.11 -0.05 0.74 -0.64 0.3 -0.47 0.09 -0.12 0.15 -0.22 0.14 -0.22 0.13 -0.23 0.13 -0.23 0.01 0 0.25 0.22 0.39 0.42 0.42 0.5 0.43 0.57 0.43 0.65 0.43 0.71 0.44 0.78 0.42 0.82 0.42 0.87 0.41 0.9 0.4 0.94 0.39 0.97 0.37 0.98 0.37 1 0.34 1.01 0.34 1.01 0.31 1.01 0.3 1 0.28 0.99 0.26 0.97 0.25 0.94 0.22 0.91 0.21 0.87 0.18 0.83 0.16 0.78 0.15 0.73 0.11 0.66 0.1 0.6 0.07 0.51 0.05 0.47 0.07 0.59 0.25 0.79 0.43 0.74 0.63 0.64 0.86 0.49 1.08 0.2 1.14 -0.25 0.73 -0.51 0.46 -0.42 0.34 -0.32 0.34 -0.31 0.34 -0.31 0.34 -0.31 0.33 -0.31 0.34 -0.31 0.34 -0.31 0.34 -0.31 0.34 -0.31 0.34 -0.31 0.33 -0.32 0.34 -0.31 0.34 -0.31 0.34 -0.31 0.27 -0.25 0.31 -0.24 0.43 -0.45 0.37 -0.49 0.28 -0.5 0.19 -0.48 0.13 -0.43 0.08 -0.37 0.19 -0.98 -0.36 -0.98 -0.12 -0.33 -0.13 -0.32 -0.13 -0.33 -0.13 -0.33 -0.14 -0.32 -0.14 -0.33 -0.14 -0.33 -0.15 -0.32 -0.14 -0.33 -0.16 -0.33 -0.15 -0.33 -0.16 -0.32 -0.16 -0.33 -0.16 -0.33 -0.15 -0.29 -0.16 -0.31 -0.11 -0.27 -0.09 -0.24 -0.08 -0.23 -0.05 -0.22 -0.05 -0.2 -0.03 -0.2 -0.02 -0.18 -0.01 -0.19 0 -0.18 0.01 -0.19 0.01 -0.19 0.03 -0.19 0.03 -0.21 0.04 -0.22 0.06 -0.22 0.05 -0.24 0.07 -0.25 0.08 -0.27 0.08 -0.27 0.09 -0.29 0.09 -0.31 0.1 -0.32 0.09 -0.33 0.1 -0.34 0.1 -0.37 0.09 -0.38 0.08 -0.39 0.08 -0.41 0.07 -0.43 0.06 -0.44 0.01 -0.14 0.58 0.02 0.66 -0.14 0.24 -0.1 0.12 0.18 0.19 0.31 0.18 0.31 0.19 0.32 0.19 0.32 0.18 0.33 0.18 0.33 0.18 0.33 0.18 0.34 0.18 0.34 0.17 0.34 0.17 0.35 0.18 0.36 0.17 0.36 0.16 0.36 0.17 0.37 0.17 0.37 0.16 0.38 0.16 0.38 0.16 0.38 0.16 0.39 0.16 0.4 0.15 0.4 0.16 0.4 0.15 0.41 0.15 0.41 0.15 0.42 0.14 0.43 0.15 0.42 0.14 0.44 0.14 0.43 0.1 0.33 0.05 0.24 0.07 0.34 0.06 0.33 0.05 0.31 0.03 0.29 0.03 0.26 0.01 0.24 0 0.21 0 0.17 -0.02 0.13 -0.01 0.1 -0.01 0.04 -0.04 0.04 -0.16 0.15 -0.17 0.15 -0.16 0.15 -0.16 0.14 -0.15 0.14 -0.16 0.14 -0.15 0.12 -0.15 0.13 -0.14 0.11 -0.14 0.11 -0.14 0.11 -0.13 0.09 -0.13 0.09 -0.12 0.07 -1.06 0.65 -0.35 1.58 -0.05 0.75 0.13 0.9 0.45 0.94 0.78 0.75 0.86 0.4 0.78 0.13 1.32 -0.02 0.79 -0.6 0.11 -0.08 0.12 -0.08 0.12 -0.08 0.14 -0.08 0.13 -0.08 0.15 -0.07 0.15 -0.08 0.16 -0.07 0.16 -0.07 0.17 -0.07 0.18 -0.07 0.19 -0.06 0.19 -0.06 0.2 -0.06 0.1 -0.03 0.09 -0.02 0.2 -0.03 0.21 -0.03 0.2 -0.03 0.19 -0.03 0.2 -0.02 0.2 -0.02 0.19 -0.02 0.19 -0.02 0.2 -0.02 0.19 -0.01 0.19 -0.02 0.19 -0.01 0.19 -0.01 0.19 -0.01 0.19 -0.01 0.19 0 0.19 -0.01 0.19 0 0.18 0 0.19 -0.01 0.19 0 0.19 0 0.19 0.01 0.18 0 0.19 0 0.19 0 0.19 0.01 0.19 0 0.2 0.01 0.24 0.01 0.17 0.02 0.3 0.05 0.29 0.05 0.29 0.05 0.29 0.06 0.28 0.06 0.28 0.06 0.28 0.07 0.28 0.07 0.27 0.08 0.28 0.08 0.27 0.09 0.27 0.09 0.26 0.1 0.27 0.11 0.55 0.23 0.85 0.15 0.85 -0.03 0.88 -0.25 0.87 -0.55 0.72 -0.92 0.32 -1.17 -0.1 -1.15 -0.48 -1.12 -0.79 -0.78 -0.48 -0.43 -0.48 -0.39 -0.47 -0.35 -0.44 -0.32 -0.42 -0.3 -0.39 -0.28 -0.36 -0.27 -0.32 -0.25 -0.28 -0.24 -0.24 -0.24 -0.21 -0.22 -0.17 -0.22 -0.15 -0.23 -0.12 -0.24 -0.09 -0.21 -0.15 -0.57 -0.2 -0.76 -0.21 -0.76 -0.22 -0.76 -0.23 -0.76 -0.24 -0.76 -0.05 -0.15 0.07 0.01 0.5 0.01 0.24 0 0.24 0 0.23 -0.01 0.23 0 0.24 0 0.23 -0.01 0.24 -0.01 0.23 0 0.24 -0.01 0.25 0 0.24 -0.01 0.26 0 0.26 -0.01 0.27 0 0.33 0 0.49 -0.01 0.53 -0.07 0.54 -0.12 0.52 -0.18 0.51 -0.26 0.45 -0.33 0.4 -0.36 0.31 -0.37 0.26 -0.36 0.2 -0.34 0.16 -0.32 0.14 -0.28 0.13 -0.27 0.12 -0.25 0.12 -0.23 0.12 -0.22 0.1 -0.18 0.07 -0.09 0.04 -0.05 0.04 -0.04 0.07 -0.06 0.13 -0.1 0.2 -0.14 1.16 -0.76 0.26 -1.24 0.05 -0.27 0.02 -0.12 0.02 0.3 0.01 0.31 0.01 0.32 0.01 0.3 0.01 0.31 0.01 0.3 0 0.29 0.01 0.3 0 0.29 0 0.63 0.2 0.75 0.21 0.54 0.3 0.54 0.4 0.49 0.49 0.41 0.5 0.28 0.45 0.16 0.92 0.22 0.78 -0.24 0.15 -0.04 0.14 -0.05 0.14 -0.03 0.14 -0.04 0.14 -0.04 0.14 -0.03 0.13 -0.03 0.14 -0.02 0.14 -0.02 0.14 -0.02 0.15 -0.02 0.14 -0.02 0.16 -0.01 0.15 -0.01 0.16 0 0.17 0 0.18 0 0.18 0.01 0.19 0.01 0.2 0.02 0.21 0.02 0.22 0.03 0.22 0.04 0.24 0.04 0.25 0.05 0.26 0.05 0.27 0.07 0.29 0.07 0.29 0.08 0.31 0.09 0.54 0.16 0.59 0.08 0.62 -0.02 0.77 -0.19 0.81 -0.49 0.64 -0.78 0.32 -0.86 0.08 -0.75 -0.06 -0.98 0.29 0.33 0.44 0.45 0.46 0.43 0.49 0.41 0.51 0.39 0.53 0.36 0.56 0.33 0.31 0.18 0.13 0.09 0.37 0.27 0.4 0.24 0.4 0.21 0.41 0.19 0.43 0.15 0.42 0.12 0.43 0.1 0.43 0.07 0.43 0.04 0.43 0.02 0.43 -0.01 0.43 -0.03 0.42 -0.04 0.42 -0.07 0.69 -0.13 0.5 -0.26 0.18 -0.08 0.19 -0.07 0.21 -0.08 0.23 -0.08 0.23 -0.07 0.25 -0.06 0.26 -0.07 0.27 -0.06 0.27 -0.05 0.28 -0.05 0.28 -0.04 0.28 -0.04 0.28 -0.04 0.28 -0.03 0.24 -0.02 0.23 -0.01 0.16 0 0.14 0.02 0.11 0.02 0.1 0.03 0.1 0.03 0.09 0.05 0.11 0.05 0.11 0.08 0.14 0.1 0.14 0.12 0.16 0.15 0.18 0.18 0.19 0.21 0.21 0.23 0.53 0.61 0.75 0.42 0.57 0.19 0.57 0.09 0.51 0 0.46 -0.06 0.39 -0.09 0.32 -0.1 2.55 -0.95 -0.95 -2.72 -0.08 -0.28 -0.08 -0.26 -0.06 -0.26 -0.05 -0.24 -0.03 -0.22 -0.03 -0.21 -0.01 -0.2 0 -0.18 0 -0.17 0.01 -0.16 0.02 -0.15 0.02 -0.13 0.03 -0.13 0.04 -0.12 0.04 -0.12 0.05 -0.11 0.05 -0.11 0.06 -0.11 0.07 -0.11 0.08 -0.11 0.08 -0.11 0.1 -0.11 0.11 -0.11 0.12 -0.11 0.13 -0.12 0.15 -0.11 0.16 -0.12 0.17 -0.11 0.19 -0.12 0.2 -0.11 1.33 -0.7 0.32 -1.74 0 -0.78 -0.2 -0.81 -0.38 -0.75 -0.52 -0.57 -0.54 -0.41 -0.52 -0.26 -0.91 -0.32 -0.79 0.09 -0.23 0.02 -0.23 0.03 -0.23 0.02 -0.24 0.02 -0.22 0.03 -0.23 0.02 -0.23 0.01 -0.23 0.02 -0.14 0.01 1.02 -0.72 0.27 -1.34 0.06 -0.3 0.06 -0.3 0.08 -0.28 0.07 -0.28 0.08 -0.26 0.08 -0.26 0.09 -0.25 0.1 -0.24 0.11 -0.24 0.11 -0.22 0.12 -0.23 0.14 -0.22 0.14 -0.21 0.16 -0.22 0.99 -1.2 -0.31 -1.56 -0.11 -0.42 -0.15 -0.48 -0.23 -0.51 -0.33 -0.54 -0.45 -0.53 -0.58 -0.46 -1.76 -0.92 -1.37 0.96 -0.17 0.11 -0.16 0.11 -0.17 0.11 -0.16 0.1zm-1.25 10.87l-0.19 -0.01 -0.22 -0.01 -0.22 -0.01 -0.23 -0.02 -0.22 -0.02 -0.23 -0.02 -0.9 -0.09 -0.94 0.43 -0.46 0.31 -0.4 0.38 -0.33 0.41 -0.25 0.44 -0.18 0.42 -0.13 0.4 -0.58 2.76 -0.11 -0.02 -0.17 -0.04 -0.16 -0.04 -0.15 -0.04 -0.15 -0.05 -0.14 -0.05 -0.13 -0.05 -0.14 -0.05 -0.12 -0.06 -0.12 -0.06 -0.12 -0.06 -0.1 -0.07 -0.11 -0.06 -0.1 -0.07 -0.09 -0.08 -0.09 -0.07 -0.09 -0.08 -0.06 -0.07 -0.13 -0.14 -0.12 -0.15 -0.11 -0.17 -0.12 -0.19 -0.1 -0.22 -0.11 -0.23 -0.1 -0.25 -0.08 -0.28 -0.08 -0.29 -0.07 -0.29 -0.06 -0.32 -0.04 -0.32 -0.04 -0.33 -0.02 -0.34 0 -0.34 0 -0.38 0.01 -0.19 0.01 -0.16 0.02 -0.16 0.02 -0.16 0.03 -0.17 0.04 -0.18 0.04 -0.17 0.05 -0.18 0.06 -0.18 0.06 -0.18 0.07 -0.18 0.07 -0.18 0.08 -0.19 0.09 -0.17 0.09 -0.18 0.1 -0.17 0.1 -0.17 0.11 -0.17 0.11 -0.16 0.11 -0.16 0.12 -0.15 0.12 -0.15 0.12 -0.13 0.12 -0.14 0.13 -0.12 0.12 -0.12 0.13 -0.11 0.13 -0.1 0.12 -0.09 0.04 -0.03 0.14 -0.01 0.24 -0.02 0.24 0 0.26 -0.01 0.28 0.01 0.28 0.01 0.28 0.02 0.29 0.02 0.29 0.04 0.28 0.04 0.28 0.05 0.28 0.05 0.27 0.07 0.28 0.08 0.36 0.1 0.35 0.1 0.3 0.09 0.23 0.08 0.1 0.04 0 0.13 -0.02 0.33 -0.28 1.95 1.32 1.1 0.34 0.22zm-34.19 -2.49l0.05 0.02 0.32 0.09 0.32 0.09 0.32 0.08 0.32 0.09 0.16 0.04 0.01 0.03 0.06 0.1 0.08 0.12 0.07 0.15 0.08 0.17 0.09 0.18 0.09 0.2 0.08 0.22 0.1 0.23 0.09 0.24 0.09 0.26 0.09 0.27 0.09 0.28 0.1 0.29 0.09 0.3 0.1 0.31 0.01 0.04 -0.26 -0.29 -0.5 -0.41 -0.49 -0.26 -0.48 -0.17 -0.44 -0.08 -0.27 -0.01 0.02 -0.13 0.05 -0.68 -0.06 -0.71 -0.21 -0.72 -0.17 -0.34zm12.37 19.53l0 0.72 -0.41 0.13 0 2.22c0.38,-0.32 0.74,-0.57 1.06,-0.73 0.33,-0.16 0.63,-0.24 0.91,-0.24 0.49,0 0.87,0.15 1.14,0.45 0.27,0.3 0.41,0.72 0.41,1.26l0 3.31 0.39 0 0 0.7 -2.74 0 0 -0.7 0.38 0 0 -2.96c0,-0.24 -0.04,-0.42 -0.14,-0.54 -0.1,-0.13 -0.25,-0.19 -0.45,-0.19 -0.15,0 -0.31,0.04 -0.48,0.12 -0.17,0.08 -0.33,0.19 -0.48,0.34l0 3.23 0.39 0 0 0.7 -2.74 0 0 -0.7 0.39 0 0 -5.63 -0.39 0.13 0 -0.71 2.76 -0.91zm8.7 4.74l-2.14 0.89c0.16,0.33 0.36,0.58 0.6,0.75 0.24,0.17 0.52,0.25 0.83,0.25 0.25,0 0.48,-0.05 0.7,-0.14 0.22,-0.1 0.42,-0.24 0.61,-0.44l0.4 0.44c-0.38,0.51 -0.8,0.88 -1.26,1.13 -0.45,0.24 -0.96,0.36 -1.52,0.36 -0.76,0 -1.37,-0.27 -1.85,-0.82 -0.49,-0.55 -0.73,-1.25 -0.73,-2.1 0,-0.83 0.27,-1.54 0.79,-2.11 0.53,-0.57 1.16,-0.85 1.9,-0.85 0.37,0 0.72,0.07 1.03,0.22 0.32,0.14 0.6,0.36 0.84,0.65 0.2,0.23 0.37,0.5 0.51,0.8 0.14,0.29 0.22,0.5 0.22,0.61 0,0.05 -0.11,0.1 -0.32,0.15 -0.2,0.05 -0.41,0.12 -0.61,0.21zm-1.03 -0.53c-0.12,-0.39 -0.27,-0.69 -0.45,-0.9 -0.17,-0.21 -0.36,-0.31 -0.56,-0.31 -0.17,0 -0.3,0.07 -0.4,0.22 -0.09,0.15 -0.14,0.36 -0.14,0.63 0,0.17 0.01,0.33 0.04,0.49 0.03,0.16 0.07,0.31 0.12,0.45l1.39 -0.58zm10.34 -0.22l-1.28 0 0 -0.83 2.52 0c0.14,0 0.28,-0.01 0.42,-0.03 0.13,-0.03 0.26,-0.06 0.38,-0.11l0.3 0.52c-0.09,0.11 -0.16,0.22 -0.21,0.33 -0.05,0.12 -0.07,0.24 -0.07,0.37l0 3.58 -0.61 0 -0.5 -0.81c-0.36,0.32 -0.76,0.56 -1.18,0.73 -0.42,0.16 -0.86,0.24 -1.33,0.24 -0.99,0 -1.79,-0.33 -2.4,-0.99 -0.6,-0.67 -0.9,-1.55 -0.9,-2.65 0,-0.58 0.09,-1.13 0.27,-1.63 0.18,-0.51 0.44,-0.96 0.79,-1.36 0.38,-0.44 0.83,-0.78 1.35,-1.03 0.52,-0.24 1.06,-0.36 1.62,-0.36 0.35,0 0.69,0.05 1.02,0.17 0.33,0.11 0.63,0.28 0.92,0.51l0.43 -0.28 0.45 0.7 -2.32 1.57 -0.43 -0.61c0.05,-0.06 0.09,-0.12 0.12,-0.19 0.03,-0.07 0.04,-0.14 0.04,-0.21 0,-0.18 -0.07,-0.34 -0.2,-0.47 -0.14,-0.12 -0.31,-0.19 -0.51,-0.19 -0.4,0 -0.73,0.2 -0.98,0.6 -0.25,0.39 -0.37,0.92 -0.37,1.58 0,0.96 0.21,1.76 0.63,2.41 0.42,0.66 0.94,0.98 1.56,0.98 0.11,0 0.19,-0.01 0.26,-0.02 0.07,0 0.14,-0.02 0.21,-0.04l0 -2.48zm6.35 0.88c-0.09,-0.01 -0.15,-0.02 -0.19,-0.02 -0.05,-0.01 -0.07,-0.01 -0.09,-0.01 -0.3,0 -0.54,0.09 -0.71,0.28 -0.17,0.19 -0.26,0.45 -0.26,0.77 0,0.29 0.05,0.51 0.16,0.66 0.1,0.14 0.26,0.22 0.46,0.22 0.19,0 0.34,-0.07 0.46,-0.2 0.11,-0.13 0.17,-0.3 0.17,-0.52l0 -1.18zm-1.84 -3.01l0.58 0.22 -0.11 0.31c0.22,-0.09 0.44,-0.17 0.68,-0.22 0.23,-0.05 0.48,-0.07 0.72,-0.07 0.6,0 1.07,0.16 1.41,0.48 0.35,0.32 0.52,0.76 0.52,1.32l0 3.22 0.39 0 0 0.7 -2.19 0 -0.15 -0.53c-0.25,0.23 -0.5,0.4 -0.75,0.52 -0.26,0.11 -0.51,0.17 -0.76,0.17 -0.52,0 -0.94,-0.16 -1.27,-0.49 -0.33,-0.33 -0.49,-0.75 -0.49,-1.27 0,-0.68 0.24,-1.19 0.7,-1.53 0.47,-0.35 1.18,-0.52 2.11,-0.52 0.06,0 0.12,0 0.19,0.01 0.06,0 0.15,0 0.26,0.02l0 -0.3c0,-0.18 -0.06,-0.33 -0.19,-0.44 -0.12,-0.1 -0.29,-0.16 -0.5,-0.16 -0.23,0 -0.45,0.06 -0.66,0.18 -0.2,0.12 -0.39,0.29 -0.56,0.52l-0.65 -0.26 0.72 -1.88zm7.06 -1.02l0.56 0.12 0 1.35 0.96 0 -0.12 0.66c-0.01,0.11 -0.03,0.18 -0.05,0.2 -0.02,0.02 -0.06,0.04 -0.11,0.04l-0.68 0 0 2.86c0,0.28 0.04,0.48 0.11,0.6 0.07,0.12 0.19,0.18 0.36,0.18 0.07,0 0.14,-0.02 0.21,-0.04 0.07,-0.03 0.16,-0.07 0.24,-0.12l0.29 0.43c-0.26,0.28 -0.55,0.49 -0.85,0.64 -0.3,0.15 -0.6,0.22 -0.91,0.22 -0.5,0 -0.86,-0.12 -1.09,-0.37 -0.22,-0.24 -0.34,-0.64 -0.34,-1.19l0 -3.21 -0.5 0 0 -0.65c0.48,-0.14 0.89,-0.36 1.21,-0.65 0.32,-0.29 0.56,-0.64 0.71,-1.07zm5.12 -0.84l0 0.72 -0.4 0.13 0 2.22c0.38,-0.32 0.73,-0.57 1.06,-0.73 0.33,-0.16 0.63,-0.24 0.91,-0.24 0.48,0 0.86,0.15 1.13,0.45 0.28,0.3 0.41,0.72 0.41,1.26l0 3.31 0.39 0 0 0.7 -2.73 0 0 -0.7 0.38 0 0 -2.96c0,-0.24 -0.05,-0.42 -0.15,-0.54 -0.1,-0.13 -0.25,-0.19 -0.44,-0.19 -0.16,0 -0.32,0.04 -0.49,0.12 -0.16,0.08 -0.32,0.19 -0.47,0.34l0 3.23 0.38 0 0 0.7 -2.74 0 0 -0.7 0.39 0 0 -5.63 -0.39 0.13 0 -0.71 2.76 -0.91zm8.7 4.74l-2.13 0.89c0.16,0.33 0.36,0.58 0.6,0.75 0.24,0.17 0.51,0.25 0.82,0.25 0.25,0 0.48,-0.05 0.7,-0.14 0.22,-0.1 0.43,-0.24 0.61,-0.44l0.4 0.44c-0.38,0.51 -0.8,0.88 -1.26,1.13 -0.45,0.24 -0.96,0.36 -1.52,0.36 -0.75,0 -1.37,-0.27 -1.85,-0.82 -0.48,-0.55 -0.72,-1.25 -0.72,-2.1 0,-0.83 0.26,-1.54 0.79,-2.11 0.52,-0.57 1.15,-0.85 1.89,-0.85 0.38,0 0.72,0.07 1.04,0.22 0.31,0.14 0.59,0.36 0.83,0.65 0.2,0.23 0.38,0.5 0.52,0.8 0.14,0.29 0.21,0.5 0.21,0.61 0,0.05 -0.1,0.1 -0.31,0.15 -0.21,0.05 -0.41,0.12 -0.62,0.21zm-1.03 -0.53c-0.12,-0.39 -0.27,-0.69 -0.44,-0.9 -0.18,-0.21 -0.37,-0.31 -0.57,-0.31 -0.17,0 -0.3,0.07 -0.39,0.22 -0.1,0.15 -0.15,0.36 -0.15,0.63 0,0.17 0.02,0.33 0.05,0.49 0.02,0.16 0.06,0.31 0.11,0.45l1.39 -0.58zm6.85 -2.17l0.58 0.21 -0.65 1.9c-0.21,-0.09 -0.39,-0.15 -0.53,-0.19 -0.15,-0.04 -0.27,-0.06 -0.37,-0.06 -0.22,0 -0.39,0.07 -0.52,0.23 -0.12,0.15 -0.19,0.36 -0.19,0.63l0 2.36 0.56 0 0 0.7 -2.9 0 0 -0.7 0.38 0 0 -2.85c0,-0.14 -0.01,-0.24 -0.04,-0.3 -0.02,-0.05 -0.07,-0.1 -0.14,-0.14l-0.2 0.17 -0.4 -0.45 1.19 -1.45c0.33,0.16 0.6,0.33 0.79,0.51 0.2,0.19 0.34,0.4 0.42,0.63 0.31,-0.49 0.54,-0.8 0.7,-0.94 0.15,-0.13 0.31,-0.2 0.48,-0.2 0.09,0 0.2,0.02 0.32,0.05 0.13,0.04 0.26,0.09 0.4,0.15l0.12 -0.26zm3.39 0.06l0.07 0c-0.02,0.24 -0.03,0.44 -0.04,0.59 -0.01,0.15 -0.01,0.28 -0.01,0.38l0 4.05 0.38 0 0 0.7 -2.73 0 0 -0.7 0.38 0 0 -3.8 -0.38 0.07 0 -0.63 2.33 -0.66zm-0.77 -1.76c0.26,0 0.48,0.06 0.64,0.19 0.16,0.12 0.23,0.28 0.23,0.48 0,0.27 -0.13,0.49 -0.39,0.68 -0.27,0.19 -0.58,0.28 -0.95,0.28 -0.23,0 -0.41,-0.06 -0.55,-0.17 -0.13,-0.12 -0.2,-0.28 -0.2,-0.47 0,-0.26 0.12,-0.49 0.37,-0.69 0.25,-0.2 0.53,-0.3 0.85,-0.3zm4.65 1.76l0.07 0 -0.05 0.97c0.38,-0.32 0.73,-0.57 1.06,-0.73 0.33,-0.16 0.63,-0.24 0.91,-0.24 0.49,0 0.87,0.15 1.14,0.45 0.28,0.3 0.42,0.72 0.42,1.26l0 3.31 0.37 0 0 0.7 -2.72 0 0 -0.7 0.38 0 0 -2.96c0,-0.24 -0.05,-0.42 -0.15,-0.54 -0.1,-0.13 -0.25,-0.19 -0.45,-0.19 -0.15,0 -0.32,0.04 -0.48,0.12 -0.17,0.08 -0.33,0.19 -0.48,0.34l0 3.23 0.38 0 0 0.7 -2.73 0 0 -0.7 0.39 0 0 -3.8 -0.39 0.07 0 -0.63 2.33 -0.66zm6.57 1.4c0,0.6 0.11,1.14 0.34,1.61 0.23,0.48 0.47,0.72 0.74,0.72 0.18,0 0.32,-0.07 0.41,-0.21 0.1,-0.14 0.15,-0.33 0.15,-0.58 0,-0.61 -0.11,-1.14 -0.34,-1.59 -0.22,-0.46 -0.48,-0.68 -0.78,-0.68 -0.16,0 -0.29,0.06 -0.38,0.19 -0.09,0.13 -0.14,0.31 -0.14,0.54zm0.88 4.48c-0.08,0.12 -0.14,0.24 -0.18,0.37 -0.05,0.12 -0.07,0.24 -0.07,0.37 0,0.19 0.04,0.34 0.13,0.44 0.08,0.11 0.19,0.17 0.34,0.17 0.12,0 0.21,-0.04 0.29,-0.12 0.07,-0.08 0.1,-0.19 0.1,-0.32 0,-0.2 -0.05,-0.38 -0.16,-0.54 -0.11,-0.16 -0.25,-0.28 -0.45,-0.37zm-2.81 -0.91c0.41,-0.09 0.78,-0.19 1.12,-0.31 0.34,-0.11 0.64,-0.24 0.9,-0.37 -0.58,-0.13 -1.05,-0.38 -1.39,-0.76 -0.34,-0.37 -0.51,-0.81 -0.51,-1.32 0,-0.63 0.25,-1.15 0.75,-1.58 0.51,-0.42 1.13,-0.63 1.88,-0.63 0.19,0 0.37,0.01 0.54,0.03 0.17,0.03 0.34,0.06 0.49,0.1 0.12,-0.42 0.25,-0.7 0.39,-0.83 0.14,-0.14 0.36,-0.21 0.65,-0.21 0.06,0 0.12,0.01 0.19,0.01 0.06,0.01 0.13,0.02 0.19,0.04l-0.22 1.07c-0.08,-0.06 -0.16,-0.09 -0.22,-0.11 -0.05,-0.02 -0.1,-0.03 -0.15,-0.03 -0.06,0 -0.11,0.01 -0.15,0.05 -0.04,0.03 -0.06,0.07 -0.06,0.13 0,0 0.17,0.2 0.49,0.59 0.33,0.4 0.49,0.84 0.49,1.33 0,0.63 -0.23,1.15 -0.7,1.56 -0.46,0.41 -1.18,0.74 -2.16,0.98 0.93,0.12 1.6,0.31 2.02,0.56 0.41,0.24 0.62,0.58 0.62,1 0,0.43 -0.22,0.8 -0.66,1.1 -0.45,0.3 -0.99,0.45 -1.64,0.45 -0.57,0 -1.01,-0.1 -1.32,-0.29 -0.31,-0.19 -0.47,-0.45 -0.47,-0.79 0,-0.25 0.09,-0.47 0.26,-0.65 0.18,-0.18 0.44,-0.32 0.78,-0.42 -0.2,-0.03 -0.35,-0.06 -0.48,-0.07 -0.12,-0.01 -0.23,-0.02 -0.33,-0.02 -0.09,0 -0.19,0.01 -0.29,0.02 -0.11,0.01 -0.23,0.04 -0.36,0.07l-0.65 -0.7z"/>
 </g>
</svg>
