<?xml version="1.0" encoding="UTF-8"?>
<!DOCTYPE svg PUBLIC "-//W3C//DTD SVG 1.1//EN" "http://www.w3.org/Graphics/SVG/1.1/DTD/svg11.dtd">
<!-- Creator: CorelDRAW 2020 (64-Bit) -->
<svg xmlns="http://www.w3.org/2000/svg" xml:space="preserve" width="305px" height="305px" version="1.1" style="shape-rendering:geometricPrecision; text-rendering:geometricPrecision; image-rendering:optimizeQuality; fill-rule:evenodd; clip-rule:evenodd"
viewBox="0 0 218.62 218.64"
 xmlns:xlink="http://www.w3.org/1999/xlink"
 xmlns:xodm="http://www.corel.com/coreldraw/odm/2003">
 <defs>
  <style type="text/css">
   <![CDATA[
    .fil0 {fill:black;fill-rule:nonzero}
   ]]>
  </style>
 </defs>
 <g id="Layer_x0020_1">
  <metadata id="CorelCorpID_0Corel-Layer"/>
  <path class="fil0" d="M97.68 0.62c22.92,-2.47 46.59,2.47 66.53,14.07 18.46,10.67 33.68,26.86 43.08,46.01 11.27,22.52 14.19,49.01 8.5,73.51 -4.57,19.88 -14.87,38.4 -29.39,52.74 -14.22,14.2 -32.48,24.28 -52.05,28.83 -24.43,5.7 -50.81,2.84 -73.31,-8.29 -21.66,-10.55 -39.58,-28.53 -50.04,-50.22 -9.8,-19.97 -13.12,-42.97 -9.68,-64.93 3.22,-21.25 13,-41.46 27.61,-57.23 17.72,-19.33 42.65,-31.84 68.75,-34.49zm3.88 38.87c-12.56,14.08 -23.52,29.53 -33.13,45.75 -8.11,13.95 -14.23,29.55 -14.53,45.87 -0.49,14.79 4.17,29.75 13.26,41.47 7.65,9.9 18.5,17.51 30.77,20.33 18.79,4.5 39.3,-3.12 51.9,-17.45 7.58,-8.3 12.47,-18.95 14.11,-30.05 1.42,-9.68 -0.64,-19.63 -4.9,-28.36 -5.89,-12.29 -14.89,-22.65 -22.66,-33.73 -6.22,-8.83 -11.95,-18.43 -13.82,-29.22 -2.19,-12.2 0.86,-24.45 1.89,-36.6 -8.3,6.6 -15.83,14.1 -22.89,21.99zm37.02 66.14c3.81,2.71 6.34,6.78 8.4,10.89 2.73,5.73 4.65,11.97 4.75,18.35 -0.02,3.74 -0.87,7.9 -3.9,10.39 -4.01,3.18 -10.18,2.65 -14.04,-0.53 -2.71,-2.3 -2.92,-6.31 -2.16,-9.54 1.83,-7.63 6.68,-14.31 7.57,-22.21 0.35,-2.47 -0.08,-4.94 -0.62,-7.35z"/>
 </g>
</svg>
