<?xml version="1.0" encoding="UTF-8"?>
<!DOCTYPE svg PUBLIC "-//W3C//DTD SVG 1.1//EN" "http://www.w3.org/Graphics/SVG/1.1/DTD/svg11.dtd">
<!-- Creator: CorelDRAW 2020 (64-Bit) -->
<svg xmlns="http://www.w3.org/2000/svg" xml:space="preserve" width="305px" height="305px" version="1.1" style="shape-rendering:geometricPrecision; text-rendering:geometricPrecision; image-rendering:optimizeQuality; fill-rule:evenodd; clip-rule:evenodd"
viewBox="0 0 108.91 108.91"
 xmlns:xlink="http://www.w3.org/1999/xlink"
 xmlns:xodm="http://www.corel.com/coreldraw/odm/2003">
 <defs>
  <style type="text/css">
   <![CDATA[
    .fil0 {fill:black;fill-rule:nonzero}
   ]]>
  </style>
 </defs>
 <g id="Layer_x0020_1">
  <metadata id="CorelCorpID_0Corel-Layer"/>
  <path class="fil0" d="M48.06 0.37c11.24,-1.33 22.89,0.91 32.8,6.41 9.69,5.34 17.68,13.72 22.51,23.68 5.09,10.31 6.71,22.27 4.7,33.59 -1.89,10.82 -7.17,21.03 -14.94,28.8 -7.12,7.22 -16.34,12.35 -26.21,14.64 -12.07,2.82 -25.09,1.44 -36.24,-4 -9.78,-4.69 -18.06,-12.42 -23.46,-21.83 -7.72,-13.31 -9.33,-29.93 -4.43,-44.51 4.03,-12.22 12.58,-22.87 23.65,-29.45 6.58,-3.93 14,-6.46 21.62,-7.33zm-13.31 9.25c6,0.89 12.17,0.6 18.07,2.16 2.83,0.73 5.58,2.21 7.17,4.74 -4.12,2.28 -8.86,3.05 -13.49,3.5 2.72,1.55 5.63,3.16 8.87,3.06 4.17,0.07 7.43,-2.91 11.24,-4.09 1.98,-0.64 4.15,0.01 5.75,1.27 4.1,3.22 5.59,9.38 3.23,14.07 -3.35,-1.07 -3.75,-5.2 -6.49,-7.02 -0.13,4.33 1.08,8.87 4.13,12.07 3.24,3.42 7.83,5.1 12.3,6.24 -0.84,3.06 -1.41,6.22 -2.75,9.11 -0.79,1.76 -2.04,3.32 -3.71,4.3 -0.76,-1.07 -1.26,-2.34 -1.26,-3.66 -0.06,-3.24 1.37,-6.23 1.75,-9.41 -1.45,0.56 -2.88,1.37 -3.78,2.67 -1.33,1.86 -1.55,4.22 -1.66,6.43 -0.12,3.81 0.07,7.69 -0.84,11.43 -0.74,2.54 -2.32,4.8 -4.28,6.55 -1.55,1.35 -3.45,2.42 -5.54,2.47 -1.96,0.05 -4.12,-0.36 -5.5,-1.84 -1.34,-1.39 -1.29,-3.72 -0.11,-5.19 1.31,-1.68 3.3,-2.59 5.08,-3.68 1.99,-1.17 3.61,-2.86 4.93,-4.74 3.1,-4.46 4.46,-9.99 4.3,-15.39 -4.13,2.14 -7.71,5.23 -12,7.08 -3.26,1.42 -6.95,2.05 -10.47,1.34 -2.41,-0.48 -4.67,-1.58 -7.13,-1.81 -6.66,-0.52 -13.65,1.79 -18.21,6.76 -5.36,5.72 -7.24,14.05 -6.15,21.68 0.8,5.91 3.76,11.54 8.36,15.37 4.45,3.77 10.22,5.77 16.01,6.08 2.7,0.21 5.4,-0.13 8.1,-0.3 5.32,-0.36 10.66,-0.6 15.93,-1.5 5.01,-0.87 10.03,-2.38 14.28,-5.25 -4.33,-0.49 -8.72,0.37 -13.04,-0.33 -1.73,-0.25 -3.46,-1.07 -4.39,-2.63 4.9,-3.49 11.12,-3.84 16.88,-4.61 5.17,-0.66 10.78,-1.51 14.75,-5.2 4.17,-3.62 5.98,-9.03 7.45,-14.16 -5.51,4.55 -11.87,8.52 -19.07,9.58 3.39,-5.39 8.5,-9.35 12.37,-14.36 2.72,-3.41 4.79,-7.42 5.49,-11.76 0.98,-6.02 0,-12.28 -2.41,-17.86 -2.23,-5.17 -5.5,-9.81 -9.05,-14.15 1.24,4.43 3.79,8.44 4.53,13.02 0.42,2.33 0.13,4.79 -0.98,6.9 -0.66,-3.24 -1.66,-6.42 -3.12,-9.4 -4,-8.39 -11.37,-14.95 -19.92,-18.49 -11.23,-4.71 -24.07,-4.53 -35.62,-1.05zm-4.99 3.93c-3,1.51 -5.4,3.99 -7.34,6.69 -1.69,2.45 -3.15,5.15 -3.66,8.11 1.15,-0.19 2.1,-0.88 2.95,-1.63 1.51,-1.34 3.21,-2.66 5.31,-2.83 0.22,1.82 0.31,3.73 1.28,5.35 1.21,-2.39 2.62,-4.8 4.81,-6.43 1.89,-1.45 4.25,-2.16 6.61,-2.35 1.73,-2.67 0.27,-6.57 -2.64,-7.69 -2.41,-0.82 -5.09,-0.36 -7.32,0.78zm14.58 12.47c3.97,2.28 5.35,7.22 9.25,9.59 2.34,1.45 5.38,1.05 7.7,-0.23 1.41,-0.81 2.75,-2.05 3.09,-3.71 0.29,-1.38 0.3,-2.95 -0.52,-4.15 -0.7,-1.04 -1.99,-1.52 -3.2,-1.59 -2.82,-0.13 -5.65,1.27 -7.24,3.6 -2.04,-0.87 -3.59,-2.57 -5.65,-3.39 -1.09,-0.47 -2.31,-0.39 -3.43,-0.12z"/>
 </g>
</svg>
